G75*
%MOIN*%
%OFA0B0*%
%FSLAX25Y25*%
%IPPOS*%
%LPD*%
%AMOC8*
5,1,8,0,0,1.08239X$1,22.5*
%
%ADD10C,0.00000*%
%ADD11C,0.00200*%
%ADD12C,0.01600*%
%ADD13C,0.01000*%
%ADD14C,0.00600*%
%ADD15C,0.00500*%
%ADD16C,0.00400*%
%ADD17R,0.01181X0.00591*%
%ADD18R,0.01181X0.01181*%
%ADD19R,0.42000X0.03000*%
%ADD20R,0.07500X0.02000*%
%ADD21R,0.03000X0.02000*%
%ADD22C,0.01200*%
%ADD23R,0.06000X0.07500*%
%ADD24R,1.00394X0.39173*%
%ADD25R,0.31496X0.39173*%
D10*
X0005000Y0001000D02*
X0005000Y0470213D01*
X0752126Y0470213D01*
X0752126Y0001000D01*
X0005000Y0001000D01*
X0014449Y0016748D02*
X0014451Y0016906D01*
X0014457Y0017064D01*
X0014467Y0017222D01*
X0014481Y0017380D01*
X0014499Y0017537D01*
X0014520Y0017694D01*
X0014546Y0017850D01*
X0014576Y0018006D01*
X0014609Y0018161D01*
X0014647Y0018314D01*
X0014688Y0018467D01*
X0014733Y0018619D01*
X0014782Y0018770D01*
X0014835Y0018919D01*
X0014891Y0019067D01*
X0014951Y0019213D01*
X0015015Y0019358D01*
X0015083Y0019501D01*
X0015154Y0019643D01*
X0015228Y0019783D01*
X0015306Y0019920D01*
X0015388Y0020056D01*
X0015472Y0020190D01*
X0015561Y0020321D01*
X0015652Y0020450D01*
X0015747Y0020577D01*
X0015844Y0020702D01*
X0015945Y0020824D01*
X0016049Y0020943D01*
X0016156Y0021060D01*
X0016266Y0021174D01*
X0016379Y0021285D01*
X0016494Y0021394D01*
X0016612Y0021499D01*
X0016733Y0021601D01*
X0016856Y0021701D01*
X0016982Y0021797D01*
X0017110Y0021890D01*
X0017240Y0021980D01*
X0017373Y0022066D01*
X0017508Y0022150D01*
X0017644Y0022229D01*
X0017783Y0022306D01*
X0017924Y0022378D01*
X0018066Y0022448D01*
X0018210Y0022513D01*
X0018356Y0022575D01*
X0018503Y0022633D01*
X0018652Y0022688D01*
X0018802Y0022739D01*
X0018953Y0022786D01*
X0019105Y0022829D01*
X0019258Y0022868D01*
X0019413Y0022904D01*
X0019568Y0022935D01*
X0019724Y0022963D01*
X0019880Y0022987D01*
X0020037Y0023007D01*
X0020195Y0023023D01*
X0020352Y0023035D01*
X0020511Y0023043D01*
X0020669Y0023047D01*
X0020827Y0023047D01*
X0020985Y0023043D01*
X0021144Y0023035D01*
X0021301Y0023023D01*
X0021459Y0023007D01*
X0021616Y0022987D01*
X0021772Y0022963D01*
X0021928Y0022935D01*
X0022083Y0022904D01*
X0022238Y0022868D01*
X0022391Y0022829D01*
X0022543Y0022786D01*
X0022694Y0022739D01*
X0022844Y0022688D01*
X0022993Y0022633D01*
X0023140Y0022575D01*
X0023286Y0022513D01*
X0023430Y0022448D01*
X0023572Y0022378D01*
X0023713Y0022306D01*
X0023852Y0022229D01*
X0023988Y0022150D01*
X0024123Y0022066D01*
X0024256Y0021980D01*
X0024386Y0021890D01*
X0024514Y0021797D01*
X0024640Y0021701D01*
X0024763Y0021601D01*
X0024884Y0021499D01*
X0025002Y0021394D01*
X0025117Y0021285D01*
X0025230Y0021174D01*
X0025340Y0021060D01*
X0025447Y0020943D01*
X0025551Y0020824D01*
X0025652Y0020702D01*
X0025749Y0020577D01*
X0025844Y0020450D01*
X0025935Y0020321D01*
X0026024Y0020190D01*
X0026108Y0020056D01*
X0026190Y0019920D01*
X0026268Y0019783D01*
X0026342Y0019643D01*
X0026413Y0019501D01*
X0026481Y0019358D01*
X0026545Y0019213D01*
X0026605Y0019067D01*
X0026661Y0018919D01*
X0026714Y0018770D01*
X0026763Y0018619D01*
X0026808Y0018467D01*
X0026849Y0018314D01*
X0026887Y0018161D01*
X0026920Y0018006D01*
X0026950Y0017850D01*
X0026976Y0017694D01*
X0026997Y0017537D01*
X0027015Y0017380D01*
X0027029Y0017222D01*
X0027039Y0017064D01*
X0027045Y0016906D01*
X0027047Y0016748D01*
X0027045Y0016590D01*
X0027039Y0016432D01*
X0027029Y0016274D01*
X0027015Y0016116D01*
X0026997Y0015959D01*
X0026976Y0015802D01*
X0026950Y0015646D01*
X0026920Y0015490D01*
X0026887Y0015335D01*
X0026849Y0015182D01*
X0026808Y0015029D01*
X0026763Y0014877D01*
X0026714Y0014726D01*
X0026661Y0014577D01*
X0026605Y0014429D01*
X0026545Y0014283D01*
X0026481Y0014138D01*
X0026413Y0013995D01*
X0026342Y0013853D01*
X0026268Y0013713D01*
X0026190Y0013576D01*
X0026108Y0013440D01*
X0026024Y0013306D01*
X0025935Y0013175D01*
X0025844Y0013046D01*
X0025749Y0012919D01*
X0025652Y0012794D01*
X0025551Y0012672D01*
X0025447Y0012553D01*
X0025340Y0012436D01*
X0025230Y0012322D01*
X0025117Y0012211D01*
X0025002Y0012102D01*
X0024884Y0011997D01*
X0024763Y0011895D01*
X0024640Y0011795D01*
X0024514Y0011699D01*
X0024386Y0011606D01*
X0024256Y0011516D01*
X0024123Y0011430D01*
X0023988Y0011346D01*
X0023852Y0011267D01*
X0023713Y0011190D01*
X0023572Y0011118D01*
X0023430Y0011048D01*
X0023286Y0010983D01*
X0023140Y0010921D01*
X0022993Y0010863D01*
X0022844Y0010808D01*
X0022694Y0010757D01*
X0022543Y0010710D01*
X0022391Y0010667D01*
X0022238Y0010628D01*
X0022083Y0010592D01*
X0021928Y0010561D01*
X0021772Y0010533D01*
X0021616Y0010509D01*
X0021459Y0010489D01*
X0021301Y0010473D01*
X0021144Y0010461D01*
X0020985Y0010453D01*
X0020827Y0010449D01*
X0020669Y0010449D01*
X0020511Y0010453D01*
X0020352Y0010461D01*
X0020195Y0010473D01*
X0020037Y0010489D01*
X0019880Y0010509D01*
X0019724Y0010533D01*
X0019568Y0010561D01*
X0019413Y0010592D01*
X0019258Y0010628D01*
X0019105Y0010667D01*
X0018953Y0010710D01*
X0018802Y0010757D01*
X0018652Y0010808D01*
X0018503Y0010863D01*
X0018356Y0010921D01*
X0018210Y0010983D01*
X0018066Y0011048D01*
X0017924Y0011118D01*
X0017783Y0011190D01*
X0017644Y0011267D01*
X0017508Y0011346D01*
X0017373Y0011430D01*
X0017240Y0011516D01*
X0017110Y0011606D01*
X0016982Y0011699D01*
X0016856Y0011795D01*
X0016733Y0011895D01*
X0016612Y0011997D01*
X0016494Y0012102D01*
X0016379Y0012211D01*
X0016266Y0012322D01*
X0016156Y0012436D01*
X0016049Y0012553D01*
X0015945Y0012672D01*
X0015844Y0012794D01*
X0015747Y0012919D01*
X0015652Y0013046D01*
X0015561Y0013175D01*
X0015472Y0013306D01*
X0015388Y0013440D01*
X0015306Y0013576D01*
X0015228Y0013713D01*
X0015154Y0013853D01*
X0015083Y0013995D01*
X0015015Y0014138D01*
X0014951Y0014283D01*
X0014891Y0014429D01*
X0014835Y0014577D01*
X0014782Y0014726D01*
X0014733Y0014877D01*
X0014688Y0015029D01*
X0014647Y0015182D01*
X0014609Y0015335D01*
X0014576Y0015490D01*
X0014546Y0015646D01*
X0014520Y0015802D01*
X0014499Y0015959D01*
X0014481Y0016116D01*
X0014467Y0016274D01*
X0014457Y0016432D01*
X0014451Y0016590D01*
X0014449Y0016748D01*
X0032952Y0092437D02*
X0032954Y0092590D01*
X0032960Y0092744D01*
X0032970Y0092897D01*
X0032984Y0093049D01*
X0033002Y0093202D01*
X0033024Y0093353D01*
X0033049Y0093504D01*
X0033079Y0093655D01*
X0033113Y0093805D01*
X0033150Y0093953D01*
X0033191Y0094101D01*
X0033236Y0094247D01*
X0033285Y0094393D01*
X0033338Y0094537D01*
X0033394Y0094679D01*
X0033454Y0094820D01*
X0033518Y0094960D01*
X0033585Y0095098D01*
X0033656Y0095234D01*
X0033731Y0095368D01*
X0033808Y0095500D01*
X0033890Y0095630D01*
X0033974Y0095758D01*
X0034062Y0095884D01*
X0034153Y0096007D01*
X0034247Y0096128D01*
X0034345Y0096246D01*
X0034445Y0096362D01*
X0034549Y0096475D01*
X0034655Y0096586D01*
X0034764Y0096694D01*
X0034876Y0096799D01*
X0034990Y0096900D01*
X0035108Y0096999D01*
X0035227Y0097095D01*
X0035349Y0097188D01*
X0035474Y0097277D01*
X0035601Y0097364D01*
X0035730Y0097446D01*
X0035861Y0097526D01*
X0035994Y0097602D01*
X0036129Y0097675D01*
X0036266Y0097744D01*
X0036405Y0097809D01*
X0036545Y0097871D01*
X0036687Y0097929D01*
X0036830Y0097984D01*
X0036975Y0098035D01*
X0037121Y0098082D01*
X0037268Y0098125D01*
X0037416Y0098164D01*
X0037565Y0098200D01*
X0037715Y0098231D01*
X0037866Y0098259D01*
X0038017Y0098283D01*
X0038170Y0098303D01*
X0038322Y0098319D01*
X0038475Y0098331D01*
X0038628Y0098339D01*
X0038781Y0098343D01*
X0038935Y0098343D01*
X0039088Y0098339D01*
X0039241Y0098331D01*
X0039394Y0098319D01*
X0039546Y0098303D01*
X0039699Y0098283D01*
X0039850Y0098259D01*
X0040001Y0098231D01*
X0040151Y0098200D01*
X0040300Y0098164D01*
X0040448Y0098125D01*
X0040595Y0098082D01*
X0040741Y0098035D01*
X0040886Y0097984D01*
X0041029Y0097929D01*
X0041171Y0097871D01*
X0041311Y0097809D01*
X0041450Y0097744D01*
X0041587Y0097675D01*
X0041722Y0097602D01*
X0041855Y0097526D01*
X0041986Y0097446D01*
X0042115Y0097364D01*
X0042242Y0097277D01*
X0042367Y0097188D01*
X0042489Y0097095D01*
X0042608Y0096999D01*
X0042726Y0096900D01*
X0042840Y0096799D01*
X0042952Y0096694D01*
X0043061Y0096586D01*
X0043167Y0096475D01*
X0043271Y0096362D01*
X0043371Y0096246D01*
X0043469Y0096128D01*
X0043563Y0096007D01*
X0043654Y0095884D01*
X0043742Y0095758D01*
X0043826Y0095630D01*
X0043908Y0095500D01*
X0043985Y0095368D01*
X0044060Y0095234D01*
X0044131Y0095098D01*
X0044198Y0094960D01*
X0044262Y0094820D01*
X0044322Y0094679D01*
X0044378Y0094537D01*
X0044431Y0094393D01*
X0044480Y0094247D01*
X0044525Y0094101D01*
X0044566Y0093953D01*
X0044603Y0093805D01*
X0044637Y0093655D01*
X0044667Y0093504D01*
X0044692Y0093353D01*
X0044714Y0093202D01*
X0044732Y0093049D01*
X0044746Y0092897D01*
X0044756Y0092744D01*
X0044762Y0092590D01*
X0044764Y0092437D01*
X0044762Y0092284D01*
X0044756Y0092130D01*
X0044746Y0091977D01*
X0044732Y0091825D01*
X0044714Y0091672D01*
X0044692Y0091521D01*
X0044667Y0091370D01*
X0044637Y0091219D01*
X0044603Y0091069D01*
X0044566Y0090921D01*
X0044525Y0090773D01*
X0044480Y0090627D01*
X0044431Y0090481D01*
X0044378Y0090337D01*
X0044322Y0090195D01*
X0044262Y0090054D01*
X0044198Y0089914D01*
X0044131Y0089776D01*
X0044060Y0089640D01*
X0043985Y0089506D01*
X0043908Y0089374D01*
X0043826Y0089244D01*
X0043742Y0089116D01*
X0043654Y0088990D01*
X0043563Y0088867D01*
X0043469Y0088746D01*
X0043371Y0088628D01*
X0043271Y0088512D01*
X0043167Y0088399D01*
X0043061Y0088288D01*
X0042952Y0088180D01*
X0042840Y0088075D01*
X0042726Y0087974D01*
X0042608Y0087875D01*
X0042489Y0087779D01*
X0042367Y0087686D01*
X0042242Y0087597D01*
X0042115Y0087510D01*
X0041986Y0087428D01*
X0041855Y0087348D01*
X0041722Y0087272D01*
X0041587Y0087199D01*
X0041450Y0087130D01*
X0041311Y0087065D01*
X0041171Y0087003D01*
X0041029Y0086945D01*
X0040886Y0086890D01*
X0040741Y0086839D01*
X0040595Y0086792D01*
X0040448Y0086749D01*
X0040300Y0086710D01*
X0040151Y0086674D01*
X0040001Y0086643D01*
X0039850Y0086615D01*
X0039699Y0086591D01*
X0039546Y0086571D01*
X0039394Y0086555D01*
X0039241Y0086543D01*
X0039088Y0086535D01*
X0038935Y0086531D01*
X0038781Y0086531D01*
X0038628Y0086535D01*
X0038475Y0086543D01*
X0038322Y0086555D01*
X0038170Y0086571D01*
X0038017Y0086591D01*
X0037866Y0086615D01*
X0037715Y0086643D01*
X0037565Y0086674D01*
X0037416Y0086710D01*
X0037268Y0086749D01*
X0037121Y0086792D01*
X0036975Y0086839D01*
X0036830Y0086890D01*
X0036687Y0086945D01*
X0036545Y0087003D01*
X0036405Y0087065D01*
X0036266Y0087130D01*
X0036129Y0087199D01*
X0035994Y0087272D01*
X0035861Y0087348D01*
X0035730Y0087428D01*
X0035601Y0087510D01*
X0035474Y0087597D01*
X0035349Y0087686D01*
X0035227Y0087779D01*
X0035108Y0087875D01*
X0034990Y0087974D01*
X0034876Y0088075D01*
X0034764Y0088180D01*
X0034655Y0088288D01*
X0034549Y0088399D01*
X0034445Y0088512D01*
X0034345Y0088628D01*
X0034247Y0088746D01*
X0034153Y0088867D01*
X0034062Y0088990D01*
X0033974Y0089116D01*
X0033890Y0089244D01*
X0033808Y0089374D01*
X0033731Y0089506D01*
X0033656Y0089640D01*
X0033585Y0089776D01*
X0033518Y0089914D01*
X0033454Y0090054D01*
X0033394Y0090195D01*
X0033338Y0090337D01*
X0033285Y0090481D01*
X0033236Y0090627D01*
X0033191Y0090773D01*
X0033150Y0090921D01*
X0033113Y0091069D01*
X0033079Y0091219D01*
X0033049Y0091370D01*
X0033024Y0091521D01*
X0033002Y0091672D01*
X0032984Y0091825D01*
X0032970Y0091977D01*
X0032960Y0092130D01*
X0032954Y0092284D01*
X0032952Y0092437D01*
X0010512Y0457693D02*
X0010514Y0457851D01*
X0010520Y0458009D01*
X0010530Y0458167D01*
X0010544Y0458325D01*
X0010562Y0458482D01*
X0010583Y0458639D01*
X0010609Y0458795D01*
X0010639Y0458951D01*
X0010672Y0459106D01*
X0010710Y0459259D01*
X0010751Y0459412D01*
X0010796Y0459564D01*
X0010845Y0459715D01*
X0010898Y0459864D01*
X0010954Y0460012D01*
X0011014Y0460158D01*
X0011078Y0460303D01*
X0011146Y0460446D01*
X0011217Y0460588D01*
X0011291Y0460728D01*
X0011369Y0460865D01*
X0011451Y0461001D01*
X0011535Y0461135D01*
X0011624Y0461266D01*
X0011715Y0461395D01*
X0011810Y0461522D01*
X0011907Y0461647D01*
X0012008Y0461769D01*
X0012112Y0461888D01*
X0012219Y0462005D01*
X0012329Y0462119D01*
X0012442Y0462230D01*
X0012557Y0462339D01*
X0012675Y0462444D01*
X0012796Y0462546D01*
X0012919Y0462646D01*
X0013045Y0462742D01*
X0013173Y0462835D01*
X0013303Y0462925D01*
X0013436Y0463011D01*
X0013571Y0463095D01*
X0013707Y0463174D01*
X0013846Y0463251D01*
X0013987Y0463323D01*
X0014129Y0463393D01*
X0014273Y0463458D01*
X0014419Y0463520D01*
X0014566Y0463578D01*
X0014715Y0463633D01*
X0014865Y0463684D01*
X0015016Y0463731D01*
X0015168Y0463774D01*
X0015321Y0463813D01*
X0015476Y0463849D01*
X0015631Y0463880D01*
X0015787Y0463908D01*
X0015943Y0463932D01*
X0016100Y0463952D01*
X0016258Y0463968D01*
X0016415Y0463980D01*
X0016574Y0463988D01*
X0016732Y0463992D01*
X0016890Y0463992D01*
X0017048Y0463988D01*
X0017207Y0463980D01*
X0017364Y0463968D01*
X0017522Y0463952D01*
X0017679Y0463932D01*
X0017835Y0463908D01*
X0017991Y0463880D01*
X0018146Y0463849D01*
X0018301Y0463813D01*
X0018454Y0463774D01*
X0018606Y0463731D01*
X0018757Y0463684D01*
X0018907Y0463633D01*
X0019056Y0463578D01*
X0019203Y0463520D01*
X0019349Y0463458D01*
X0019493Y0463393D01*
X0019635Y0463323D01*
X0019776Y0463251D01*
X0019915Y0463174D01*
X0020051Y0463095D01*
X0020186Y0463011D01*
X0020319Y0462925D01*
X0020449Y0462835D01*
X0020577Y0462742D01*
X0020703Y0462646D01*
X0020826Y0462546D01*
X0020947Y0462444D01*
X0021065Y0462339D01*
X0021180Y0462230D01*
X0021293Y0462119D01*
X0021403Y0462005D01*
X0021510Y0461888D01*
X0021614Y0461769D01*
X0021715Y0461647D01*
X0021812Y0461522D01*
X0021907Y0461395D01*
X0021998Y0461266D01*
X0022087Y0461135D01*
X0022171Y0461001D01*
X0022253Y0460865D01*
X0022331Y0460728D01*
X0022405Y0460588D01*
X0022476Y0460446D01*
X0022544Y0460303D01*
X0022608Y0460158D01*
X0022668Y0460012D01*
X0022724Y0459864D01*
X0022777Y0459715D01*
X0022826Y0459564D01*
X0022871Y0459412D01*
X0022912Y0459259D01*
X0022950Y0459106D01*
X0022983Y0458951D01*
X0023013Y0458795D01*
X0023039Y0458639D01*
X0023060Y0458482D01*
X0023078Y0458325D01*
X0023092Y0458167D01*
X0023102Y0458009D01*
X0023108Y0457851D01*
X0023110Y0457693D01*
X0023108Y0457535D01*
X0023102Y0457377D01*
X0023092Y0457219D01*
X0023078Y0457061D01*
X0023060Y0456904D01*
X0023039Y0456747D01*
X0023013Y0456591D01*
X0022983Y0456435D01*
X0022950Y0456280D01*
X0022912Y0456127D01*
X0022871Y0455974D01*
X0022826Y0455822D01*
X0022777Y0455671D01*
X0022724Y0455522D01*
X0022668Y0455374D01*
X0022608Y0455228D01*
X0022544Y0455083D01*
X0022476Y0454940D01*
X0022405Y0454798D01*
X0022331Y0454658D01*
X0022253Y0454521D01*
X0022171Y0454385D01*
X0022087Y0454251D01*
X0021998Y0454120D01*
X0021907Y0453991D01*
X0021812Y0453864D01*
X0021715Y0453739D01*
X0021614Y0453617D01*
X0021510Y0453498D01*
X0021403Y0453381D01*
X0021293Y0453267D01*
X0021180Y0453156D01*
X0021065Y0453047D01*
X0020947Y0452942D01*
X0020826Y0452840D01*
X0020703Y0452740D01*
X0020577Y0452644D01*
X0020449Y0452551D01*
X0020319Y0452461D01*
X0020186Y0452375D01*
X0020051Y0452291D01*
X0019915Y0452212D01*
X0019776Y0452135D01*
X0019635Y0452063D01*
X0019493Y0451993D01*
X0019349Y0451928D01*
X0019203Y0451866D01*
X0019056Y0451808D01*
X0018907Y0451753D01*
X0018757Y0451702D01*
X0018606Y0451655D01*
X0018454Y0451612D01*
X0018301Y0451573D01*
X0018146Y0451537D01*
X0017991Y0451506D01*
X0017835Y0451478D01*
X0017679Y0451454D01*
X0017522Y0451434D01*
X0017364Y0451418D01*
X0017207Y0451406D01*
X0017048Y0451398D01*
X0016890Y0451394D01*
X0016732Y0451394D01*
X0016574Y0451398D01*
X0016415Y0451406D01*
X0016258Y0451418D01*
X0016100Y0451434D01*
X0015943Y0451454D01*
X0015787Y0451478D01*
X0015631Y0451506D01*
X0015476Y0451537D01*
X0015321Y0451573D01*
X0015168Y0451612D01*
X0015016Y0451655D01*
X0014865Y0451702D01*
X0014715Y0451753D01*
X0014566Y0451808D01*
X0014419Y0451866D01*
X0014273Y0451928D01*
X0014129Y0451993D01*
X0013987Y0452063D01*
X0013846Y0452135D01*
X0013707Y0452212D01*
X0013571Y0452291D01*
X0013436Y0452375D01*
X0013303Y0452461D01*
X0013173Y0452551D01*
X0013045Y0452644D01*
X0012919Y0452740D01*
X0012796Y0452840D01*
X0012675Y0452942D01*
X0012557Y0453047D01*
X0012442Y0453156D01*
X0012329Y0453267D01*
X0012219Y0453381D01*
X0012112Y0453498D01*
X0012008Y0453617D01*
X0011907Y0453739D01*
X0011810Y0453864D01*
X0011715Y0453991D01*
X0011624Y0454120D01*
X0011535Y0454251D01*
X0011451Y0454385D01*
X0011369Y0454521D01*
X0011291Y0454658D01*
X0011217Y0454798D01*
X0011146Y0454940D01*
X0011078Y0455083D01*
X0011014Y0455228D01*
X0010954Y0455374D01*
X0010898Y0455522D01*
X0010845Y0455671D01*
X0010796Y0455822D01*
X0010751Y0455974D01*
X0010710Y0456127D01*
X0010672Y0456280D01*
X0010639Y0456435D01*
X0010609Y0456591D01*
X0010583Y0456747D01*
X0010562Y0456904D01*
X0010544Y0457061D01*
X0010530Y0457219D01*
X0010520Y0457377D01*
X0010514Y0457535D01*
X0010512Y0457693D01*
X0730984Y0453756D02*
X0730986Y0453914D01*
X0730992Y0454072D01*
X0731002Y0454230D01*
X0731016Y0454388D01*
X0731034Y0454545D01*
X0731055Y0454702D01*
X0731081Y0454858D01*
X0731111Y0455014D01*
X0731144Y0455169D01*
X0731182Y0455322D01*
X0731223Y0455475D01*
X0731268Y0455627D01*
X0731317Y0455778D01*
X0731370Y0455927D01*
X0731426Y0456075D01*
X0731486Y0456221D01*
X0731550Y0456366D01*
X0731618Y0456509D01*
X0731689Y0456651D01*
X0731763Y0456791D01*
X0731841Y0456928D01*
X0731923Y0457064D01*
X0732007Y0457198D01*
X0732096Y0457329D01*
X0732187Y0457458D01*
X0732282Y0457585D01*
X0732379Y0457710D01*
X0732480Y0457832D01*
X0732584Y0457951D01*
X0732691Y0458068D01*
X0732801Y0458182D01*
X0732914Y0458293D01*
X0733029Y0458402D01*
X0733147Y0458507D01*
X0733268Y0458609D01*
X0733391Y0458709D01*
X0733517Y0458805D01*
X0733645Y0458898D01*
X0733775Y0458988D01*
X0733908Y0459074D01*
X0734043Y0459158D01*
X0734179Y0459237D01*
X0734318Y0459314D01*
X0734459Y0459386D01*
X0734601Y0459456D01*
X0734745Y0459521D01*
X0734891Y0459583D01*
X0735038Y0459641D01*
X0735187Y0459696D01*
X0735337Y0459747D01*
X0735488Y0459794D01*
X0735640Y0459837D01*
X0735793Y0459876D01*
X0735948Y0459912D01*
X0736103Y0459943D01*
X0736259Y0459971D01*
X0736415Y0459995D01*
X0736572Y0460015D01*
X0736730Y0460031D01*
X0736887Y0460043D01*
X0737046Y0460051D01*
X0737204Y0460055D01*
X0737362Y0460055D01*
X0737520Y0460051D01*
X0737679Y0460043D01*
X0737836Y0460031D01*
X0737994Y0460015D01*
X0738151Y0459995D01*
X0738307Y0459971D01*
X0738463Y0459943D01*
X0738618Y0459912D01*
X0738773Y0459876D01*
X0738926Y0459837D01*
X0739078Y0459794D01*
X0739229Y0459747D01*
X0739379Y0459696D01*
X0739528Y0459641D01*
X0739675Y0459583D01*
X0739821Y0459521D01*
X0739965Y0459456D01*
X0740107Y0459386D01*
X0740248Y0459314D01*
X0740387Y0459237D01*
X0740523Y0459158D01*
X0740658Y0459074D01*
X0740791Y0458988D01*
X0740921Y0458898D01*
X0741049Y0458805D01*
X0741175Y0458709D01*
X0741298Y0458609D01*
X0741419Y0458507D01*
X0741537Y0458402D01*
X0741652Y0458293D01*
X0741765Y0458182D01*
X0741875Y0458068D01*
X0741982Y0457951D01*
X0742086Y0457832D01*
X0742187Y0457710D01*
X0742284Y0457585D01*
X0742379Y0457458D01*
X0742470Y0457329D01*
X0742559Y0457198D01*
X0742643Y0457064D01*
X0742725Y0456928D01*
X0742803Y0456791D01*
X0742877Y0456651D01*
X0742948Y0456509D01*
X0743016Y0456366D01*
X0743080Y0456221D01*
X0743140Y0456075D01*
X0743196Y0455927D01*
X0743249Y0455778D01*
X0743298Y0455627D01*
X0743343Y0455475D01*
X0743384Y0455322D01*
X0743422Y0455169D01*
X0743455Y0455014D01*
X0743485Y0454858D01*
X0743511Y0454702D01*
X0743532Y0454545D01*
X0743550Y0454388D01*
X0743564Y0454230D01*
X0743574Y0454072D01*
X0743580Y0453914D01*
X0743582Y0453756D01*
X0743580Y0453598D01*
X0743574Y0453440D01*
X0743564Y0453282D01*
X0743550Y0453124D01*
X0743532Y0452967D01*
X0743511Y0452810D01*
X0743485Y0452654D01*
X0743455Y0452498D01*
X0743422Y0452343D01*
X0743384Y0452190D01*
X0743343Y0452037D01*
X0743298Y0451885D01*
X0743249Y0451734D01*
X0743196Y0451585D01*
X0743140Y0451437D01*
X0743080Y0451291D01*
X0743016Y0451146D01*
X0742948Y0451003D01*
X0742877Y0450861D01*
X0742803Y0450721D01*
X0742725Y0450584D01*
X0742643Y0450448D01*
X0742559Y0450314D01*
X0742470Y0450183D01*
X0742379Y0450054D01*
X0742284Y0449927D01*
X0742187Y0449802D01*
X0742086Y0449680D01*
X0741982Y0449561D01*
X0741875Y0449444D01*
X0741765Y0449330D01*
X0741652Y0449219D01*
X0741537Y0449110D01*
X0741419Y0449005D01*
X0741298Y0448903D01*
X0741175Y0448803D01*
X0741049Y0448707D01*
X0740921Y0448614D01*
X0740791Y0448524D01*
X0740658Y0448438D01*
X0740523Y0448354D01*
X0740387Y0448275D01*
X0740248Y0448198D01*
X0740107Y0448126D01*
X0739965Y0448056D01*
X0739821Y0447991D01*
X0739675Y0447929D01*
X0739528Y0447871D01*
X0739379Y0447816D01*
X0739229Y0447765D01*
X0739078Y0447718D01*
X0738926Y0447675D01*
X0738773Y0447636D01*
X0738618Y0447600D01*
X0738463Y0447569D01*
X0738307Y0447541D01*
X0738151Y0447517D01*
X0737994Y0447497D01*
X0737836Y0447481D01*
X0737679Y0447469D01*
X0737520Y0447461D01*
X0737362Y0447457D01*
X0737204Y0447457D01*
X0737046Y0447461D01*
X0736887Y0447469D01*
X0736730Y0447481D01*
X0736572Y0447497D01*
X0736415Y0447517D01*
X0736259Y0447541D01*
X0736103Y0447569D01*
X0735948Y0447600D01*
X0735793Y0447636D01*
X0735640Y0447675D01*
X0735488Y0447718D01*
X0735337Y0447765D01*
X0735187Y0447816D01*
X0735038Y0447871D01*
X0734891Y0447929D01*
X0734745Y0447991D01*
X0734601Y0448056D01*
X0734459Y0448126D01*
X0734318Y0448198D01*
X0734179Y0448275D01*
X0734043Y0448354D01*
X0733908Y0448438D01*
X0733775Y0448524D01*
X0733645Y0448614D01*
X0733517Y0448707D01*
X0733391Y0448803D01*
X0733268Y0448903D01*
X0733147Y0449005D01*
X0733029Y0449110D01*
X0732914Y0449219D01*
X0732801Y0449330D01*
X0732691Y0449444D01*
X0732584Y0449561D01*
X0732480Y0449680D01*
X0732379Y0449802D01*
X0732282Y0449927D01*
X0732187Y0450054D01*
X0732096Y0450183D01*
X0732007Y0450314D01*
X0731923Y0450448D01*
X0731841Y0450584D01*
X0731763Y0450721D01*
X0731689Y0450861D01*
X0731618Y0451003D01*
X0731550Y0451146D01*
X0731486Y0451291D01*
X0731426Y0451437D01*
X0731370Y0451585D01*
X0731317Y0451734D01*
X0731268Y0451885D01*
X0731223Y0452037D01*
X0731182Y0452190D01*
X0731144Y0452343D01*
X0731111Y0452498D01*
X0731081Y0452654D01*
X0731055Y0452810D01*
X0731034Y0452967D01*
X0731016Y0453124D01*
X0731002Y0453282D01*
X0730992Y0453440D01*
X0730986Y0453598D01*
X0730984Y0453756D01*
X0734921Y0016748D02*
X0734923Y0016906D01*
X0734929Y0017064D01*
X0734939Y0017222D01*
X0734953Y0017380D01*
X0734971Y0017537D01*
X0734992Y0017694D01*
X0735018Y0017850D01*
X0735048Y0018006D01*
X0735081Y0018161D01*
X0735119Y0018314D01*
X0735160Y0018467D01*
X0735205Y0018619D01*
X0735254Y0018770D01*
X0735307Y0018919D01*
X0735363Y0019067D01*
X0735423Y0019213D01*
X0735487Y0019358D01*
X0735555Y0019501D01*
X0735626Y0019643D01*
X0735700Y0019783D01*
X0735778Y0019920D01*
X0735860Y0020056D01*
X0735944Y0020190D01*
X0736033Y0020321D01*
X0736124Y0020450D01*
X0736219Y0020577D01*
X0736316Y0020702D01*
X0736417Y0020824D01*
X0736521Y0020943D01*
X0736628Y0021060D01*
X0736738Y0021174D01*
X0736851Y0021285D01*
X0736966Y0021394D01*
X0737084Y0021499D01*
X0737205Y0021601D01*
X0737328Y0021701D01*
X0737454Y0021797D01*
X0737582Y0021890D01*
X0737712Y0021980D01*
X0737845Y0022066D01*
X0737980Y0022150D01*
X0738116Y0022229D01*
X0738255Y0022306D01*
X0738396Y0022378D01*
X0738538Y0022448D01*
X0738682Y0022513D01*
X0738828Y0022575D01*
X0738975Y0022633D01*
X0739124Y0022688D01*
X0739274Y0022739D01*
X0739425Y0022786D01*
X0739577Y0022829D01*
X0739730Y0022868D01*
X0739885Y0022904D01*
X0740040Y0022935D01*
X0740196Y0022963D01*
X0740352Y0022987D01*
X0740509Y0023007D01*
X0740667Y0023023D01*
X0740824Y0023035D01*
X0740983Y0023043D01*
X0741141Y0023047D01*
X0741299Y0023047D01*
X0741457Y0023043D01*
X0741616Y0023035D01*
X0741773Y0023023D01*
X0741931Y0023007D01*
X0742088Y0022987D01*
X0742244Y0022963D01*
X0742400Y0022935D01*
X0742555Y0022904D01*
X0742710Y0022868D01*
X0742863Y0022829D01*
X0743015Y0022786D01*
X0743166Y0022739D01*
X0743316Y0022688D01*
X0743465Y0022633D01*
X0743612Y0022575D01*
X0743758Y0022513D01*
X0743902Y0022448D01*
X0744044Y0022378D01*
X0744185Y0022306D01*
X0744324Y0022229D01*
X0744460Y0022150D01*
X0744595Y0022066D01*
X0744728Y0021980D01*
X0744858Y0021890D01*
X0744986Y0021797D01*
X0745112Y0021701D01*
X0745235Y0021601D01*
X0745356Y0021499D01*
X0745474Y0021394D01*
X0745589Y0021285D01*
X0745702Y0021174D01*
X0745812Y0021060D01*
X0745919Y0020943D01*
X0746023Y0020824D01*
X0746124Y0020702D01*
X0746221Y0020577D01*
X0746316Y0020450D01*
X0746407Y0020321D01*
X0746496Y0020190D01*
X0746580Y0020056D01*
X0746662Y0019920D01*
X0746740Y0019783D01*
X0746814Y0019643D01*
X0746885Y0019501D01*
X0746953Y0019358D01*
X0747017Y0019213D01*
X0747077Y0019067D01*
X0747133Y0018919D01*
X0747186Y0018770D01*
X0747235Y0018619D01*
X0747280Y0018467D01*
X0747321Y0018314D01*
X0747359Y0018161D01*
X0747392Y0018006D01*
X0747422Y0017850D01*
X0747448Y0017694D01*
X0747469Y0017537D01*
X0747487Y0017380D01*
X0747501Y0017222D01*
X0747511Y0017064D01*
X0747517Y0016906D01*
X0747519Y0016748D01*
X0747517Y0016590D01*
X0747511Y0016432D01*
X0747501Y0016274D01*
X0747487Y0016116D01*
X0747469Y0015959D01*
X0747448Y0015802D01*
X0747422Y0015646D01*
X0747392Y0015490D01*
X0747359Y0015335D01*
X0747321Y0015182D01*
X0747280Y0015029D01*
X0747235Y0014877D01*
X0747186Y0014726D01*
X0747133Y0014577D01*
X0747077Y0014429D01*
X0747017Y0014283D01*
X0746953Y0014138D01*
X0746885Y0013995D01*
X0746814Y0013853D01*
X0746740Y0013713D01*
X0746662Y0013576D01*
X0746580Y0013440D01*
X0746496Y0013306D01*
X0746407Y0013175D01*
X0746316Y0013046D01*
X0746221Y0012919D01*
X0746124Y0012794D01*
X0746023Y0012672D01*
X0745919Y0012553D01*
X0745812Y0012436D01*
X0745702Y0012322D01*
X0745589Y0012211D01*
X0745474Y0012102D01*
X0745356Y0011997D01*
X0745235Y0011895D01*
X0745112Y0011795D01*
X0744986Y0011699D01*
X0744858Y0011606D01*
X0744728Y0011516D01*
X0744595Y0011430D01*
X0744460Y0011346D01*
X0744324Y0011267D01*
X0744185Y0011190D01*
X0744044Y0011118D01*
X0743902Y0011048D01*
X0743758Y0010983D01*
X0743612Y0010921D01*
X0743465Y0010863D01*
X0743316Y0010808D01*
X0743166Y0010757D01*
X0743015Y0010710D01*
X0742863Y0010667D01*
X0742710Y0010628D01*
X0742555Y0010592D01*
X0742400Y0010561D01*
X0742244Y0010533D01*
X0742088Y0010509D01*
X0741931Y0010489D01*
X0741773Y0010473D01*
X0741616Y0010461D01*
X0741457Y0010453D01*
X0741299Y0010449D01*
X0741141Y0010449D01*
X0740983Y0010453D01*
X0740824Y0010461D01*
X0740667Y0010473D01*
X0740509Y0010489D01*
X0740352Y0010509D01*
X0740196Y0010533D01*
X0740040Y0010561D01*
X0739885Y0010592D01*
X0739730Y0010628D01*
X0739577Y0010667D01*
X0739425Y0010710D01*
X0739274Y0010757D01*
X0739124Y0010808D01*
X0738975Y0010863D01*
X0738828Y0010921D01*
X0738682Y0010983D01*
X0738538Y0011048D01*
X0738396Y0011118D01*
X0738255Y0011190D01*
X0738116Y0011267D01*
X0737980Y0011346D01*
X0737845Y0011430D01*
X0737712Y0011516D01*
X0737582Y0011606D01*
X0737454Y0011699D01*
X0737328Y0011795D01*
X0737205Y0011895D01*
X0737084Y0011997D01*
X0736966Y0012102D01*
X0736851Y0012211D01*
X0736738Y0012322D01*
X0736628Y0012436D01*
X0736521Y0012553D01*
X0736417Y0012672D01*
X0736316Y0012794D01*
X0736219Y0012919D01*
X0736124Y0013046D01*
X0736033Y0013175D01*
X0735944Y0013306D01*
X0735860Y0013440D01*
X0735778Y0013576D01*
X0735700Y0013713D01*
X0735626Y0013853D01*
X0735555Y0013995D01*
X0735487Y0014138D01*
X0735423Y0014283D01*
X0735363Y0014429D01*
X0735307Y0014577D01*
X0735254Y0014726D01*
X0735205Y0014877D01*
X0735160Y0015029D01*
X0735119Y0015182D01*
X0735081Y0015335D01*
X0735048Y0015490D01*
X0735018Y0015646D01*
X0734992Y0015802D01*
X0734971Y0015959D01*
X0734953Y0016116D01*
X0734939Y0016274D01*
X0734929Y0016432D01*
X0734923Y0016590D01*
X0734921Y0016748D01*
D11*
X0748012Y0371179D02*
X0748012Y0372064D01*
X0748307Y0372359D01*
X0749487Y0372359D01*
X0749782Y0372064D01*
X0749782Y0371179D01*
X0748012Y0371179D01*
X0748602Y0372991D02*
X0749487Y0372991D01*
X0749782Y0373286D01*
X0749782Y0374171D01*
X0750077Y0374171D02*
X0750372Y0373876D01*
X0750372Y0373581D01*
X0750077Y0374171D02*
X0748602Y0374171D01*
X0748012Y0374804D02*
X0748012Y0375099D01*
X0749782Y0375099D01*
X0749782Y0374804D02*
X0749782Y0375394D01*
X0749487Y0376012D02*
X0749192Y0376307D01*
X0749192Y0377192D01*
X0748897Y0377192D02*
X0749782Y0377192D01*
X0749782Y0376307D01*
X0749487Y0376012D01*
X0748602Y0376307D02*
X0748602Y0376897D01*
X0748897Y0377192D01*
X0748602Y0377825D02*
X0748602Y0378710D01*
X0748897Y0379005D01*
X0749782Y0379005D01*
X0749782Y0377825D02*
X0748602Y0377825D01*
X0748012Y0381450D02*
X0749782Y0381450D01*
X0749782Y0382630D01*
X0749487Y0383262D02*
X0749192Y0383557D01*
X0749192Y0384442D01*
X0748897Y0384442D02*
X0749782Y0384442D01*
X0749782Y0383557D01*
X0749487Y0383262D01*
X0748602Y0383557D02*
X0748602Y0384147D01*
X0748897Y0384442D01*
X0748602Y0385075D02*
X0748602Y0385370D01*
X0748897Y0385665D01*
X0748602Y0385960D01*
X0748897Y0386255D01*
X0749782Y0386255D01*
X0749782Y0385665D02*
X0748897Y0385665D01*
X0748602Y0385075D02*
X0749782Y0385075D01*
X0749487Y0386888D02*
X0749782Y0387183D01*
X0749782Y0387773D01*
X0749487Y0388068D01*
X0748897Y0388068D01*
X0748602Y0387773D01*
X0748602Y0387183D01*
X0748897Y0386888D01*
X0749487Y0386888D01*
X0749782Y0388700D02*
X0748602Y0388700D01*
X0748602Y0389585D01*
X0748897Y0389880D01*
X0749782Y0389880D01*
X0749487Y0390808D02*
X0749782Y0391103D01*
X0749487Y0390808D02*
X0748307Y0390808D01*
X0748602Y0390513D02*
X0748602Y0391103D01*
X0748307Y0393534D02*
X0748012Y0393829D01*
X0748012Y0394419D01*
X0748307Y0394714D01*
X0748602Y0394714D01*
X0749782Y0393534D01*
X0749782Y0394714D01*
X0749487Y0395346D02*
X0748307Y0396526D01*
X0749487Y0396526D01*
X0749782Y0396231D01*
X0749782Y0395641D01*
X0749487Y0395346D01*
X0748307Y0395346D01*
X0748012Y0395641D01*
X0748012Y0396231D01*
X0748307Y0396526D01*
X0748602Y0397159D02*
X0748012Y0397749D01*
X0749782Y0397749D01*
X0749782Y0397159D02*
X0749782Y0398339D01*
X0749487Y0398971D02*
X0749782Y0399266D01*
X0749782Y0399856D01*
X0749487Y0400151D01*
X0748307Y0400151D01*
X0748012Y0399856D01*
X0748012Y0399266D01*
X0748307Y0398971D01*
X0748602Y0398971D01*
X0748897Y0399266D01*
X0748897Y0400151D01*
X0640578Y0412873D02*
X0639111Y0412873D01*
X0639111Y0415075D01*
X0638369Y0414708D02*
X0638002Y0415075D01*
X0637268Y0415075D01*
X0636901Y0414708D01*
X0636901Y0413240D01*
X0637268Y0412873D01*
X0638002Y0412873D01*
X0638369Y0413240D01*
X0636159Y0413240D02*
X0635792Y0412873D01*
X0635058Y0412873D01*
X0634691Y0413240D01*
X0635058Y0413974D02*
X0635792Y0413974D01*
X0636159Y0413607D01*
X0636159Y0413240D01*
X0635058Y0413974D02*
X0634691Y0414341D01*
X0634691Y0414708D01*
X0635058Y0415075D01*
X0635792Y0415075D01*
X0636159Y0414708D01*
X0624043Y0414341D02*
X0624043Y0412873D01*
X0624043Y0413974D02*
X0622575Y0413974D01*
X0622575Y0414341D02*
X0623309Y0415075D01*
X0624043Y0414341D01*
X0622575Y0414341D02*
X0622575Y0412873D01*
X0621833Y0413240D02*
X0621833Y0414708D01*
X0621466Y0415075D01*
X0620365Y0415075D01*
X0620365Y0412873D01*
X0621466Y0412873D01*
X0621833Y0413240D01*
X0619623Y0413240D02*
X0619256Y0412873D01*
X0618522Y0412873D01*
X0618155Y0413240D01*
X0618522Y0413974D02*
X0619256Y0413974D01*
X0619623Y0413607D01*
X0619623Y0413240D01*
X0618522Y0413974D02*
X0618155Y0414341D01*
X0618155Y0414708D01*
X0618522Y0415075D01*
X0619256Y0415075D01*
X0619623Y0414708D01*
X0620885Y0456180D02*
X0621619Y0456180D01*
X0621985Y0456547D01*
X0621985Y0457281D01*
X0621252Y0457281D01*
X0621985Y0458015D02*
X0621619Y0458382D01*
X0620885Y0458382D01*
X0620518Y0458015D01*
X0620518Y0456547D01*
X0620885Y0456180D01*
X0622727Y0456180D02*
X0622727Y0458382D01*
X0624195Y0456180D01*
X0624195Y0458382D01*
X0624937Y0458382D02*
X0626038Y0458382D01*
X0626405Y0458015D01*
X0626405Y0456547D01*
X0626038Y0456180D01*
X0624937Y0456180D01*
X0624937Y0458382D01*
X0636113Y0458382D02*
X0636113Y0457281D01*
X0636847Y0457648D01*
X0637214Y0457648D01*
X0637581Y0457281D01*
X0637581Y0456547D01*
X0637214Y0456180D01*
X0636480Y0456180D01*
X0636113Y0456547D01*
X0636113Y0458382D02*
X0637581Y0458382D01*
X0638323Y0458382D02*
X0638323Y0456914D01*
X0639057Y0456180D01*
X0639791Y0456914D01*
X0639791Y0458382D01*
X0307300Y0448022D02*
X0307300Y0447289D01*
X0306933Y0446922D01*
X0306199Y0446922D01*
X0306199Y0448022D01*
X0306566Y0448389D01*
X0306933Y0448389D01*
X0307300Y0448022D01*
X0306199Y0446922D02*
X0305465Y0447656D01*
X0305098Y0448389D01*
X0305098Y0446180D02*
X0307300Y0446180D01*
X0307300Y0444712D02*
X0305098Y0444712D01*
X0305832Y0445446D01*
X0305098Y0446180D01*
X0305832Y0441760D02*
X0307300Y0441760D01*
X0306199Y0441760D02*
X0306199Y0440292D01*
X0305832Y0440292D02*
X0305098Y0441026D01*
X0305832Y0441760D01*
X0305832Y0440292D02*
X0307300Y0440292D01*
X0307300Y0438816D02*
X0305098Y0438816D01*
X0305098Y0438082D02*
X0305098Y0439550D01*
X0305098Y0437340D02*
X0306933Y0437340D01*
X0307300Y0436973D01*
X0307300Y0436239D01*
X0306933Y0435872D01*
X0305098Y0435872D01*
X0305465Y0435130D02*
X0305098Y0434763D01*
X0305098Y0434029D01*
X0305465Y0433662D01*
X0306933Y0433662D01*
X0307300Y0434029D01*
X0307300Y0434763D01*
X0306933Y0435130D01*
X0305465Y0435130D01*
X0305098Y0430279D02*
X0305465Y0429545D01*
X0306199Y0428811D01*
X0306199Y0429912D01*
X0306566Y0430279D01*
X0306933Y0430279D01*
X0307300Y0429912D01*
X0307300Y0429178D01*
X0306933Y0428811D01*
X0306199Y0428811D01*
X0305098Y0428069D02*
X0307300Y0428069D01*
X0307300Y0426601D02*
X0305098Y0426601D01*
X0305832Y0427335D01*
X0305098Y0428069D01*
X0305465Y0423650D02*
X0305832Y0423650D01*
X0306199Y0423283D01*
X0306199Y0422182D01*
X0306199Y0423283D02*
X0306566Y0423650D01*
X0306933Y0423650D01*
X0307300Y0423283D01*
X0307300Y0422182D01*
X0305098Y0422182D01*
X0305098Y0423283D01*
X0305465Y0423650D01*
X0305098Y0421440D02*
X0305098Y0419972D01*
X0305098Y0420706D02*
X0307300Y0420706D01*
X0306933Y0419230D02*
X0305098Y0419230D01*
X0305098Y0417762D02*
X0306933Y0417762D01*
X0307300Y0418129D01*
X0307300Y0418863D01*
X0306933Y0419230D01*
X0306933Y0417020D02*
X0305465Y0417020D01*
X0305098Y0416653D01*
X0305098Y0415919D01*
X0305465Y0415552D01*
X0306933Y0415552D01*
X0307300Y0415919D01*
X0307300Y0416653D01*
X0306933Y0417020D01*
X0299426Y0416653D02*
X0299059Y0417020D01*
X0297591Y0417020D01*
X0297224Y0416653D01*
X0297224Y0415919D01*
X0297591Y0415552D01*
X0299059Y0415552D01*
X0299426Y0415919D01*
X0299426Y0416653D01*
X0299059Y0417762D02*
X0299426Y0418129D01*
X0299426Y0418863D01*
X0299059Y0419230D01*
X0297224Y0419230D01*
X0297224Y0419972D02*
X0297224Y0421440D01*
X0297224Y0420706D02*
X0299426Y0420706D01*
X0299426Y0422182D02*
X0297958Y0422182D01*
X0297224Y0422916D01*
X0297958Y0423650D01*
X0299426Y0423650D01*
X0298325Y0423650D02*
X0298325Y0422182D01*
X0299059Y0417762D02*
X0297224Y0417762D01*
X0291552Y0418129D02*
X0291552Y0418863D01*
X0291185Y0419230D01*
X0289350Y0419230D01*
X0289350Y0419972D02*
X0289350Y0421440D01*
X0289350Y0420706D02*
X0291552Y0420706D01*
X0291185Y0422182D02*
X0291552Y0422549D01*
X0291552Y0423283D01*
X0291185Y0423650D01*
X0290451Y0423650D01*
X0290084Y0423283D01*
X0290084Y0422916D01*
X0290451Y0422182D01*
X0289350Y0422182D01*
X0289350Y0423650D01*
X0289350Y0426601D02*
X0290084Y0427335D01*
X0289350Y0428069D01*
X0291552Y0428069D01*
X0291185Y0428811D02*
X0291552Y0429178D01*
X0291552Y0429912D01*
X0291185Y0430279D01*
X0290451Y0430279D01*
X0290084Y0429912D01*
X0290084Y0429545D01*
X0290451Y0428811D01*
X0289350Y0428811D01*
X0289350Y0430279D01*
X0289717Y0433662D02*
X0291185Y0433662D01*
X0291552Y0434029D01*
X0291552Y0434763D01*
X0291185Y0435130D01*
X0289717Y0435130D01*
X0289350Y0434763D01*
X0289350Y0434029D01*
X0289717Y0433662D01*
X0289350Y0435872D02*
X0291185Y0435872D01*
X0291552Y0436239D01*
X0291552Y0436973D01*
X0291185Y0437340D01*
X0289350Y0437340D01*
X0289350Y0438082D02*
X0289350Y0439550D01*
X0289350Y0438816D02*
X0291552Y0438816D01*
X0291552Y0440292D02*
X0290084Y0440292D01*
X0289350Y0441026D01*
X0290084Y0441760D01*
X0291552Y0441760D01*
X0290451Y0441760D02*
X0290451Y0440292D01*
X0289350Y0444712D02*
X0290084Y0445446D01*
X0289350Y0446180D01*
X0291552Y0446180D01*
X0291552Y0446922D02*
X0291185Y0446922D01*
X0289717Y0448389D01*
X0289350Y0448389D01*
X0289350Y0446922D01*
X0289350Y0444712D02*
X0291552Y0444712D01*
X0297224Y0444712D02*
X0297958Y0445446D01*
X0297224Y0446180D01*
X0299426Y0446180D01*
X0299426Y0446922D02*
X0299059Y0446922D01*
X0297591Y0448389D01*
X0297224Y0448389D01*
X0297224Y0446922D01*
X0297224Y0444712D02*
X0299426Y0444712D01*
X0299059Y0441760D02*
X0299426Y0441393D01*
X0299426Y0440292D01*
X0297224Y0440292D01*
X0297224Y0441393D01*
X0297591Y0441760D01*
X0297958Y0441760D01*
X0298325Y0441393D01*
X0298325Y0440292D01*
X0298325Y0441393D02*
X0298692Y0441760D01*
X0299059Y0441760D01*
X0297224Y0439550D02*
X0297224Y0438082D01*
X0297224Y0438816D02*
X0299426Y0438816D01*
X0299059Y0437340D02*
X0297224Y0437340D01*
X0297224Y0435872D02*
X0299059Y0435872D01*
X0299426Y0436239D01*
X0299426Y0436973D01*
X0299059Y0437340D01*
X0299059Y0435130D02*
X0297591Y0435130D01*
X0297224Y0434763D01*
X0297224Y0434029D01*
X0297591Y0433662D01*
X0299059Y0433662D01*
X0299426Y0434029D01*
X0299426Y0434763D01*
X0299059Y0435130D01*
X0299059Y0430279D02*
X0299426Y0429912D01*
X0299426Y0429178D01*
X0299059Y0428811D01*
X0298325Y0428811D02*
X0297958Y0429545D01*
X0297958Y0429912D01*
X0298325Y0430279D01*
X0299059Y0430279D01*
X0298325Y0428811D02*
X0297224Y0428811D01*
X0297224Y0430279D01*
X0297224Y0428069D02*
X0299426Y0428069D01*
X0299426Y0426601D02*
X0297224Y0426601D01*
X0297958Y0427335D01*
X0297224Y0428069D01*
X0291552Y0426601D02*
X0289350Y0426601D01*
X0283678Y0426601D02*
X0281476Y0426601D01*
X0282210Y0427335D01*
X0281476Y0428069D01*
X0283678Y0428069D01*
X0282577Y0428811D02*
X0282577Y0430279D01*
X0281476Y0429912D02*
X0282577Y0428811D01*
X0283678Y0429912D02*
X0281476Y0429912D01*
X0281843Y0433662D02*
X0283311Y0433662D01*
X0283678Y0434029D01*
X0283678Y0434763D01*
X0283311Y0435130D01*
X0281843Y0435130D01*
X0281476Y0434763D01*
X0281476Y0434029D01*
X0281843Y0433662D01*
X0281476Y0435872D02*
X0283311Y0435872D01*
X0283678Y0436239D01*
X0283678Y0436973D01*
X0283311Y0437340D01*
X0281476Y0437340D01*
X0281476Y0438082D02*
X0281476Y0439550D01*
X0281476Y0438816D02*
X0283678Y0438816D01*
X0283678Y0440292D02*
X0283678Y0441393D01*
X0283311Y0441760D01*
X0282944Y0441760D01*
X0282577Y0441393D01*
X0282577Y0440292D01*
X0282577Y0441393D02*
X0282210Y0441760D01*
X0281843Y0441760D01*
X0281476Y0441393D01*
X0281476Y0440292D01*
X0283678Y0440292D01*
X0283678Y0444712D02*
X0281476Y0444712D01*
X0282210Y0445446D01*
X0281476Y0446180D01*
X0283678Y0446180D01*
X0283678Y0446922D02*
X0283678Y0448389D01*
X0283678Y0447656D02*
X0281476Y0447656D01*
X0282210Y0446922D01*
X0275804Y0446922D02*
X0275804Y0448389D01*
X0275804Y0447656D02*
X0273602Y0447656D01*
X0274336Y0446922D01*
X0273602Y0446180D02*
X0275804Y0446180D01*
X0275804Y0444712D02*
X0273602Y0444712D01*
X0274336Y0445446D01*
X0273602Y0446180D01*
X0274336Y0441760D02*
X0275804Y0441760D01*
X0274703Y0441760D02*
X0274703Y0440292D01*
X0274336Y0440292D02*
X0273602Y0441026D01*
X0274336Y0441760D01*
X0274336Y0440292D02*
X0275804Y0440292D01*
X0275804Y0438816D02*
X0273602Y0438816D01*
X0273602Y0438082D02*
X0273602Y0439550D01*
X0273602Y0437340D02*
X0275437Y0437340D01*
X0275804Y0436973D01*
X0275804Y0436239D01*
X0275437Y0435872D01*
X0273602Y0435872D01*
X0273969Y0435130D02*
X0273602Y0434763D01*
X0273602Y0434029D01*
X0273969Y0433662D01*
X0275437Y0433662D01*
X0275804Y0434029D01*
X0275804Y0434763D01*
X0275437Y0435130D01*
X0273969Y0435130D01*
X0274703Y0430279D02*
X0274703Y0428811D01*
X0273602Y0429912D01*
X0275804Y0429912D01*
X0275804Y0428069D02*
X0273602Y0428069D01*
X0274336Y0427335D01*
X0273602Y0426601D01*
X0275804Y0426601D01*
X0275437Y0423650D02*
X0275804Y0423283D01*
X0275804Y0422182D01*
X0273602Y0422182D01*
X0273602Y0423283D01*
X0273969Y0423650D01*
X0274336Y0423650D01*
X0274703Y0423283D01*
X0274703Y0422182D01*
X0274703Y0423283D02*
X0275070Y0423650D01*
X0275437Y0423650D01*
X0273602Y0421440D02*
X0273602Y0419972D01*
X0273602Y0420706D02*
X0275804Y0420706D01*
X0275437Y0419230D02*
X0273602Y0419230D01*
X0273602Y0417762D02*
X0275437Y0417762D01*
X0275804Y0418129D01*
X0275804Y0418863D01*
X0275437Y0419230D01*
X0275437Y0417020D02*
X0273969Y0417020D01*
X0273602Y0416653D01*
X0273602Y0415919D01*
X0273969Y0415552D01*
X0275437Y0415552D01*
X0275804Y0415919D01*
X0275804Y0416653D01*
X0275437Y0417020D01*
X0281476Y0416653D02*
X0281843Y0417020D01*
X0283311Y0417020D01*
X0283678Y0416653D01*
X0283678Y0415919D01*
X0283311Y0415552D01*
X0281843Y0415552D01*
X0281476Y0415919D01*
X0281476Y0416653D01*
X0281476Y0417762D02*
X0283311Y0417762D01*
X0283678Y0418129D01*
X0283678Y0418863D01*
X0283311Y0419230D01*
X0281476Y0419230D01*
X0281476Y0419972D02*
X0281476Y0421440D01*
X0281476Y0420706D02*
X0283678Y0420706D01*
X0283678Y0422182D02*
X0282210Y0422182D01*
X0281476Y0422916D01*
X0282210Y0423650D01*
X0283678Y0423650D01*
X0282577Y0423650D02*
X0282577Y0422182D01*
X0289350Y0417762D02*
X0291185Y0417762D01*
X0291552Y0418129D01*
X0291185Y0417020D02*
X0289717Y0417020D01*
X0289350Y0416653D01*
X0289350Y0415919D01*
X0289717Y0415552D01*
X0291185Y0415552D01*
X0291552Y0415919D01*
X0291552Y0416653D01*
X0291185Y0417020D01*
X0267930Y0416653D02*
X0267563Y0417020D01*
X0266095Y0417020D01*
X0265728Y0416653D01*
X0265728Y0415919D01*
X0266095Y0415552D01*
X0267563Y0415552D01*
X0267930Y0415919D01*
X0267930Y0416653D01*
X0267563Y0417762D02*
X0267930Y0418129D01*
X0267930Y0418863D01*
X0267563Y0419230D01*
X0265728Y0419230D01*
X0265728Y0419972D02*
X0265728Y0421440D01*
X0265728Y0420706D02*
X0267930Y0420706D01*
X0267930Y0422182D02*
X0266462Y0422182D01*
X0265728Y0422916D01*
X0266462Y0423650D01*
X0267930Y0423650D01*
X0266829Y0423650D02*
X0266829Y0422182D01*
X0267563Y0417762D02*
X0265728Y0417762D01*
X0260056Y0418129D02*
X0260056Y0418863D01*
X0259689Y0419230D01*
X0257854Y0419230D01*
X0257854Y0419972D02*
X0257854Y0421440D01*
X0257854Y0420706D02*
X0260056Y0420706D01*
X0260056Y0422182D02*
X0260056Y0423283D01*
X0259689Y0423650D01*
X0259322Y0423650D01*
X0258955Y0423283D01*
X0258955Y0422182D01*
X0258955Y0423283D02*
X0258588Y0423650D01*
X0258221Y0423650D01*
X0257854Y0423283D01*
X0257854Y0422182D01*
X0260056Y0422182D01*
X0260056Y0418129D02*
X0259689Y0417762D01*
X0257854Y0417762D01*
X0258221Y0417020D02*
X0257854Y0416653D01*
X0257854Y0415919D01*
X0258221Y0415552D01*
X0259689Y0415552D01*
X0260056Y0415919D01*
X0260056Y0416653D01*
X0259689Y0417020D01*
X0258221Y0417020D01*
X0257854Y0426601D02*
X0258588Y0427335D01*
X0257854Y0428069D01*
X0260056Y0428069D01*
X0259689Y0428811D02*
X0260056Y0429178D01*
X0260056Y0429912D01*
X0259689Y0430279D01*
X0259322Y0430279D01*
X0258955Y0429912D01*
X0258955Y0429545D01*
X0258955Y0429912D02*
X0258588Y0430279D01*
X0258221Y0430279D01*
X0257854Y0429912D01*
X0257854Y0429178D01*
X0258221Y0428811D01*
X0257854Y0426601D02*
X0260056Y0426601D01*
X0265728Y0426601D02*
X0266462Y0427335D01*
X0265728Y0428069D01*
X0267930Y0428069D01*
X0267563Y0428811D02*
X0267930Y0429178D01*
X0267930Y0429912D01*
X0267563Y0430279D01*
X0267196Y0430279D01*
X0266829Y0429912D01*
X0266829Y0429545D01*
X0266829Y0429912D02*
X0266462Y0430279D01*
X0266095Y0430279D01*
X0265728Y0429912D01*
X0265728Y0429178D01*
X0266095Y0428811D01*
X0265728Y0426601D02*
X0267930Y0426601D01*
X0267563Y0433662D02*
X0267930Y0434029D01*
X0267930Y0434763D01*
X0267563Y0435130D01*
X0266095Y0435130D01*
X0265728Y0434763D01*
X0265728Y0434029D01*
X0266095Y0433662D01*
X0267563Y0433662D01*
X0267563Y0435872D02*
X0267930Y0436239D01*
X0267930Y0436973D01*
X0267563Y0437340D01*
X0265728Y0437340D01*
X0265728Y0438082D02*
X0265728Y0439550D01*
X0265728Y0438816D02*
X0267930Y0438816D01*
X0267930Y0440292D02*
X0267930Y0441393D01*
X0267563Y0441760D01*
X0267196Y0441760D01*
X0266829Y0441393D01*
X0266829Y0440292D01*
X0266829Y0441393D02*
X0266462Y0441760D01*
X0266095Y0441760D01*
X0265728Y0441393D01*
X0265728Y0440292D01*
X0267930Y0440292D01*
X0267930Y0444712D02*
X0265728Y0444712D01*
X0266462Y0445446D01*
X0265728Y0446180D01*
X0267930Y0446180D01*
X0267930Y0446922D02*
X0266462Y0448389D01*
X0266095Y0448389D01*
X0265728Y0448022D01*
X0265728Y0447289D01*
X0266095Y0446922D01*
X0267930Y0446922D02*
X0267930Y0448389D01*
X0260056Y0448389D02*
X0260056Y0446922D01*
X0258588Y0448389D01*
X0258221Y0448389D01*
X0257854Y0448022D01*
X0257854Y0447289D01*
X0258221Y0446922D01*
X0257854Y0446180D02*
X0260056Y0446180D01*
X0260056Y0444712D02*
X0257854Y0444712D01*
X0258588Y0445446D01*
X0257854Y0446180D01*
X0258588Y0441760D02*
X0260056Y0441760D01*
X0258955Y0441760D02*
X0258955Y0440292D01*
X0258588Y0440292D02*
X0257854Y0441026D01*
X0258588Y0441760D01*
X0258588Y0440292D02*
X0260056Y0440292D01*
X0260056Y0438816D02*
X0257854Y0438816D01*
X0257854Y0438082D02*
X0257854Y0439550D01*
X0257854Y0437340D02*
X0259689Y0437340D01*
X0260056Y0436973D01*
X0260056Y0436239D01*
X0259689Y0435872D01*
X0257854Y0435872D01*
X0258221Y0435130D02*
X0257854Y0434763D01*
X0257854Y0434029D01*
X0258221Y0433662D01*
X0259689Y0433662D01*
X0260056Y0434029D01*
X0260056Y0434763D01*
X0259689Y0435130D01*
X0258221Y0435130D01*
X0265728Y0435872D02*
X0267563Y0435872D01*
D12*
X0252244Y0452969D02*
X0252244Y0412811D01*
X0312874Y0412811D01*
X0312874Y0452969D01*
X0252244Y0452969D01*
D13*
X0334313Y0222792D02*
X0328313Y0216792D01*
X0328313Y0171792D01*
D14*
X0182291Y0163677D02*
X0182291Y0203677D01*
X0166291Y0203677D01*
X0166291Y0191177D01*
X0168791Y0191177D01*
X0168791Y0176177D01*
X0166291Y0176177D01*
X0166291Y0163677D01*
X0182291Y0163677D01*
X0177291Y0176177D02*
X0171291Y0176177D01*
X0171291Y0191177D01*
X0177291Y0191177D01*
X0177291Y0176177D01*
X0166291Y0176177D02*
X0166291Y0191177D01*
X0159969Y0191177D02*
X0159969Y0176177D01*
X0153969Y0176177D01*
X0153969Y0191177D01*
X0159969Y0191177D01*
X0151469Y0191177D02*
X0151469Y0176177D01*
X0148969Y0176177D01*
X0148969Y0163677D01*
X0164969Y0163677D01*
X0164969Y0203677D01*
X0148969Y0203677D01*
X0148969Y0191177D01*
X0151469Y0191177D01*
X0148969Y0191177D02*
X0148969Y0176177D01*
X0142646Y0176177D02*
X0136646Y0176177D01*
X0136646Y0191177D01*
X0142646Y0191177D01*
X0142646Y0176177D01*
X0134146Y0176177D02*
X0131646Y0176177D01*
X0131646Y0163677D01*
X0147646Y0163677D01*
X0147646Y0203677D01*
X0131646Y0203677D01*
X0131646Y0191177D01*
X0134146Y0191177D01*
X0134146Y0176177D01*
X0131646Y0176177D02*
X0131646Y0191177D01*
X0125323Y0191177D02*
X0125323Y0176177D01*
X0119323Y0176177D01*
X0119323Y0191177D01*
X0125323Y0191177D01*
X0116823Y0191177D02*
X0116823Y0176177D01*
X0114323Y0176177D01*
X0114323Y0163677D01*
X0130323Y0163677D01*
X0130323Y0203677D01*
X0114323Y0203677D01*
X0114323Y0191177D01*
X0116823Y0191177D01*
X0114323Y0191177D02*
X0114323Y0176177D01*
X0108000Y0176177D02*
X0102000Y0176177D01*
X0102000Y0191177D01*
X0108000Y0191177D01*
X0108000Y0176177D01*
X0099500Y0176177D02*
X0097000Y0176177D01*
X0097000Y0163677D01*
X0113000Y0163677D01*
X0113000Y0203677D01*
X0097000Y0203677D01*
X0097000Y0191177D01*
X0099500Y0191177D01*
X0099500Y0176177D01*
X0097000Y0176177D02*
X0097000Y0191177D01*
X0090677Y0191177D02*
X0090677Y0176177D01*
X0084677Y0176177D01*
X0084677Y0191177D01*
X0090677Y0191177D01*
X0082177Y0191177D02*
X0082177Y0176177D01*
X0079677Y0176177D01*
X0079677Y0163677D01*
X0095677Y0163677D01*
X0095677Y0203677D01*
X0079677Y0203677D01*
X0079677Y0191177D01*
X0082177Y0191177D01*
X0079677Y0191177D02*
X0079677Y0176177D01*
X0073354Y0176177D02*
X0067354Y0176177D01*
X0067354Y0191177D01*
X0073354Y0191177D01*
X0073354Y0176177D01*
X0064854Y0176177D02*
X0062354Y0176177D01*
X0062354Y0163677D01*
X0078354Y0163677D01*
X0078354Y0203677D01*
X0062354Y0203677D01*
X0062354Y0191177D01*
X0064854Y0191177D01*
X0064854Y0176177D01*
X0062354Y0176177D02*
X0062354Y0191177D01*
X0094764Y0108874D02*
X0005000Y0108874D01*
X0005000Y0076000D01*
X0094764Y0076000D01*
X0094764Y0108874D01*
X0061848Y0101000D02*
X0061850Y0101075D01*
X0061856Y0101150D01*
X0061866Y0101224D01*
X0061880Y0101298D01*
X0061897Y0101371D01*
X0061919Y0101442D01*
X0061944Y0101513D01*
X0061973Y0101582D01*
X0062005Y0101650D01*
X0062041Y0101715D01*
X0062081Y0101779D01*
X0062124Y0101841D01*
X0062170Y0101900D01*
X0062219Y0101957D01*
X0062271Y0102011D01*
X0062325Y0102062D01*
X0062383Y0102110D01*
X0062442Y0102155D01*
X0062505Y0102197D01*
X0062569Y0102236D01*
X0062635Y0102271D01*
X0062703Y0102303D01*
X0062773Y0102331D01*
X0062843Y0102355D01*
X0062916Y0102376D01*
X0062989Y0102392D01*
X0063063Y0102405D01*
X0063137Y0102414D01*
X0063212Y0102419D01*
X0063287Y0102420D01*
X0063362Y0102417D01*
X0063436Y0102410D01*
X0063510Y0102399D01*
X0063584Y0102384D01*
X0063657Y0102366D01*
X0063728Y0102343D01*
X0063798Y0102317D01*
X0063867Y0102287D01*
X0063934Y0102254D01*
X0064000Y0102217D01*
X0064063Y0102177D01*
X0064124Y0102133D01*
X0064182Y0102086D01*
X0064238Y0102037D01*
X0064292Y0101984D01*
X0064342Y0101929D01*
X0064390Y0101871D01*
X0064434Y0101810D01*
X0064475Y0101748D01*
X0064513Y0101683D01*
X0064547Y0101616D01*
X0064578Y0101548D01*
X0064605Y0101478D01*
X0064629Y0101407D01*
X0064648Y0101334D01*
X0064664Y0101261D01*
X0064676Y0101187D01*
X0064684Y0101112D01*
X0064688Y0101037D01*
X0064688Y0100963D01*
X0064684Y0100888D01*
X0064676Y0100813D01*
X0064664Y0100739D01*
X0064648Y0100666D01*
X0064629Y0100593D01*
X0064605Y0100522D01*
X0064578Y0100452D01*
X0064547Y0100384D01*
X0064513Y0100317D01*
X0064475Y0100252D01*
X0064434Y0100190D01*
X0064390Y0100129D01*
X0064342Y0100071D01*
X0064292Y0100016D01*
X0064238Y0099963D01*
X0064182Y0099914D01*
X0064124Y0099867D01*
X0064063Y0099823D01*
X0064000Y0099783D01*
X0063934Y0099746D01*
X0063867Y0099713D01*
X0063798Y0099683D01*
X0063728Y0099657D01*
X0063657Y0099634D01*
X0063584Y0099616D01*
X0063510Y0099601D01*
X0063436Y0099590D01*
X0063362Y0099583D01*
X0063287Y0099580D01*
X0063212Y0099581D01*
X0063137Y0099586D01*
X0063063Y0099595D01*
X0062989Y0099608D01*
X0062916Y0099624D01*
X0062843Y0099645D01*
X0062773Y0099669D01*
X0062703Y0099697D01*
X0062635Y0099729D01*
X0062569Y0099764D01*
X0062505Y0099803D01*
X0062442Y0099845D01*
X0062383Y0099890D01*
X0062325Y0099938D01*
X0062271Y0099989D01*
X0062219Y0100043D01*
X0062170Y0100100D01*
X0062124Y0100159D01*
X0062081Y0100221D01*
X0062041Y0100285D01*
X0062005Y0100350D01*
X0061973Y0100418D01*
X0061944Y0100487D01*
X0061919Y0100558D01*
X0061897Y0100629D01*
X0061880Y0100702D01*
X0061866Y0100776D01*
X0061856Y0100850D01*
X0061850Y0100925D01*
X0061848Y0101000D01*
X0247969Y0043634D02*
X0247969Y0016634D01*
X0247971Y0016574D01*
X0247976Y0016513D01*
X0247985Y0016454D01*
X0247998Y0016395D01*
X0248014Y0016336D01*
X0248034Y0016279D01*
X0248057Y0016224D01*
X0248084Y0016169D01*
X0248113Y0016117D01*
X0248146Y0016066D01*
X0248182Y0016017D01*
X0248220Y0015971D01*
X0248262Y0015927D01*
X0248306Y0015885D01*
X0248352Y0015847D01*
X0248401Y0015811D01*
X0248452Y0015778D01*
X0248504Y0015749D01*
X0248559Y0015722D01*
X0248614Y0015699D01*
X0248671Y0015679D01*
X0248730Y0015663D01*
X0248789Y0015650D01*
X0248848Y0015641D01*
X0248909Y0015636D01*
X0248969Y0015634D01*
X0264969Y0015634D01*
X0265029Y0015636D01*
X0265090Y0015641D01*
X0265149Y0015650D01*
X0265208Y0015663D01*
X0265267Y0015679D01*
X0265324Y0015699D01*
X0265379Y0015722D01*
X0265434Y0015749D01*
X0265486Y0015778D01*
X0265537Y0015811D01*
X0265586Y0015847D01*
X0265632Y0015885D01*
X0265676Y0015927D01*
X0265718Y0015971D01*
X0265756Y0016017D01*
X0265792Y0016066D01*
X0265825Y0016117D01*
X0265854Y0016169D01*
X0265881Y0016224D01*
X0265904Y0016279D01*
X0265924Y0016336D01*
X0265940Y0016395D01*
X0265953Y0016454D01*
X0265962Y0016513D01*
X0265967Y0016574D01*
X0265969Y0016634D01*
X0265969Y0043634D01*
X0265967Y0043694D01*
X0265962Y0043755D01*
X0265953Y0043814D01*
X0265940Y0043873D01*
X0265924Y0043932D01*
X0265904Y0043989D01*
X0265881Y0044044D01*
X0265854Y0044099D01*
X0265825Y0044151D01*
X0265792Y0044202D01*
X0265756Y0044251D01*
X0265718Y0044297D01*
X0265676Y0044341D01*
X0265632Y0044383D01*
X0265586Y0044421D01*
X0265537Y0044457D01*
X0265486Y0044490D01*
X0265434Y0044519D01*
X0265379Y0044546D01*
X0265324Y0044569D01*
X0265267Y0044589D01*
X0265208Y0044605D01*
X0265149Y0044618D01*
X0265090Y0044627D01*
X0265029Y0044632D01*
X0264969Y0044634D01*
X0248969Y0044634D01*
X0248909Y0044632D01*
X0248848Y0044627D01*
X0248789Y0044618D01*
X0248730Y0044605D01*
X0248671Y0044589D01*
X0248614Y0044569D01*
X0248559Y0044546D01*
X0248504Y0044519D01*
X0248452Y0044490D01*
X0248401Y0044457D01*
X0248352Y0044421D01*
X0248306Y0044383D01*
X0248262Y0044341D01*
X0248220Y0044297D01*
X0248182Y0044251D01*
X0248146Y0044202D01*
X0248113Y0044151D01*
X0248084Y0044099D01*
X0248057Y0044044D01*
X0248034Y0043989D01*
X0248014Y0043932D01*
X0247998Y0043873D01*
X0247985Y0043814D01*
X0247976Y0043755D01*
X0247971Y0043694D01*
X0247969Y0043634D01*
X0256969Y0036134D02*
X0256969Y0031334D01*
X0256969Y0028834D02*
X0256969Y0024134D01*
X0270815Y0029472D02*
X0270815Y0013472D01*
X0270817Y0013412D01*
X0270822Y0013351D01*
X0270831Y0013292D01*
X0270844Y0013233D01*
X0270860Y0013174D01*
X0270880Y0013117D01*
X0270903Y0013062D01*
X0270930Y0013007D01*
X0270959Y0012955D01*
X0270992Y0012904D01*
X0271028Y0012855D01*
X0271066Y0012809D01*
X0271108Y0012765D01*
X0271152Y0012723D01*
X0271198Y0012685D01*
X0271247Y0012649D01*
X0271298Y0012616D01*
X0271350Y0012587D01*
X0271405Y0012560D01*
X0271460Y0012537D01*
X0271517Y0012517D01*
X0271576Y0012501D01*
X0271635Y0012488D01*
X0271694Y0012479D01*
X0271755Y0012474D01*
X0271815Y0012472D01*
X0298815Y0012472D01*
X0298875Y0012474D01*
X0298936Y0012479D01*
X0298995Y0012488D01*
X0299054Y0012501D01*
X0299113Y0012517D01*
X0299170Y0012537D01*
X0299225Y0012560D01*
X0299280Y0012587D01*
X0299332Y0012616D01*
X0299383Y0012649D01*
X0299432Y0012685D01*
X0299478Y0012723D01*
X0299522Y0012765D01*
X0299564Y0012809D01*
X0299602Y0012855D01*
X0299638Y0012904D01*
X0299671Y0012955D01*
X0299700Y0013007D01*
X0299727Y0013062D01*
X0299750Y0013117D01*
X0299770Y0013174D01*
X0299786Y0013233D01*
X0299799Y0013292D01*
X0299808Y0013351D01*
X0299813Y0013412D01*
X0299815Y0013472D01*
X0299815Y0029472D01*
X0299813Y0029532D01*
X0299808Y0029593D01*
X0299799Y0029652D01*
X0299786Y0029711D01*
X0299770Y0029770D01*
X0299750Y0029827D01*
X0299727Y0029882D01*
X0299700Y0029937D01*
X0299671Y0029989D01*
X0299638Y0030040D01*
X0299602Y0030089D01*
X0299564Y0030135D01*
X0299522Y0030179D01*
X0299478Y0030221D01*
X0299432Y0030259D01*
X0299383Y0030295D01*
X0299332Y0030328D01*
X0299280Y0030357D01*
X0299225Y0030384D01*
X0299170Y0030407D01*
X0299113Y0030427D01*
X0299054Y0030443D01*
X0298995Y0030456D01*
X0298936Y0030465D01*
X0298875Y0030470D01*
X0298815Y0030472D01*
X0271815Y0030472D01*
X0271755Y0030470D01*
X0271694Y0030465D01*
X0271635Y0030456D01*
X0271576Y0030443D01*
X0271517Y0030427D01*
X0271460Y0030407D01*
X0271405Y0030384D01*
X0271350Y0030357D01*
X0271298Y0030328D01*
X0271247Y0030295D01*
X0271198Y0030259D01*
X0271152Y0030221D01*
X0271108Y0030179D01*
X0271066Y0030135D01*
X0271028Y0030089D01*
X0270992Y0030040D01*
X0270959Y0029989D01*
X0270930Y0029937D01*
X0270903Y0029882D01*
X0270880Y0029827D01*
X0270860Y0029770D01*
X0270844Y0029711D01*
X0270831Y0029652D01*
X0270822Y0029593D01*
X0270817Y0029532D01*
X0270815Y0029472D01*
X0279315Y0021472D02*
X0284015Y0021472D01*
X0286515Y0021472D02*
X0291315Y0021472D01*
X0293091Y0276315D02*
X0290591Y0278815D01*
X0288091Y0276315D01*
X0283091Y0276315D01*
X0280591Y0278815D01*
X0278091Y0276315D01*
X0273091Y0276315D01*
X0270591Y0278815D01*
X0268091Y0276315D01*
X0263091Y0276315D01*
X0260591Y0278815D01*
X0258091Y0276315D01*
X0253091Y0276315D01*
X0250591Y0278815D01*
X0248091Y0276315D01*
X0243091Y0276315D01*
X0240591Y0278815D01*
X0240591Y0283815D01*
X0243091Y0286315D01*
X0248091Y0286315D01*
X0250591Y0283815D01*
X0253091Y0286315D01*
X0258091Y0286315D01*
X0260591Y0283815D01*
X0260591Y0278815D01*
X0260591Y0283815D02*
X0263091Y0286315D01*
X0268091Y0286315D01*
X0270591Y0283815D01*
X0273091Y0286315D01*
X0278091Y0286315D01*
X0280591Y0283815D01*
X0283091Y0286315D01*
X0288091Y0286315D01*
X0290591Y0283815D01*
X0290591Y0278815D01*
X0293091Y0276315D02*
X0298091Y0276315D01*
X0300591Y0278815D01*
X0303091Y0276315D01*
X0308091Y0276315D01*
X0310591Y0278815D01*
X0313091Y0276315D01*
X0318091Y0276315D01*
X0320591Y0278815D01*
X0320591Y0283815D01*
X0318091Y0286315D01*
X0313091Y0286315D01*
X0310591Y0283815D01*
X0310591Y0278815D01*
X0310591Y0283815D02*
X0308091Y0286315D01*
X0303091Y0286315D01*
X0300591Y0283815D01*
X0300591Y0278815D01*
X0300591Y0283815D02*
X0298091Y0286315D01*
X0293091Y0286315D01*
X0290591Y0283815D01*
X0280591Y0283815D02*
X0280591Y0278815D01*
X0270591Y0278815D02*
X0270591Y0283815D01*
X0250591Y0283815D02*
X0250591Y0278815D01*
X0248248Y0286197D02*
X0243248Y0286197D01*
X0240748Y0288697D01*
X0240748Y0293697D01*
X0243248Y0296197D01*
X0240748Y0298697D01*
X0240748Y0303697D01*
X0243248Y0306197D01*
X0248248Y0306197D01*
X0250748Y0303697D01*
X0250748Y0298697D01*
X0248248Y0296197D01*
X0250748Y0293697D01*
X0250748Y0288697D01*
X0248248Y0286197D01*
X0248248Y0296197D02*
X0243248Y0296197D01*
X0222165Y0283815D02*
X0222165Y0278815D01*
X0219665Y0276315D01*
X0214665Y0276315D01*
X0212165Y0278815D01*
X0209665Y0276315D01*
X0204665Y0276315D01*
X0202165Y0278815D01*
X0199665Y0276315D01*
X0194665Y0276315D01*
X0192165Y0278815D01*
X0189665Y0276315D01*
X0184665Y0276315D01*
X0182165Y0278815D01*
X0179665Y0276315D01*
X0174665Y0276315D01*
X0172165Y0278815D01*
X0169665Y0276315D01*
X0164665Y0276315D01*
X0162165Y0278815D01*
X0159665Y0276315D01*
X0154665Y0276315D01*
X0152165Y0278815D01*
X0149665Y0276315D01*
X0144665Y0276315D01*
X0142165Y0278815D01*
X0142165Y0283815D01*
X0144665Y0286315D01*
X0149665Y0286315D01*
X0152165Y0283815D01*
X0154665Y0286315D01*
X0159665Y0286315D01*
X0162165Y0283815D01*
X0162165Y0278815D01*
X0162165Y0283815D02*
X0164665Y0286315D01*
X0169665Y0286315D01*
X0172165Y0283815D01*
X0174665Y0286315D01*
X0179665Y0286315D01*
X0182165Y0283815D01*
X0184665Y0286315D01*
X0189665Y0286315D01*
X0192165Y0283815D01*
X0192165Y0278815D01*
X0192165Y0283815D02*
X0194665Y0286315D01*
X0199665Y0286315D01*
X0202165Y0283815D01*
X0204665Y0286315D01*
X0209665Y0286315D01*
X0212165Y0283815D01*
X0214665Y0286315D01*
X0219665Y0286315D01*
X0222165Y0283815D01*
X0212165Y0283815D02*
X0212165Y0278815D01*
X0202165Y0278815D02*
X0202165Y0283815D01*
X0182165Y0283815D02*
X0182165Y0278815D01*
X0172165Y0278815D02*
X0172165Y0283815D01*
X0152165Y0283815D02*
X0152165Y0278815D01*
X0149626Y0286197D02*
X0144626Y0286197D01*
X0142126Y0288697D01*
X0142126Y0293697D01*
X0144626Y0296197D01*
X0142126Y0298697D01*
X0142126Y0303697D01*
X0144626Y0306197D01*
X0149626Y0306197D01*
X0152126Y0303697D01*
X0152126Y0298697D01*
X0149626Y0296197D01*
X0152126Y0293697D01*
X0152126Y0288697D01*
X0149626Y0286197D01*
X0149626Y0296197D02*
X0144626Y0296197D01*
X0123740Y0283815D02*
X0123740Y0278815D01*
X0121240Y0276315D01*
X0116240Y0276315D01*
X0113740Y0278815D01*
X0111240Y0276315D01*
X0106240Y0276315D01*
X0103740Y0278815D01*
X0101240Y0276315D01*
X0096240Y0276315D01*
X0093740Y0278815D01*
X0091240Y0276315D01*
X0086240Y0276315D01*
X0083740Y0278815D01*
X0081240Y0276315D01*
X0076240Y0276315D01*
X0073740Y0278815D01*
X0071240Y0276315D01*
X0066240Y0276315D01*
X0063740Y0278815D01*
X0061240Y0276315D01*
X0056240Y0276315D01*
X0053740Y0278815D01*
X0051240Y0276315D01*
X0046240Y0276315D01*
X0043740Y0278815D01*
X0043740Y0283815D01*
X0046240Y0286315D01*
X0051240Y0286315D01*
X0053740Y0283815D01*
X0056240Y0286315D01*
X0061240Y0286315D01*
X0063740Y0283815D01*
X0063740Y0278815D01*
X0063740Y0283815D02*
X0066240Y0286315D01*
X0071240Y0286315D01*
X0073740Y0283815D01*
X0076240Y0286315D01*
X0081240Y0286315D01*
X0083740Y0283815D01*
X0086240Y0286315D01*
X0091240Y0286315D01*
X0093740Y0283815D01*
X0093740Y0278815D01*
X0093740Y0283815D02*
X0096240Y0286315D01*
X0101240Y0286315D01*
X0103740Y0283815D01*
X0106240Y0286315D01*
X0111240Y0286315D01*
X0113740Y0283815D01*
X0116240Y0286315D01*
X0121240Y0286315D01*
X0123740Y0283815D01*
X0113740Y0283815D02*
X0113740Y0278815D01*
X0103740Y0278815D02*
X0103740Y0283815D01*
X0083740Y0283815D02*
X0083740Y0278815D01*
X0073740Y0278815D02*
X0073740Y0283815D01*
X0053740Y0283815D02*
X0053740Y0278815D01*
X0051122Y0286197D02*
X0046122Y0286197D01*
X0043622Y0288697D01*
X0043622Y0293697D01*
X0046122Y0296197D01*
X0043622Y0298697D01*
X0043622Y0303697D01*
X0046122Y0306197D01*
X0051122Y0306197D01*
X0053622Y0303697D01*
X0053622Y0298697D01*
X0051122Y0296197D01*
X0053622Y0293697D01*
X0053622Y0288697D01*
X0051122Y0286197D01*
X0051122Y0296197D02*
X0046122Y0296197D01*
X0046240Y0386236D02*
X0051240Y0386236D01*
X0053740Y0388736D01*
X0056240Y0386236D01*
X0061240Y0386236D01*
X0063740Y0388736D01*
X0063740Y0393736D01*
X0061240Y0396236D01*
X0056240Y0396236D01*
X0053740Y0393736D01*
X0053740Y0388736D01*
X0053740Y0393736D02*
X0051240Y0396236D01*
X0046240Y0396236D01*
X0043740Y0393736D01*
X0043740Y0388736D01*
X0046240Y0386236D01*
X0063740Y0388736D02*
X0066240Y0386236D01*
X0071240Y0386236D01*
X0073740Y0388736D01*
X0076240Y0386236D01*
X0081240Y0386236D01*
X0083740Y0388736D01*
X0086240Y0386236D01*
X0091240Y0386236D01*
X0093740Y0388736D01*
X0093740Y0393736D01*
X0091240Y0396236D01*
X0086240Y0396236D01*
X0083740Y0393736D01*
X0083740Y0388736D01*
X0083740Y0393736D02*
X0081240Y0396236D01*
X0076240Y0396236D01*
X0073740Y0393736D01*
X0073740Y0388736D01*
X0073740Y0393736D02*
X0071240Y0396236D01*
X0066240Y0396236D01*
X0063740Y0393736D01*
X0093740Y0393736D02*
X0096240Y0396236D01*
X0101240Y0396236D01*
X0103740Y0393736D01*
X0106240Y0396236D01*
X0111240Y0396236D01*
X0113740Y0393736D01*
X0116240Y0396236D01*
X0121240Y0396236D01*
X0123740Y0393736D01*
X0123740Y0388736D01*
X0121240Y0386236D01*
X0116240Y0386236D01*
X0113740Y0388736D01*
X0111240Y0386236D01*
X0106240Y0386236D01*
X0103740Y0388736D01*
X0101240Y0386236D01*
X0096240Y0386236D01*
X0093740Y0388736D01*
X0103740Y0388736D02*
X0103740Y0393736D01*
X0113740Y0393736D02*
X0113740Y0388736D01*
X0142165Y0388736D02*
X0144665Y0386236D01*
X0149665Y0386236D01*
X0152165Y0388736D01*
X0154665Y0386236D01*
X0159665Y0386236D01*
X0162165Y0388736D01*
X0162165Y0393736D01*
X0159665Y0396236D01*
X0154665Y0396236D01*
X0152165Y0393736D01*
X0152165Y0388736D01*
X0152165Y0393736D02*
X0149665Y0396236D01*
X0144665Y0396236D01*
X0142165Y0393736D01*
X0142165Y0388736D01*
X0162165Y0388736D02*
X0164665Y0386236D01*
X0169665Y0386236D01*
X0172165Y0388736D01*
X0174665Y0386236D01*
X0179665Y0386236D01*
X0182165Y0388736D01*
X0184665Y0386236D01*
X0189665Y0386236D01*
X0192165Y0388736D01*
X0192165Y0393736D01*
X0189665Y0396236D01*
X0184665Y0396236D01*
X0182165Y0393736D01*
X0182165Y0388736D01*
X0182165Y0393736D02*
X0179665Y0396236D01*
X0174665Y0396236D01*
X0172165Y0393736D01*
X0172165Y0388736D01*
X0172165Y0393736D02*
X0169665Y0396236D01*
X0164665Y0396236D01*
X0162165Y0393736D01*
X0192165Y0393736D02*
X0194665Y0396236D01*
X0199665Y0396236D01*
X0202165Y0393736D01*
X0204665Y0396236D01*
X0209665Y0396236D01*
X0212165Y0393736D01*
X0214665Y0396236D01*
X0219665Y0396236D01*
X0222165Y0393736D01*
X0222165Y0388736D01*
X0219665Y0386236D01*
X0214665Y0386236D01*
X0212165Y0388736D01*
X0209665Y0386236D01*
X0204665Y0386236D01*
X0202165Y0388736D01*
X0199665Y0386236D01*
X0194665Y0386236D01*
X0192165Y0388736D01*
X0202165Y0388736D02*
X0202165Y0393736D01*
X0212165Y0393736D02*
X0212165Y0388736D01*
X0240591Y0388736D02*
X0243091Y0386236D01*
X0248091Y0386236D01*
X0250591Y0388736D01*
X0253091Y0386236D01*
X0258091Y0386236D01*
X0260591Y0388736D01*
X0260591Y0393736D01*
X0258091Y0396236D01*
X0253091Y0396236D01*
X0250591Y0393736D01*
X0250591Y0388736D01*
X0250591Y0393736D02*
X0248091Y0396236D01*
X0243091Y0396236D01*
X0240591Y0393736D01*
X0240591Y0388736D01*
X0260591Y0388736D02*
X0263091Y0386236D01*
X0268091Y0386236D01*
X0270591Y0388736D01*
X0273091Y0386236D01*
X0278091Y0386236D01*
X0280591Y0388736D01*
X0283091Y0386236D01*
X0288091Y0386236D01*
X0290591Y0388736D01*
X0290591Y0393736D01*
X0288091Y0396236D01*
X0283091Y0396236D01*
X0280591Y0393736D01*
X0280591Y0388736D01*
X0280591Y0393736D02*
X0278091Y0396236D01*
X0273091Y0396236D01*
X0270591Y0393736D01*
X0270591Y0388736D01*
X0270591Y0393736D02*
X0268091Y0396236D01*
X0263091Y0396236D01*
X0260591Y0393736D01*
X0290591Y0393736D02*
X0293091Y0396236D01*
X0298091Y0396236D01*
X0300591Y0393736D01*
X0303091Y0396236D01*
X0308091Y0396236D01*
X0310591Y0393736D01*
X0313091Y0396236D01*
X0318091Y0396236D01*
X0320591Y0393736D01*
X0320591Y0388736D01*
X0318091Y0386236D01*
X0313091Y0386236D01*
X0310591Y0388736D01*
X0308091Y0386236D01*
X0303091Y0386236D01*
X0300591Y0388736D01*
X0298091Y0386236D01*
X0293091Y0386236D01*
X0290591Y0388736D01*
X0300591Y0388736D02*
X0300591Y0393736D01*
X0310591Y0393736D02*
X0310591Y0388736D01*
X0339016Y0388736D02*
X0341516Y0386236D01*
X0346516Y0386236D01*
X0349016Y0388736D01*
X0351516Y0386236D01*
X0356516Y0386236D01*
X0359016Y0388736D01*
X0359016Y0393736D01*
X0356516Y0396236D01*
X0351516Y0396236D01*
X0349016Y0393736D01*
X0349016Y0388736D01*
X0349016Y0393736D02*
X0346516Y0396236D01*
X0341516Y0396236D01*
X0339016Y0393736D01*
X0339016Y0388736D01*
X0359016Y0388736D02*
X0361516Y0386236D01*
X0366516Y0386236D01*
X0369016Y0388736D01*
X0371516Y0386236D01*
X0376516Y0386236D01*
X0379016Y0388736D01*
X0381516Y0386236D01*
X0386516Y0386236D01*
X0389016Y0388736D01*
X0389016Y0393736D01*
X0386516Y0396236D01*
X0381516Y0396236D01*
X0379016Y0393736D01*
X0379016Y0388736D01*
X0379016Y0393736D02*
X0376516Y0396236D01*
X0371516Y0396236D01*
X0369016Y0393736D01*
X0369016Y0388736D01*
X0369016Y0393736D02*
X0366516Y0396236D01*
X0361516Y0396236D01*
X0359016Y0393736D01*
X0389016Y0393736D02*
X0391516Y0396236D01*
X0396516Y0396236D01*
X0399016Y0393736D01*
X0401516Y0396236D01*
X0406516Y0396236D01*
X0409016Y0393736D01*
X0411516Y0396236D01*
X0416516Y0396236D01*
X0419016Y0393736D01*
X0419016Y0388736D01*
X0416516Y0386236D01*
X0411516Y0386236D01*
X0409016Y0388736D01*
X0406516Y0386236D01*
X0401516Y0386236D01*
X0399016Y0388736D01*
X0396516Y0386236D01*
X0391516Y0386236D01*
X0389016Y0388736D01*
X0399016Y0388736D02*
X0399016Y0393736D01*
X0409016Y0393736D02*
X0409016Y0388736D01*
X0437441Y0388736D02*
X0439941Y0386236D01*
X0444941Y0386236D01*
X0447441Y0388736D01*
X0449941Y0386236D01*
X0454941Y0386236D01*
X0457441Y0388736D01*
X0457441Y0393736D01*
X0454941Y0396236D01*
X0449941Y0396236D01*
X0447441Y0393736D01*
X0447441Y0388736D01*
X0447441Y0393736D02*
X0444941Y0396236D01*
X0439941Y0396236D01*
X0437441Y0393736D01*
X0437441Y0388736D01*
X0457441Y0388736D02*
X0459941Y0386236D01*
X0464941Y0386236D01*
X0467441Y0388736D01*
X0469941Y0386236D01*
X0474941Y0386236D01*
X0477441Y0388736D01*
X0479941Y0386236D01*
X0484941Y0386236D01*
X0487441Y0388736D01*
X0487441Y0393736D01*
X0484941Y0396236D01*
X0479941Y0396236D01*
X0477441Y0393736D01*
X0477441Y0388736D01*
X0477441Y0393736D02*
X0474941Y0396236D01*
X0469941Y0396236D01*
X0467441Y0393736D01*
X0467441Y0388736D01*
X0467441Y0393736D02*
X0464941Y0396236D01*
X0459941Y0396236D01*
X0457441Y0393736D01*
X0487441Y0393736D02*
X0489941Y0396236D01*
X0494941Y0396236D01*
X0497441Y0393736D01*
X0499941Y0396236D01*
X0504941Y0396236D01*
X0507441Y0393736D01*
X0509941Y0396236D01*
X0514941Y0396236D01*
X0517441Y0393736D01*
X0517441Y0388736D01*
X0514941Y0386236D01*
X0509941Y0386236D01*
X0507441Y0388736D01*
X0504941Y0386236D01*
X0499941Y0386236D01*
X0497441Y0388736D01*
X0494941Y0386236D01*
X0489941Y0386236D01*
X0487441Y0388736D01*
X0497441Y0388736D02*
X0497441Y0393736D01*
X0507441Y0393736D02*
X0507441Y0388736D01*
X0535866Y0388736D02*
X0538366Y0386236D01*
X0543366Y0386236D01*
X0545866Y0388736D01*
X0548366Y0386236D01*
X0553366Y0386236D01*
X0555866Y0388736D01*
X0555866Y0393736D01*
X0553366Y0396236D01*
X0548366Y0396236D01*
X0545866Y0393736D01*
X0545866Y0388736D01*
X0545866Y0393736D02*
X0543366Y0396236D01*
X0538366Y0396236D01*
X0535866Y0393736D01*
X0535866Y0388736D01*
X0555866Y0388736D02*
X0558366Y0386236D01*
X0563366Y0386236D01*
X0565866Y0388736D01*
X0568366Y0386236D01*
X0573366Y0386236D01*
X0575866Y0388736D01*
X0578366Y0386236D01*
X0583366Y0386236D01*
X0585866Y0388736D01*
X0585866Y0393736D01*
X0583366Y0396236D01*
X0578366Y0396236D01*
X0575866Y0393736D01*
X0575866Y0388736D01*
X0575866Y0393736D02*
X0573366Y0396236D01*
X0568366Y0396236D01*
X0565866Y0393736D01*
X0565866Y0388736D01*
X0565866Y0393736D02*
X0563366Y0396236D01*
X0558366Y0396236D01*
X0555866Y0393736D01*
X0585866Y0393736D02*
X0588366Y0396236D01*
X0593366Y0396236D01*
X0595866Y0393736D01*
X0598366Y0396236D01*
X0603366Y0396236D01*
X0605866Y0393736D01*
X0608366Y0396236D01*
X0613366Y0396236D01*
X0615866Y0393736D01*
X0615866Y0388736D01*
X0613366Y0386236D01*
X0608366Y0386236D01*
X0605866Y0388736D01*
X0603366Y0386236D01*
X0598366Y0386236D01*
X0595866Y0388736D01*
X0593366Y0386236D01*
X0588366Y0386236D01*
X0585866Y0388736D01*
X0595866Y0388736D02*
X0595866Y0393736D01*
X0605866Y0393736D02*
X0605866Y0388736D01*
X0634291Y0388736D02*
X0636791Y0386236D01*
X0641791Y0386236D01*
X0644291Y0388736D01*
X0646791Y0386236D01*
X0651791Y0386236D01*
X0654291Y0388736D01*
X0654291Y0393736D01*
X0651791Y0396236D01*
X0646791Y0396236D01*
X0644291Y0393736D01*
X0644291Y0388736D01*
X0644291Y0393736D02*
X0641791Y0396236D01*
X0636791Y0396236D01*
X0634291Y0393736D01*
X0634291Y0388736D01*
X0654291Y0388736D02*
X0656791Y0386236D01*
X0661791Y0386236D01*
X0664291Y0388736D01*
X0666791Y0386236D01*
X0671791Y0386236D01*
X0674291Y0388736D01*
X0676791Y0386236D01*
X0681791Y0386236D01*
X0684291Y0388736D01*
X0684291Y0393736D01*
X0681791Y0396236D01*
X0676791Y0396236D01*
X0674291Y0393736D01*
X0674291Y0388736D01*
X0674291Y0393736D02*
X0671791Y0396236D01*
X0666791Y0396236D01*
X0664291Y0393736D01*
X0664291Y0388736D01*
X0664291Y0393736D02*
X0661791Y0396236D01*
X0656791Y0396236D01*
X0654291Y0393736D01*
X0684291Y0393736D02*
X0686791Y0396236D01*
X0691791Y0396236D01*
X0694291Y0393736D01*
X0696791Y0396236D01*
X0701791Y0396236D01*
X0704291Y0393736D01*
X0706791Y0396236D01*
X0711791Y0396236D01*
X0714291Y0393736D01*
X0714291Y0388736D01*
X0711791Y0386236D01*
X0706791Y0386236D01*
X0704291Y0388736D01*
X0701791Y0386236D01*
X0696791Y0386236D01*
X0694291Y0388736D01*
X0691791Y0386236D01*
X0686791Y0386236D01*
X0684291Y0388736D01*
X0694291Y0388736D02*
X0694291Y0393736D01*
X0704291Y0393736D02*
X0704291Y0388736D01*
X0641713Y0306197D02*
X0636713Y0306197D01*
X0634213Y0303697D01*
X0634213Y0298697D01*
X0636713Y0296197D01*
X0634213Y0293697D01*
X0634213Y0288697D01*
X0636713Y0286197D01*
X0641713Y0286197D01*
X0644213Y0288697D01*
X0644213Y0293697D01*
X0641713Y0296197D01*
X0636713Y0296197D01*
X0641713Y0296197D02*
X0644213Y0298697D01*
X0644213Y0303697D01*
X0641713Y0306197D01*
X0641791Y0286315D02*
X0636791Y0286315D01*
X0634291Y0283815D01*
X0634291Y0278815D01*
X0636791Y0276315D01*
X0641791Y0276315D01*
X0644291Y0278815D01*
X0646791Y0276315D01*
X0651791Y0276315D01*
X0654291Y0278815D01*
X0654291Y0283815D01*
X0651791Y0286315D01*
X0646791Y0286315D01*
X0644291Y0283815D01*
X0644291Y0278815D01*
X0644291Y0283815D02*
X0641791Y0286315D01*
X0654291Y0283815D02*
X0656791Y0286315D01*
X0661791Y0286315D01*
X0664291Y0283815D01*
X0666791Y0286315D01*
X0671791Y0286315D01*
X0674291Y0283815D01*
X0676791Y0286315D01*
X0681791Y0286315D01*
X0684291Y0283815D01*
X0684291Y0278815D01*
X0681791Y0276315D01*
X0676791Y0276315D01*
X0674291Y0278815D01*
X0671791Y0276315D01*
X0666791Y0276315D01*
X0664291Y0278815D01*
X0661791Y0276315D01*
X0656791Y0276315D01*
X0654291Y0278815D01*
X0664291Y0278815D02*
X0664291Y0283815D01*
X0674291Y0283815D02*
X0674291Y0278815D01*
X0684291Y0278815D02*
X0686791Y0276315D01*
X0691791Y0276315D01*
X0694291Y0278815D01*
X0696791Y0276315D01*
X0701791Y0276315D01*
X0704291Y0278815D01*
X0706791Y0276315D01*
X0711791Y0276315D01*
X0714291Y0278815D01*
X0714291Y0283815D01*
X0711791Y0286315D01*
X0706791Y0286315D01*
X0704291Y0283815D01*
X0704291Y0278815D01*
X0704291Y0283815D02*
X0701791Y0286315D01*
X0696791Y0286315D01*
X0694291Y0283815D01*
X0694291Y0278815D01*
X0694291Y0283815D02*
X0691791Y0286315D01*
X0686791Y0286315D01*
X0684291Y0283815D01*
X0615866Y0283815D02*
X0615866Y0278815D01*
X0613366Y0276315D01*
X0608366Y0276315D01*
X0605866Y0278815D01*
X0603366Y0276315D01*
X0598366Y0276315D01*
X0595866Y0278815D01*
X0593366Y0276315D01*
X0588366Y0276315D01*
X0585866Y0278815D01*
X0583366Y0276315D01*
X0578366Y0276315D01*
X0575866Y0278815D01*
X0573366Y0276315D01*
X0568366Y0276315D01*
X0565866Y0278815D01*
X0563366Y0276315D01*
X0558366Y0276315D01*
X0555866Y0278815D01*
X0553366Y0276315D01*
X0548366Y0276315D01*
X0545866Y0278815D01*
X0543366Y0276315D01*
X0538366Y0276315D01*
X0535866Y0278815D01*
X0535866Y0283815D01*
X0538366Y0286315D01*
X0543366Y0286315D01*
X0545866Y0283815D01*
X0548366Y0286315D01*
X0553366Y0286315D01*
X0555866Y0283815D01*
X0555866Y0278815D01*
X0555866Y0283815D02*
X0558366Y0286315D01*
X0563366Y0286315D01*
X0565866Y0283815D01*
X0568366Y0286315D01*
X0573366Y0286315D01*
X0575866Y0283815D01*
X0578366Y0286315D01*
X0583366Y0286315D01*
X0585866Y0283815D01*
X0585866Y0278815D01*
X0585866Y0283815D02*
X0588366Y0286315D01*
X0593366Y0286315D01*
X0595866Y0283815D01*
X0598366Y0286315D01*
X0603366Y0286315D01*
X0605866Y0283815D01*
X0608366Y0286315D01*
X0613366Y0286315D01*
X0615866Y0283815D01*
X0605866Y0283815D02*
X0605866Y0278815D01*
X0595866Y0278815D02*
X0595866Y0283815D01*
X0575866Y0283815D02*
X0575866Y0278815D01*
X0565866Y0278815D02*
X0565866Y0283815D01*
X0545866Y0283815D02*
X0545866Y0278815D01*
X0543287Y0286197D02*
X0538287Y0286197D01*
X0535787Y0288697D01*
X0535787Y0293697D01*
X0538287Y0296197D01*
X0535787Y0298697D01*
X0535787Y0303697D01*
X0538287Y0306197D01*
X0543287Y0306197D01*
X0545787Y0303697D01*
X0545787Y0298697D01*
X0543287Y0296197D01*
X0545787Y0293697D01*
X0545787Y0288697D01*
X0543287Y0286197D01*
X0543287Y0296197D02*
X0538287Y0296197D01*
X0517441Y0283815D02*
X0517441Y0278815D01*
X0514941Y0276315D01*
X0509941Y0276315D01*
X0507441Y0278815D01*
X0504941Y0276315D01*
X0499941Y0276315D01*
X0497441Y0278815D01*
X0494941Y0276315D01*
X0489941Y0276315D01*
X0487441Y0278815D01*
X0484941Y0276315D01*
X0479941Y0276315D01*
X0477441Y0278815D01*
X0474941Y0276315D01*
X0469941Y0276315D01*
X0467441Y0278815D01*
X0464941Y0276315D01*
X0459941Y0276315D01*
X0457441Y0278815D01*
X0454941Y0276315D01*
X0449941Y0276315D01*
X0447441Y0278815D01*
X0444941Y0276315D01*
X0439941Y0276315D01*
X0437441Y0278815D01*
X0437441Y0283815D01*
X0439941Y0286315D01*
X0444941Y0286315D01*
X0447441Y0283815D01*
X0449941Y0286315D01*
X0454941Y0286315D01*
X0457441Y0283815D01*
X0457441Y0278815D01*
X0457441Y0283815D02*
X0459941Y0286315D01*
X0464941Y0286315D01*
X0467441Y0283815D01*
X0469941Y0286315D01*
X0474941Y0286315D01*
X0477441Y0283815D01*
X0479941Y0286315D01*
X0484941Y0286315D01*
X0487441Y0283815D01*
X0487441Y0278815D01*
X0487441Y0283815D02*
X0489941Y0286315D01*
X0494941Y0286315D01*
X0497441Y0283815D01*
X0499941Y0286315D01*
X0504941Y0286315D01*
X0507441Y0283815D01*
X0509941Y0286315D01*
X0514941Y0286315D01*
X0517441Y0283815D01*
X0507441Y0283815D02*
X0507441Y0278815D01*
X0497441Y0278815D02*
X0497441Y0283815D01*
X0477441Y0283815D02*
X0477441Y0278815D01*
X0467441Y0278815D02*
X0467441Y0283815D01*
X0447441Y0283815D02*
X0447441Y0278815D01*
X0444862Y0286197D02*
X0439862Y0286197D01*
X0437362Y0288697D01*
X0437362Y0293697D01*
X0439862Y0296197D01*
X0437362Y0298697D01*
X0437362Y0303697D01*
X0439862Y0306197D01*
X0444862Y0306197D01*
X0447362Y0303697D01*
X0447362Y0298697D01*
X0444862Y0296197D01*
X0447362Y0293697D01*
X0447362Y0288697D01*
X0444862Y0286197D01*
X0444862Y0296197D02*
X0439862Y0296197D01*
X0419016Y0283815D02*
X0419016Y0278815D01*
X0416516Y0276315D01*
X0411516Y0276315D01*
X0409016Y0278815D01*
X0406516Y0276315D01*
X0401516Y0276315D01*
X0399016Y0278815D01*
X0396516Y0276315D01*
X0391516Y0276315D01*
X0389016Y0278815D01*
X0386516Y0276315D01*
X0381516Y0276315D01*
X0379016Y0278815D01*
X0376516Y0276315D01*
X0371516Y0276315D01*
X0369016Y0278815D01*
X0366516Y0276315D01*
X0361516Y0276315D01*
X0359016Y0278815D01*
X0356516Y0276315D01*
X0351516Y0276315D01*
X0349016Y0278815D01*
X0346516Y0276315D01*
X0341516Y0276315D01*
X0339016Y0278815D01*
X0339016Y0283815D01*
X0341516Y0286315D01*
X0346516Y0286315D01*
X0349016Y0283815D01*
X0351516Y0286315D01*
X0356516Y0286315D01*
X0359016Y0283815D01*
X0359016Y0278815D01*
X0359016Y0283815D02*
X0361516Y0286315D01*
X0366516Y0286315D01*
X0369016Y0283815D01*
X0371516Y0286315D01*
X0376516Y0286315D01*
X0379016Y0283815D01*
X0381516Y0286315D01*
X0386516Y0286315D01*
X0389016Y0283815D01*
X0389016Y0278815D01*
X0389016Y0283815D02*
X0391516Y0286315D01*
X0396516Y0286315D01*
X0399016Y0283815D01*
X0401516Y0286315D01*
X0406516Y0286315D01*
X0409016Y0283815D01*
X0411516Y0286315D01*
X0416516Y0286315D01*
X0419016Y0283815D01*
X0409016Y0283815D02*
X0409016Y0278815D01*
X0399016Y0278815D02*
X0399016Y0283815D01*
X0379016Y0283815D02*
X0379016Y0278815D01*
X0369016Y0278815D02*
X0369016Y0283815D01*
X0349016Y0283815D02*
X0349016Y0278815D01*
X0346437Y0286197D02*
X0341437Y0286197D01*
X0338937Y0288697D01*
X0338937Y0293697D01*
X0341437Y0296197D01*
X0338937Y0298697D01*
X0338937Y0303697D01*
X0341437Y0306197D01*
X0346437Y0306197D01*
X0348937Y0303697D01*
X0348937Y0298697D01*
X0346437Y0296197D01*
X0348937Y0293697D01*
X0348937Y0288697D01*
X0346437Y0286197D01*
X0346437Y0296197D02*
X0341437Y0296197D01*
D15*
X0341968Y0293269D02*
X0341968Y0288765D01*
X0343570Y0288765D02*
X0345822Y0288765D01*
X0346572Y0289516D01*
X0346572Y0292518D01*
X0345822Y0293269D01*
X0343570Y0293269D01*
X0343570Y0288765D01*
X0340467Y0291768D02*
X0341968Y0293269D01*
X0340467Y0291768D02*
X0338966Y0293269D01*
X0338966Y0288765D01*
X0348174Y0288014D02*
X0351176Y0288014D01*
X0352778Y0289516D02*
X0353528Y0288765D01*
X0355029Y0288765D01*
X0355780Y0289516D01*
X0355780Y0292518D01*
X0355029Y0293269D01*
X0353528Y0293269D01*
X0352778Y0292518D01*
X0352778Y0289516D01*
X0355136Y0292935D02*
X0355887Y0293686D01*
X0355887Y0294436D01*
X0355136Y0295187D01*
X0351383Y0295187D01*
X0351383Y0294436D02*
X0351383Y0295938D01*
X0351383Y0297539D02*
X0351383Y0299791D01*
X0352134Y0300542D01*
X0353635Y0300542D01*
X0354386Y0299791D01*
X0354386Y0297539D01*
X0355887Y0297539D02*
X0351383Y0297539D01*
X0353635Y0302143D02*
X0353635Y0305145D01*
X0351383Y0304395D02*
X0353635Y0302143D01*
X0355887Y0304395D02*
X0351383Y0304395D01*
X0357381Y0293269D02*
X0357381Y0289516D01*
X0358132Y0288765D01*
X0359633Y0288765D01*
X0360384Y0289516D01*
X0360384Y0293269D01*
X0361985Y0293269D02*
X0364988Y0293269D01*
X0363487Y0293269D02*
X0363487Y0288765D01*
X0366589Y0288014D02*
X0369592Y0288014D01*
X0371193Y0291017D02*
X0374196Y0291017D01*
X0373445Y0293269D02*
X0371193Y0291017D01*
X0373445Y0288765D02*
X0373445Y0293269D01*
X0437391Y0293269D02*
X0438892Y0291768D01*
X0440394Y0293269D01*
X0440394Y0288765D01*
X0441995Y0288765D02*
X0444247Y0288765D01*
X0444997Y0289516D01*
X0444997Y0292518D01*
X0444247Y0293269D01*
X0441995Y0293269D01*
X0441995Y0288765D01*
X0437391Y0288765D02*
X0437391Y0293269D01*
X0446599Y0288014D02*
X0449601Y0288014D01*
X0451203Y0289516D02*
X0451953Y0288765D01*
X0453455Y0288765D01*
X0454205Y0289516D01*
X0454205Y0292518D01*
X0453455Y0293269D01*
X0451953Y0293269D01*
X0451203Y0292518D01*
X0451203Y0289516D01*
X0453562Y0292935D02*
X0454312Y0293686D01*
X0454312Y0294436D01*
X0453562Y0295187D01*
X0449808Y0295187D01*
X0449808Y0294436D02*
X0449808Y0295938D01*
X0449808Y0297539D02*
X0449808Y0299791D01*
X0450559Y0300542D01*
X0452060Y0300542D01*
X0452811Y0299791D01*
X0452811Y0297539D01*
X0454312Y0297539D02*
X0449808Y0297539D01*
X0450559Y0302143D02*
X0449808Y0302894D01*
X0449808Y0304395D01*
X0450559Y0305145D01*
X0451310Y0305145D01*
X0452060Y0304395D01*
X0452811Y0305145D01*
X0453562Y0305145D01*
X0454312Y0304395D01*
X0454312Y0302894D01*
X0453562Y0302143D01*
X0452060Y0303644D02*
X0452060Y0304395D01*
X0455807Y0293269D02*
X0455807Y0289516D01*
X0456557Y0288765D01*
X0458059Y0288765D01*
X0458809Y0289516D01*
X0458809Y0293269D01*
X0460411Y0293269D02*
X0463413Y0293269D01*
X0461912Y0293269D02*
X0461912Y0288765D01*
X0465014Y0288014D02*
X0468017Y0288014D01*
X0469618Y0289516D02*
X0470369Y0288765D01*
X0471870Y0288765D01*
X0472621Y0289516D01*
X0472621Y0290266D01*
X0471870Y0291017D01*
X0471120Y0291017D01*
X0471870Y0291017D02*
X0472621Y0291768D01*
X0472621Y0292518D01*
X0471870Y0293269D01*
X0470369Y0293269D01*
X0469618Y0292518D01*
X0535816Y0293269D02*
X0537317Y0291768D01*
X0538819Y0293269D01*
X0538819Y0288765D01*
X0540420Y0288765D02*
X0542672Y0288765D01*
X0543423Y0289516D01*
X0543423Y0292518D01*
X0542672Y0293269D01*
X0540420Y0293269D01*
X0540420Y0288765D01*
X0535816Y0288765D02*
X0535816Y0293269D01*
X0545024Y0288014D02*
X0548027Y0288014D01*
X0549628Y0289516D02*
X0550379Y0288765D01*
X0551880Y0288765D01*
X0552630Y0289516D01*
X0552630Y0292518D01*
X0551880Y0293269D01*
X0550379Y0293269D01*
X0549628Y0292518D01*
X0549628Y0289516D01*
X0551987Y0292935D02*
X0552737Y0293686D01*
X0552737Y0294436D01*
X0551987Y0295187D01*
X0548234Y0295187D01*
X0548234Y0294436D02*
X0548234Y0295938D01*
X0548234Y0297539D02*
X0548234Y0299791D01*
X0548984Y0300542D01*
X0550485Y0300542D01*
X0551236Y0299791D01*
X0551236Y0297539D01*
X0552737Y0297539D02*
X0548234Y0297539D01*
X0548984Y0302143D02*
X0548234Y0302894D01*
X0548234Y0304395D01*
X0548984Y0305145D01*
X0549735Y0305145D01*
X0552737Y0302143D01*
X0552737Y0305145D01*
X0554232Y0293269D02*
X0554232Y0289516D01*
X0554982Y0288765D01*
X0556484Y0288765D01*
X0557234Y0289516D01*
X0557234Y0293269D01*
X0558836Y0293269D02*
X0561838Y0293269D01*
X0560337Y0293269D02*
X0560337Y0288765D01*
X0563440Y0288014D02*
X0566442Y0288014D01*
X0568044Y0288765D02*
X0571046Y0291768D01*
X0571046Y0292518D01*
X0570296Y0293269D01*
X0568794Y0293269D01*
X0568044Y0292518D01*
X0568044Y0288765D02*
X0571046Y0288765D01*
X0634241Y0288765D02*
X0634241Y0293269D01*
X0635743Y0291768D01*
X0637244Y0293269D01*
X0637244Y0288765D01*
X0638845Y0288765D02*
X0641097Y0288765D01*
X0641848Y0289516D01*
X0641848Y0292518D01*
X0641097Y0293269D01*
X0638845Y0293269D01*
X0638845Y0288765D01*
X0643449Y0288014D02*
X0646452Y0288014D01*
X0648053Y0289516D02*
X0648053Y0292518D01*
X0648804Y0293269D01*
X0650305Y0293269D01*
X0651056Y0292518D01*
X0651056Y0289516D01*
X0650305Y0288765D01*
X0648804Y0288765D01*
X0648053Y0289516D01*
X0650412Y0292935D02*
X0651163Y0293686D01*
X0651163Y0294436D01*
X0650412Y0295187D01*
X0646659Y0295187D01*
X0646659Y0294436D02*
X0646659Y0295938D01*
X0646659Y0297539D02*
X0646659Y0299791D01*
X0647409Y0300542D01*
X0648911Y0300542D01*
X0649661Y0299791D01*
X0649661Y0297539D01*
X0651163Y0297539D02*
X0646659Y0297539D01*
X0648160Y0302143D02*
X0646659Y0303644D01*
X0651163Y0303644D01*
X0651163Y0302143D02*
X0651163Y0305145D01*
X0652657Y0293269D02*
X0652657Y0289516D01*
X0653408Y0288765D01*
X0654909Y0288765D01*
X0655660Y0289516D01*
X0655660Y0293269D01*
X0657261Y0293269D02*
X0660264Y0293269D01*
X0658762Y0293269D02*
X0658762Y0288765D01*
X0661865Y0288014D02*
X0664867Y0288014D01*
X0666469Y0288765D02*
X0669471Y0288765D01*
X0667970Y0288765D02*
X0667970Y0293269D01*
X0666469Y0291768D01*
X0643449Y0398686D02*
X0643449Y0399437D01*
X0646452Y0402439D01*
X0646452Y0403190D01*
X0643449Y0403190D01*
X0641848Y0400938D02*
X0638845Y0400938D01*
X0637244Y0403190D02*
X0637244Y0398686D01*
X0634241Y0398686D02*
X0634241Y0403190D01*
X0635743Y0401689D01*
X0637244Y0403190D01*
X0548027Y0403190D02*
X0546525Y0402439D01*
X0545024Y0400938D01*
X0547276Y0400938D01*
X0548027Y0400187D01*
X0548027Y0399437D01*
X0547276Y0398686D01*
X0545775Y0398686D01*
X0545024Y0399437D01*
X0545024Y0400938D01*
X0543423Y0400938D02*
X0540420Y0400938D01*
X0538819Y0403190D02*
X0538819Y0398686D01*
X0535816Y0398686D02*
X0535816Y0403190D01*
X0537317Y0401689D01*
X0538819Y0403190D01*
X0449601Y0403190D02*
X0446599Y0403190D01*
X0446599Y0400938D01*
X0448100Y0401689D01*
X0448851Y0401689D01*
X0449601Y0400938D01*
X0449601Y0399437D01*
X0448851Y0398686D01*
X0447349Y0398686D01*
X0446599Y0399437D01*
X0444997Y0400938D02*
X0441995Y0400938D01*
X0440394Y0403190D02*
X0440394Y0398686D01*
X0437391Y0398686D02*
X0437391Y0403190D01*
X0438892Y0401689D01*
X0440394Y0403190D01*
X0351176Y0400938D02*
X0348174Y0400938D01*
X0350426Y0403190D01*
X0350426Y0398686D01*
X0346572Y0400938D02*
X0343570Y0400938D01*
X0341968Y0403190D02*
X0341968Y0398686D01*
X0338966Y0398686D02*
X0338966Y0403190D01*
X0340467Y0401689D01*
X0341968Y0403190D01*
X0252751Y0402439D02*
X0252751Y0401689D01*
X0252000Y0400938D01*
X0252751Y0400187D01*
X0252751Y0399437D01*
X0252000Y0398686D01*
X0250499Y0398686D01*
X0249748Y0399437D01*
X0251250Y0400938D02*
X0252000Y0400938D01*
X0252751Y0402439D02*
X0252000Y0403190D01*
X0250499Y0403190D01*
X0249748Y0402439D01*
X0248147Y0400938D02*
X0245144Y0400938D01*
X0243543Y0403190D02*
X0243543Y0398686D01*
X0240541Y0398686D02*
X0240541Y0403190D01*
X0242042Y0401689D01*
X0243543Y0403190D01*
X0154326Y0402439D02*
X0153575Y0403190D01*
X0152074Y0403190D01*
X0151323Y0402439D01*
X0149722Y0400938D02*
X0146719Y0400938D01*
X0145118Y0403190D02*
X0145118Y0398686D01*
X0142115Y0398686D02*
X0142115Y0403190D01*
X0143617Y0401689D01*
X0145118Y0403190D01*
X0151323Y0398686D02*
X0154326Y0401689D01*
X0154326Y0402439D01*
X0154326Y0398686D02*
X0151323Y0398686D01*
X0055901Y0398686D02*
X0052898Y0398686D01*
X0054399Y0398686D02*
X0054399Y0403190D01*
X0052898Y0401689D01*
X0051297Y0400938D02*
X0048294Y0400938D01*
X0046693Y0403190D02*
X0046693Y0398686D01*
X0043690Y0398686D02*
X0043690Y0403190D01*
X0045191Y0401689D01*
X0046693Y0403190D01*
X0056819Y0305145D02*
X0057569Y0305145D01*
X0058320Y0304395D01*
X0059071Y0305145D01*
X0059821Y0305145D01*
X0060572Y0304395D01*
X0060572Y0302894D01*
X0059821Y0302143D01*
X0060572Y0300542D02*
X0060572Y0297539D01*
X0060572Y0299040D02*
X0056068Y0299040D01*
X0057569Y0297539D01*
X0056819Y0295938D02*
X0058320Y0295938D01*
X0059071Y0295187D01*
X0059071Y0292935D01*
X0059754Y0293269D02*
X0060504Y0292518D01*
X0060504Y0289516D01*
X0059754Y0288765D01*
X0058253Y0288765D01*
X0057502Y0289516D01*
X0057502Y0292518D01*
X0058253Y0293269D01*
X0059754Y0293269D01*
X0060572Y0292935D02*
X0056068Y0292935D01*
X0056068Y0295187D01*
X0056819Y0295938D01*
X0056068Y0291334D02*
X0056068Y0289832D01*
X0056068Y0290583D02*
X0059821Y0290583D01*
X0060572Y0289832D01*
X0060572Y0289082D01*
X0059821Y0288331D01*
X0062106Y0289516D02*
X0062106Y0293269D01*
X0065108Y0293269D02*
X0065108Y0289516D01*
X0064358Y0288765D01*
X0062856Y0288765D01*
X0062106Y0289516D01*
X0066710Y0293269D02*
X0069712Y0293269D01*
X0068211Y0293269D02*
X0068211Y0288765D01*
X0071314Y0288014D02*
X0074316Y0288014D01*
X0075918Y0288765D02*
X0075918Y0289516D01*
X0078920Y0292518D01*
X0078920Y0293269D01*
X0075918Y0293269D01*
X0058320Y0303644D02*
X0058320Y0304395D01*
X0056819Y0305145D02*
X0056068Y0304395D01*
X0056068Y0302894D01*
X0056819Y0302143D01*
X0050546Y0293269D02*
X0048294Y0293269D01*
X0048294Y0288765D01*
X0050546Y0288765D01*
X0051297Y0289516D01*
X0051297Y0292518D01*
X0050546Y0293269D01*
X0046693Y0293269D02*
X0046693Y0288765D01*
X0043690Y0288765D02*
X0043690Y0293269D01*
X0045191Y0291768D01*
X0046693Y0293269D01*
X0052898Y0288014D02*
X0055901Y0288014D01*
X0142115Y0288765D02*
X0142115Y0293269D01*
X0143617Y0291768D01*
X0145118Y0293269D01*
X0145118Y0288765D01*
X0146719Y0288765D02*
X0148971Y0288765D01*
X0149722Y0289516D01*
X0149722Y0292518D01*
X0148971Y0293269D01*
X0146719Y0293269D01*
X0146719Y0288765D01*
X0151323Y0288014D02*
X0154326Y0288014D01*
X0154572Y0289832D02*
X0154572Y0291334D01*
X0154572Y0290583D02*
X0158325Y0290583D01*
X0159076Y0289832D01*
X0159076Y0289082D01*
X0158325Y0288331D01*
X0158179Y0288765D02*
X0158930Y0289516D01*
X0158930Y0292518D01*
X0158179Y0293269D01*
X0156678Y0293269D01*
X0155927Y0292518D01*
X0155927Y0289516D01*
X0156678Y0288765D01*
X0158179Y0288765D01*
X0160531Y0289516D02*
X0161282Y0288765D01*
X0162783Y0288765D01*
X0163534Y0289516D01*
X0163534Y0293269D01*
X0165135Y0293269D02*
X0168138Y0293269D01*
X0166636Y0293269D02*
X0166636Y0288765D01*
X0169739Y0288014D02*
X0172741Y0288014D01*
X0174343Y0289516D02*
X0175093Y0288765D01*
X0176595Y0288765D01*
X0177345Y0289516D01*
X0177345Y0290266D01*
X0176595Y0291017D01*
X0174343Y0291017D01*
X0174343Y0289516D01*
X0174343Y0291017D02*
X0175844Y0292518D01*
X0177345Y0293269D01*
X0160531Y0293269D02*
X0160531Y0289516D01*
X0159076Y0292935D02*
X0154572Y0292935D01*
X0154572Y0295187D01*
X0155323Y0295938D01*
X0156824Y0295938D01*
X0157575Y0295187D01*
X0157575Y0292935D01*
X0159076Y0297539D02*
X0159076Y0300542D01*
X0159076Y0299040D02*
X0154572Y0299040D01*
X0156073Y0297539D01*
X0155323Y0302143D02*
X0154572Y0302894D01*
X0154572Y0304395D01*
X0155323Y0305145D01*
X0156073Y0305145D01*
X0159076Y0302143D01*
X0159076Y0305145D01*
X0240541Y0293269D02*
X0240541Y0288765D01*
X0243543Y0288765D02*
X0243543Y0293269D01*
X0242042Y0291768D01*
X0240541Y0293269D01*
X0245144Y0293269D02*
X0245144Y0288765D01*
X0247396Y0288765D01*
X0248147Y0289516D01*
X0248147Y0292518D01*
X0247396Y0293269D01*
X0245144Y0293269D01*
X0249748Y0288014D02*
X0252751Y0288014D01*
X0254352Y0289516D02*
X0255103Y0288765D01*
X0256604Y0288765D01*
X0257355Y0289516D01*
X0257355Y0292518D01*
X0256604Y0293269D01*
X0255103Y0293269D01*
X0254352Y0292518D01*
X0254352Y0289516D01*
X0256947Y0292935D02*
X0257698Y0293686D01*
X0257698Y0294436D01*
X0256947Y0295187D01*
X0253194Y0295187D01*
X0253194Y0294436D02*
X0253194Y0295938D01*
X0253194Y0297539D02*
X0253194Y0299791D01*
X0253945Y0300542D01*
X0255446Y0300542D01*
X0256197Y0299791D01*
X0256197Y0297539D01*
X0257698Y0297539D02*
X0253194Y0297539D01*
X0253194Y0302143D02*
X0255446Y0302143D01*
X0254695Y0303644D01*
X0254695Y0304395D01*
X0255446Y0305145D01*
X0256947Y0305145D01*
X0257698Y0304395D01*
X0257698Y0302894D01*
X0256947Y0302143D01*
X0253194Y0302143D02*
X0253194Y0305145D01*
X0258956Y0293269D02*
X0258956Y0289516D01*
X0259707Y0288765D01*
X0261208Y0288765D01*
X0261959Y0289516D01*
X0261959Y0293269D01*
X0263560Y0293269D02*
X0266563Y0293269D01*
X0265061Y0293269D02*
X0265061Y0288765D01*
X0268164Y0288014D02*
X0271167Y0288014D01*
X0272768Y0289516D02*
X0273519Y0288765D01*
X0275020Y0288765D01*
X0275771Y0289516D01*
X0275771Y0291017D01*
X0275020Y0291768D01*
X0274269Y0291768D01*
X0272768Y0291017D01*
X0272768Y0293269D01*
X0275771Y0293269D01*
X0174148Y0209931D02*
X0171145Y0209931D01*
X0169544Y0209180D02*
X0168793Y0209931D01*
X0167292Y0209931D01*
X0166541Y0209180D01*
X0166541Y0208430D01*
X0167292Y0207679D01*
X0168793Y0207679D01*
X0169544Y0206928D01*
X0169544Y0206178D01*
X0168793Y0205427D01*
X0167292Y0205427D01*
X0166541Y0206178D01*
X0171145Y0206178D02*
X0171145Y0205427D01*
X0171145Y0206178D02*
X0174148Y0209180D01*
X0174148Y0209931D01*
X0156825Y0209931D02*
X0155324Y0209180D01*
X0153822Y0207679D01*
X0156074Y0207679D01*
X0156825Y0206928D01*
X0156825Y0206178D01*
X0156074Y0205427D01*
X0154573Y0205427D01*
X0153822Y0206178D01*
X0153822Y0207679D01*
X0152221Y0206928D02*
X0151470Y0207679D01*
X0149969Y0207679D01*
X0149219Y0208430D01*
X0149219Y0209180D01*
X0149969Y0209931D01*
X0151470Y0209931D01*
X0152221Y0209180D01*
X0152221Y0206928D02*
X0152221Y0206178D01*
X0151470Y0205427D01*
X0149969Y0205427D01*
X0149219Y0206178D01*
X0139502Y0206178D02*
X0139502Y0207679D01*
X0138752Y0208430D01*
X0138001Y0208430D01*
X0136500Y0207679D01*
X0136500Y0209931D01*
X0139502Y0209931D01*
X0139502Y0206178D02*
X0138752Y0205427D01*
X0137250Y0205427D01*
X0136500Y0206178D01*
X0134898Y0206178D02*
X0134148Y0205427D01*
X0132646Y0205427D01*
X0131896Y0206178D01*
X0132646Y0207679D02*
X0134148Y0207679D01*
X0134898Y0206928D01*
X0134898Y0206178D01*
X0132646Y0207679D02*
X0131896Y0208430D01*
X0131896Y0209180D01*
X0132646Y0209931D01*
X0134148Y0209931D01*
X0134898Y0209180D01*
X0122179Y0207679D02*
X0119177Y0207679D01*
X0121429Y0209931D01*
X0121429Y0205427D01*
X0117575Y0206178D02*
X0116825Y0205427D01*
X0115323Y0205427D01*
X0114573Y0206178D01*
X0115323Y0207679D02*
X0116825Y0207679D01*
X0117575Y0206928D01*
X0117575Y0206178D01*
X0115323Y0207679D02*
X0114573Y0208430D01*
X0114573Y0209180D01*
X0115323Y0209931D01*
X0116825Y0209931D01*
X0117575Y0209180D01*
X0104856Y0209180D02*
X0104856Y0208430D01*
X0104106Y0207679D01*
X0104856Y0206928D01*
X0104856Y0206178D01*
X0104106Y0205427D01*
X0102605Y0205427D01*
X0101854Y0206178D01*
X0100253Y0206178D02*
X0099502Y0205427D01*
X0098001Y0205427D01*
X0097250Y0206178D01*
X0098001Y0207679D02*
X0097250Y0208430D01*
X0097250Y0209180D01*
X0098001Y0209931D01*
X0099502Y0209931D01*
X0100253Y0209180D01*
X0101854Y0209180D02*
X0102605Y0209931D01*
X0104106Y0209931D01*
X0104856Y0209180D01*
X0104106Y0207679D02*
X0103355Y0207679D01*
X0100253Y0206928D02*
X0099502Y0207679D01*
X0098001Y0207679D01*
X0100253Y0206928D02*
X0100253Y0206178D01*
X0087534Y0205427D02*
X0084531Y0205427D01*
X0087534Y0208430D01*
X0087534Y0209180D01*
X0086783Y0209931D01*
X0085282Y0209931D01*
X0084531Y0209180D01*
X0082930Y0209180D02*
X0082179Y0209931D01*
X0080678Y0209931D01*
X0079927Y0209180D01*
X0079927Y0208430D01*
X0080678Y0207679D01*
X0082179Y0207679D01*
X0082930Y0206928D01*
X0082930Y0206178D01*
X0082179Y0205427D01*
X0080678Y0205427D01*
X0079927Y0206178D01*
X0070211Y0205427D02*
X0067208Y0205427D01*
X0068710Y0205427D02*
X0068710Y0209931D01*
X0067208Y0208430D01*
X0065607Y0209180D02*
X0064856Y0209931D01*
X0063355Y0209931D01*
X0062604Y0209180D01*
X0062604Y0208430D01*
X0063355Y0207679D01*
X0064856Y0207679D01*
X0065607Y0206928D01*
X0065607Y0206178D01*
X0064856Y0205427D01*
X0063355Y0205427D01*
X0062604Y0206178D01*
X0267715Y0042032D02*
X0268465Y0042782D01*
X0269216Y0042782D01*
X0272219Y0039780D01*
X0272219Y0042782D01*
X0272402Y0045319D02*
X0272902Y0033819D01*
X0273902Y0032819D01*
X0310902Y0032819D01*
X0311902Y0033819D01*
X0312402Y0045319D01*
X0281826Y0030773D02*
X0281826Y0026269D01*
X0280325Y0026269D02*
X0283327Y0026269D01*
X0280325Y0029271D02*
X0281826Y0030773D01*
X0278723Y0030022D02*
X0277973Y0030773D01*
X0276471Y0030773D01*
X0275721Y0030022D01*
X0275721Y0027020D01*
X0276471Y0026269D01*
X0277973Y0026269D01*
X0278723Y0027020D01*
X0274153Y0026269D02*
X0272652Y0026269D01*
X0273402Y0026269D02*
X0273402Y0030773D01*
X0272652Y0030773D02*
X0274153Y0030773D01*
X0273702Y0035219D02*
X0273704Y0035282D01*
X0273710Y0035344D01*
X0273720Y0035406D01*
X0273733Y0035468D01*
X0273751Y0035528D01*
X0273772Y0035587D01*
X0273797Y0035645D01*
X0273826Y0035701D01*
X0273858Y0035755D01*
X0273893Y0035807D01*
X0273931Y0035856D01*
X0273973Y0035904D01*
X0274017Y0035948D01*
X0274065Y0035990D01*
X0274114Y0036028D01*
X0274166Y0036063D01*
X0274220Y0036095D01*
X0274276Y0036124D01*
X0274334Y0036149D01*
X0274393Y0036170D01*
X0274453Y0036188D01*
X0274515Y0036201D01*
X0274577Y0036211D01*
X0274639Y0036217D01*
X0274702Y0036219D01*
X0274765Y0036217D01*
X0274827Y0036211D01*
X0274889Y0036201D01*
X0274951Y0036188D01*
X0275011Y0036170D01*
X0275070Y0036149D01*
X0275128Y0036124D01*
X0275184Y0036095D01*
X0275238Y0036063D01*
X0275290Y0036028D01*
X0275339Y0035990D01*
X0275387Y0035948D01*
X0275431Y0035904D01*
X0275473Y0035856D01*
X0275511Y0035807D01*
X0275546Y0035755D01*
X0275578Y0035701D01*
X0275607Y0035645D01*
X0275632Y0035587D01*
X0275653Y0035528D01*
X0275671Y0035468D01*
X0275684Y0035406D01*
X0275694Y0035344D01*
X0275700Y0035282D01*
X0275702Y0035219D01*
X0275700Y0035156D01*
X0275694Y0035094D01*
X0275684Y0035032D01*
X0275671Y0034970D01*
X0275653Y0034910D01*
X0275632Y0034851D01*
X0275607Y0034793D01*
X0275578Y0034737D01*
X0275546Y0034683D01*
X0275511Y0034631D01*
X0275473Y0034582D01*
X0275431Y0034534D01*
X0275387Y0034490D01*
X0275339Y0034448D01*
X0275290Y0034410D01*
X0275238Y0034375D01*
X0275184Y0034343D01*
X0275128Y0034314D01*
X0275070Y0034289D01*
X0275011Y0034268D01*
X0274951Y0034250D01*
X0274889Y0034237D01*
X0274827Y0034227D01*
X0274765Y0034221D01*
X0274702Y0034219D01*
X0274639Y0034221D01*
X0274577Y0034227D01*
X0274515Y0034237D01*
X0274453Y0034250D01*
X0274393Y0034268D01*
X0274334Y0034289D01*
X0274276Y0034314D01*
X0274220Y0034343D01*
X0274166Y0034375D01*
X0274114Y0034410D01*
X0274065Y0034448D01*
X0274017Y0034490D01*
X0273973Y0034534D01*
X0273931Y0034582D01*
X0273893Y0034631D01*
X0273858Y0034683D01*
X0273826Y0034737D01*
X0273797Y0034793D01*
X0273772Y0034851D01*
X0273751Y0034910D01*
X0273733Y0034970D01*
X0273720Y0035032D01*
X0273710Y0035094D01*
X0273704Y0035156D01*
X0273702Y0035219D01*
X0272219Y0035927D02*
X0272219Y0037428D01*
X0271468Y0038179D01*
X0272219Y0035927D02*
X0271468Y0035176D01*
X0268465Y0035176D01*
X0267715Y0035927D01*
X0267715Y0037428D01*
X0268465Y0038179D01*
X0268465Y0039780D02*
X0267715Y0040531D01*
X0267715Y0042032D01*
X0291108Y0010726D02*
X0290357Y0009976D01*
X0290357Y0006973D01*
X0291108Y0006222D01*
X0292609Y0006222D01*
X0293360Y0006973D01*
X0294961Y0006222D02*
X0297964Y0006222D01*
X0296462Y0006222D02*
X0296462Y0010726D01*
X0294961Y0009225D01*
X0293360Y0009976D02*
X0292609Y0010726D01*
X0291108Y0010726D01*
D16*
X0290889Y0266692D02*
X0293958Y0266692D01*
X0295493Y0266692D02*
X0298562Y0266692D01*
X0300097Y0266692D02*
X0302399Y0266692D01*
X0303166Y0267459D01*
X0303166Y0270529D01*
X0302399Y0271296D01*
X0300097Y0271296D01*
X0300097Y0266692D01*
X0297028Y0268994D02*
X0295493Y0268994D01*
X0295493Y0271296D02*
X0295493Y0266692D01*
X0290889Y0266692D02*
X0290889Y0271296D01*
X0295493Y0271296D02*
X0298562Y0271296D01*
X0304701Y0270529D02*
X0305468Y0271296D01*
X0307003Y0271296D01*
X0307770Y0270529D01*
X0307770Y0269761D01*
X0307003Y0268994D01*
X0307770Y0268227D01*
X0307770Y0267459D01*
X0307003Y0266692D01*
X0305468Y0266692D01*
X0304701Y0267459D01*
X0306235Y0268994D02*
X0307003Y0268994D01*
X0284389Y0268994D02*
X0284389Y0267459D01*
X0283622Y0266692D01*
X0282087Y0266692D01*
X0281320Y0267459D01*
X0281320Y0268994D02*
X0282854Y0269761D01*
X0283622Y0269761D01*
X0284389Y0268994D01*
X0284389Y0271296D02*
X0281320Y0271296D01*
X0281320Y0268994D01*
X0279785Y0268994D02*
X0279018Y0268227D01*
X0276716Y0268227D01*
X0278250Y0268227D02*
X0279785Y0266692D01*
X0279785Y0268994D02*
X0279785Y0270529D01*
X0279018Y0271296D01*
X0276716Y0271296D01*
X0276716Y0266692D01*
X0236709Y0285951D02*
X0232106Y0285951D01*
X0232106Y0288253D01*
X0232873Y0289020D01*
X0234407Y0289020D01*
X0235175Y0288253D01*
X0235175Y0285951D01*
X0235175Y0287486D02*
X0236709Y0289020D01*
X0236709Y0290555D02*
X0236709Y0293624D01*
X0236709Y0292090D02*
X0232106Y0292090D01*
X0233640Y0290555D01*
X0234407Y0295159D02*
X0232873Y0296694D01*
X0232106Y0298228D01*
X0234407Y0297461D02*
X0234407Y0295159D01*
X0235942Y0295159D01*
X0236709Y0295926D01*
X0236709Y0297461D01*
X0235942Y0298228D01*
X0235175Y0298228D01*
X0234407Y0297461D01*
X0207790Y0271296D02*
X0206255Y0271296D01*
X0205488Y0270529D01*
X0203954Y0270529D02*
X0203186Y0271296D01*
X0200884Y0271296D01*
X0200884Y0266692D01*
X0203186Y0266692D01*
X0203954Y0267459D01*
X0203954Y0270529D01*
X0207790Y0271296D02*
X0208557Y0270529D01*
X0208557Y0269761D01*
X0205488Y0266692D01*
X0208557Y0266692D01*
X0199350Y0266692D02*
X0196280Y0266692D01*
X0196280Y0271296D01*
X0199350Y0271296D01*
X0197815Y0268994D02*
X0196280Y0268994D01*
X0194746Y0266692D02*
X0191676Y0266692D01*
X0191676Y0271296D01*
X0185964Y0270529D02*
X0185196Y0271296D01*
X0183662Y0271296D01*
X0182894Y0270529D01*
X0181360Y0270529D02*
X0181360Y0268994D01*
X0180593Y0268227D01*
X0178291Y0268227D01*
X0179825Y0268227D02*
X0181360Y0266692D01*
X0182894Y0266692D02*
X0185964Y0269761D01*
X0185964Y0270529D01*
X0185964Y0266692D02*
X0182894Y0266692D01*
X0181360Y0270529D02*
X0180593Y0271296D01*
X0178291Y0271296D01*
X0178291Y0266692D01*
X0138284Y0285951D02*
X0133680Y0285951D01*
X0133680Y0288253D01*
X0134448Y0289020D01*
X0135982Y0289020D01*
X0136750Y0288253D01*
X0136750Y0285951D01*
X0136750Y0287486D02*
X0138284Y0289020D01*
X0138284Y0290555D02*
X0138284Y0293624D01*
X0138284Y0292090D02*
X0133680Y0292090D01*
X0135215Y0290555D01*
X0133680Y0295159D02*
X0133680Y0298228D01*
X0134448Y0298228D01*
X0137517Y0295159D01*
X0138284Y0295159D01*
X0109385Y0270509D02*
X0109385Y0265905D01*
X0107850Y0265905D02*
X0110920Y0265905D01*
X0107850Y0268974D02*
X0109385Y0270509D01*
X0106316Y0269741D02*
X0105548Y0270509D01*
X0103246Y0270509D01*
X0103246Y0265905D01*
X0105548Y0265905D01*
X0106316Y0266672D01*
X0106316Y0269741D01*
X0101712Y0270509D02*
X0098643Y0270509D01*
X0098643Y0265905D01*
X0101712Y0265905D01*
X0100177Y0268207D02*
X0098643Y0268207D01*
X0097108Y0265905D02*
X0094039Y0265905D01*
X0094039Y0270509D01*
X0087539Y0265905D02*
X0084469Y0265905D01*
X0082935Y0265905D02*
X0081400Y0267439D01*
X0082167Y0267439D02*
X0079865Y0267439D01*
X0079865Y0265905D02*
X0079865Y0270509D01*
X0082167Y0270509D01*
X0082935Y0269741D01*
X0082935Y0268207D01*
X0082167Y0267439D01*
X0084469Y0268974D02*
X0086004Y0270509D01*
X0086004Y0265905D01*
X0069328Y0327322D02*
X0067793Y0327322D01*
X0067026Y0328089D01*
X0067026Y0328857D01*
X0067793Y0329624D01*
X0069328Y0329624D01*
X0070095Y0328857D01*
X0070095Y0328089D01*
X0069328Y0327322D01*
X0069328Y0329624D02*
X0070095Y0330391D01*
X0070095Y0331159D01*
X0069328Y0331926D01*
X0067793Y0331926D01*
X0067026Y0331159D01*
X0067026Y0330391D01*
X0067793Y0329624D01*
X0065491Y0327322D02*
X0062422Y0327322D01*
X0060887Y0327322D02*
X0059353Y0328857D01*
X0060120Y0328857D02*
X0057818Y0328857D01*
X0057818Y0327322D02*
X0057818Y0331926D01*
X0060120Y0331926D01*
X0060887Y0331159D01*
X0060887Y0329624D01*
X0060120Y0328857D01*
X0062422Y0330391D02*
X0063957Y0331926D01*
X0063957Y0327322D01*
X0330531Y0298228D02*
X0330531Y0295159D01*
X0332833Y0295159D01*
X0332065Y0296694D01*
X0332065Y0297461D01*
X0332833Y0298228D01*
X0334367Y0298228D01*
X0335135Y0297461D01*
X0335135Y0295926D01*
X0334367Y0295159D01*
X0335135Y0293624D02*
X0335135Y0290555D01*
X0335135Y0289020D02*
X0333600Y0287486D01*
X0333600Y0288253D02*
X0333600Y0285951D01*
X0335135Y0285951D02*
X0330531Y0285951D01*
X0330531Y0288253D01*
X0331298Y0289020D01*
X0332833Y0289020D01*
X0333600Y0288253D01*
X0332065Y0290555D02*
X0330531Y0292090D01*
X0335135Y0292090D01*
X0375141Y0271296D02*
X0375141Y0266692D01*
X0375141Y0268227D02*
X0377443Y0268227D01*
X0378210Y0268994D01*
X0378210Y0270529D01*
X0377443Y0271296D01*
X0375141Y0271296D01*
X0376676Y0268227D02*
X0378210Y0266692D01*
X0379745Y0267459D02*
X0380512Y0266692D01*
X0382047Y0266692D01*
X0382814Y0267459D01*
X0382814Y0268227D01*
X0382047Y0268994D01*
X0379745Y0268994D01*
X0379745Y0267459D01*
X0379745Y0268994D02*
X0381280Y0270529D01*
X0382814Y0271296D01*
X0386952Y0271296D02*
X0386952Y0266692D01*
X0390021Y0266692D01*
X0391556Y0266692D02*
X0394625Y0266692D01*
X0396160Y0266692D02*
X0398462Y0266692D01*
X0399229Y0267459D01*
X0399229Y0270529D01*
X0398462Y0271296D01*
X0396160Y0271296D01*
X0396160Y0266692D01*
X0393091Y0268994D02*
X0391556Y0268994D01*
X0391556Y0271296D02*
X0391556Y0266692D01*
X0391556Y0271296D02*
X0394625Y0271296D01*
X0400764Y0268994D02*
X0403833Y0268994D01*
X0403066Y0266692D02*
X0403066Y0271296D01*
X0400764Y0268994D01*
X0428956Y0285951D02*
X0428956Y0288253D01*
X0429723Y0289020D01*
X0431258Y0289020D01*
X0432025Y0288253D01*
X0432025Y0285951D01*
X0432025Y0287486D02*
X0433560Y0289020D01*
X0433560Y0290555D02*
X0433560Y0293624D01*
X0433560Y0292090D02*
X0428956Y0292090D01*
X0430491Y0290555D01*
X0431258Y0295159D02*
X0431258Y0298228D01*
X0433560Y0297461D02*
X0428956Y0297461D01*
X0431258Y0295159D01*
X0433560Y0285951D02*
X0428956Y0285951D01*
X0473566Y0271296D02*
X0473566Y0266692D01*
X0473566Y0268227D02*
X0475868Y0268227D01*
X0476635Y0268994D01*
X0476635Y0270529D01*
X0475868Y0271296D01*
X0473566Y0271296D01*
X0475101Y0268227D02*
X0476635Y0266692D01*
X0478170Y0266692D02*
X0478170Y0267459D01*
X0481239Y0270529D01*
X0481239Y0271296D01*
X0478170Y0271296D01*
X0487739Y0271296D02*
X0487739Y0266692D01*
X0490809Y0266692D01*
X0492343Y0266692D02*
X0495413Y0266692D01*
X0496947Y0266692D02*
X0499249Y0266692D01*
X0500016Y0267459D01*
X0500016Y0270529D01*
X0499249Y0271296D01*
X0496947Y0271296D01*
X0496947Y0266692D01*
X0493878Y0268994D02*
X0492343Y0268994D01*
X0492343Y0271296D02*
X0492343Y0266692D01*
X0492343Y0271296D02*
X0495413Y0271296D01*
X0501551Y0271296D02*
X0501551Y0268994D01*
X0503086Y0269761D01*
X0503853Y0269761D01*
X0504620Y0268994D01*
X0504620Y0267459D01*
X0503853Y0266692D01*
X0502318Y0266692D01*
X0501551Y0267459D01*
X0501551Y0271296D02*
X0504620Y0271296D01*
X0527381Y0285951D02*
X0527381Y0288253D01*
X0528148Y0289020D01*
X0529683Y0289020D01*
X0530450Y0288253D01*
X0530450Y0285951D01*
X0530450Y0287486D02*
X0531985Y0289020D01*
X0531985Y0290555D02*
X0531985Y0293624D01*
X0531985Y0292090D02*
X0527381Y0292090D01*
X0528916Y0290555D01*
X0528148Y0295159D02*
X0527381Y0295926D01*
X0527381Y0297461D01*
X0528148Y0298228D01*
X0528916Y0298228D01*
X0529683Y0297461D01*
X0530450Y0298228D01*
X0531218Y0298228D01*
X0531985Y0297461D01*
X0531985Y0295926D01*
X0531218Y0295159D01*
X0529683Y0296694D02*
X0529683Y0297461D01*
X0531985Y0285951D02*
X0527381Y0285951D01*
X0571991Y0271296D02*
X0571991Y0266692D01*
X0571991Y0268227D02*
X0574293Y0268227D01*
X0575061Y0268994D01*
X0575061Y0270529D01*
X0574293Y0271296D01*
X0571991Y0271296D01*
X0573526Y0268227D02*
X0575061Y0266692D01*
X0576595Y0267459D02*
X0576595Y0268227D01*
X0577363Y0268994D01*
X0578897Y0268994D01*
X0579665Y0268227D01*
X0579665Y0267459D01*
X0578897Y0266692D01*
X0577363Y0266692D01*
X0576595Y0267459D01*
X0577363Y0268994D02*
X0576595Y0269761D01*
X0576595Y0270529D01*
X0577363Y0271296D01*
X0578897Y0271296D01*
X0579665Y0270529D01*
X0579665Y0269761D01*
X0578897Y0268994D01*
X0587739Y0266692D02*
X0590809Y0266692D01*
X0592343Y0266692D02*
X0595413Y0266692D01*
X0596947Y0266692D02*
X0599249Y0266692D01*
X0600016Y0267459D01*
X0600016Y0270529D01*
X0599249Y0271296D01*
X0596947Y0271296D01*
X0596947Y0266692D01*
X0593878Y0268994D02*
X0592343Y0268994D01*
X0592343Y0271296D02*
X0592343Y0266692D01*
X0587739Y0266692D02*
X0587739Y0271296D01*
X0592343Y0271296D02*
X0595413Y0271296D01*
X0601551Y0268994D02*
X0603853Y0268994D01*
X0604620Y0268227D01*
X0604620Y0267459D01*
X0603853Y0266692D01*
X0602318Y0266692D01*
X0601551Y0267459D01*
X0601551Y0268994D01*
X0603086Y0270529D01*
X0604620Y0271296D01*
X0625806Y0285951D02*
X0625806Y0288253D01*
X0626574Y0289020D01*
X0628108Y0289020D01*
X0628876Y0288253D01*
X0628876Y0285951D01*
X0630410Y0285951D02*
X0625806Y0285951D01*
X0628876Y0287486D02*
X0630410Y0289020D01*
X0630410Y0290555D02*
X0630410Y0293624D01*
X0630410Y0292090D02*
X0625806Y0292090D01*
X0627341Y0290555D01*
X0626574Y0295159D02*
X0625806Y0295926D01*
X0625806Y0297461D01*
X0626574Y0298228D01*
X0627341Y0298228D01*
X0630410Y0295159D01*
X0630410Y0298228D01*
X0670417Y0271296D02*
X0672718Y0271296D01*
X0673486Y0270529D01*
X0673486Y0268994D01*
X0672718Y0268227D01*
X0670417Y0268227D01*
X0671951Y0268227D02*
X0673486Y0266692D01*
X0675020Y0267459D02*
X0675788Y0266692D01*
X0677322Y0266692D01*
X0678090Y0267459D01*
X0678090Y0270529D01*
X0677322Y0271296D01*
X0675788Y0271296D01*
X0675020Y0270529D01*
X0675020Y0269761D01*
X0675788Y0268994D01*
X0678090Y0268994D01*
X0684590Y0271296D02*
X0684590Y0266692D01*
X0687659Y0266692D01*
X0689194Y0266692D02*
X0692263Y0266692D01*
X0693798Y0266692D02*
X0693798Y0271296D01*
X0696100Y0271296D01*
X0696867Y0270529D01*
X0696867Y0267459D01*
X0696100Y0266692D01*
X0693798Y0266692D01*
X0690728Y0268994D02*
X0689194Y0268994D01*
X0689194Y0271296D02*
X0689194Y0266692D01*
X0689194Y0271296D02*
X0692263Y0271296D01*
X0698402Y0271296D02*
X0701471Y0271296D01*
X0701471Y0270529D01*
X0698402Y0267459D01*
X0698402Y0266692D01*
X0670417Y0266692D02*
X0670417Y0271296D01*
X0674074Y0433346D02*
X0674074Y0435648D01*
X0674841Y0436415D01*
X0676376Y0436415D01*
X0677143Y0435648D01*
X0677143Y0433346D01*
X0677143Y0434880D02*
X0678678Y0436415D01*
X0676376Y0437950D02*
X0676376Y0441019D01*
X0678678Y0440252D02*
X0674074Y0440252D01*
X0676376Y0437950D01*
X0678678Y0433346D02*
X0674074Y0433346D01*
X0661355Y0433346D02*
X0656751Y0433346D01*
X0656751Y0435648D01*
X0657519Y0436415D01*
X0659053Y0436415D01*
X0659820Y0435648D01*
X0659820Y0433346D01*
X0659820Y0434880D02*
X0661355Y0436415D01*
X0660588Y0437950D02*
X0661355Y0438717D01*
X0661355Y0440252D01*
X0660588Y0441019D01*
X0659820Y0441019D01*
X0659053Y0440252D01*
X0659053Y0439484D01*
X0659053Y0440252D02*
X0658286Y0441019D01*
X0657519Y0441019D01*
X0656751Y0440252D01*
X0656751Y0438717D01*
X0657519Y0437950D01*
D17*
X0687480Y0265469D03*
X0687480Y0262516D03*
X0590630Y0262516D03*
X0590630Y0265469D03*
X0490630Y0265469D03*
X0490630Y0262516D03*
X0389843Y0262516D03*
X0389843Y0265469D03*
X0293780Y0265469D03*
X0293780Y0262516D03*
X0194567Y0262516D03*
X0194567Y0265469D03*
X0096929Y0264681D03*
X0096929Y0261728D03*
D18*
X0096929Y0263205D03*
X0194567Y0263992D03*
X0293780Y0263992D03*
X0389843Y0263992D03*
X0490630Y0263992D03*
X0590630Y0263992D03*
X0687480Y0263992D03*
D19*
X0292402Y0048319D03*
D20*
X0275152Y0045819D03*
X0309652Y0045819D03*
D21*
X0297402Y0045819D03*
X0287402Y0045819D03*
D22*
X0286515Y0023972D02*
X0286515Y0021472D01*
X0286515Y0018972D01*
X0284015Y0018972D02*
X0284015Y0021472D01*
X0284015Y0023972D01*
X0259469Y0028834D02*
X0256969Y0028834D01*
X0254469Y0028834D01*
X0254469Y0031334D02*
X0256969Y0031334D01*
X0259469Y0031334D01*
D23*
X0174291Y0179927D03*
X0156969Y0179927D03*
X0139646Y0179927D03*
X0122323Y0179927D03*
X0105000Y0179927D03*
X0087677Y0179927D03*
X0070354Y0179927D03*
D24*
X0386890Y0433283D03*
D25*
X0630984Y0435646D03*
M02*
