G75*
%MOIN*%
%OFA0B0*%
%FSLAX25Y25*%
%IPPOS*%
%LPD*%
%AMOC8*
5,1,8,0,0,1.08239X$1,22.5*
%
%ADD10C,0.13398*%
%ADD11R,0.08200X0.08200*%
%ADD12C,0.08200*%
%ADD13R,0.07100X0.07100*%
%ADD14C,0.07100*%
%ADD15C,0.06800*%
%ADD16C,0.12611*%
%ADD17R,0.11430X0.11430*%
%ADD18OC8,0.06000*%
%ADD19C,0.06000*%
%ADD20R,0.07296X0.07296*%
%ADD21R,0.04762X0.04762*%
D10*
X0020748Y0016748D03*
X0016811Y0457693D03*
X0737283Y0453756D03*
X0741220Y0016748D03*
D11*
X0608441Y0022941D03*
X0518413Y0022992D03*
X0428413Y0022992D03*
D12*
X0418413Y0022992D03*
X0408413Y0022992D03*
X0398413Y0022992D03*
X0388413Y0022992D03*
X0378413Y0022992D03*
X0368413Y0022992D03*
X0358413Y0022992D03*
X0448413Y0022992D03*
X0458413Y0022992D03*
X0468413Y0022992D03*
X0478413Y0022992D03*
X0488413Y0022992D03*
X0498413Y0022992D03*
X0508413Y0022992D03*
X0538413Y0022992D03*
X0548413Y0022992D03*
X0558413Y0022992D03*
X0568413Y0022992D03*
X0578413Y0022992D03*
X0588413Y0022988D03*
X0598441Y0022941D03*
D13*
X0348413Y0042992D03*
X0338413Y0052992D03*
X0348413Y0212992D03*
X0378413Y0212992D03*
X0468413Y0212992D03*
X0554413Y0212992D03*
D14*
X0564413Y0212992D03*
X0574413Y0212992D03*
X0584413Y0212992D03*
X0594413Y0212992D03*
X0604413Y0212992D03*
X0614413Y0212992D03*
X0624413Y0212992D03*
X0634413Y0212992D03*
X0644413Y0212992D03*
X0538413Y0212992D03*
X0528413Y0212992D03*
X0518413Y0212992D03*
X0508413Y0212992D03*
X0498413Y0212992D03*
X0488413Y0212992D03*
X0478413Y0212992D03*
X0448413Y0212992D03*
X0438413Y0212992D03*
X0428413Y0212992D03*
X0418413Y0212992D03*
X0408413Y0212992D03*
X0398413Y0212992D03*
X0388413Y0212992D03*
X0348413Y0202992D03*
X0338413Y0202992D03*
X0338413Y0212992D03*
X0338413Y0192992D03*
X0338413Y0182992D03*
X0338413Y0172992D03*
X0338413Y0162992D03*
X0338413Y0152992D03*
X0338413Y0142992D03*
X0338413Y0132992D03*
X0338413Y0122992D03*
X0348413Y0122992D03*
X0348413Y0132992D03*
X0348413Y0142992D03*
X0348413Y0152992D03*
X0348413Y0162992D03*
X0348413Y0172992D03*
X0348413Y0182992D03*
X0348413Y0192992D03*
X0348413Y0112992D03*
X0338413Y0112992D03*
X0338413Y0102992D03*
X0338413Y0092992D03*
X0338413Y0082992D03*
X0338413Y0072992D03*
X0338413Y0062992D03*
X0348413Y0062992D03*
X0348413Y0052992D03*
X0338413Y0042992D03*
X0348413Y0072992D03*
X0348413Y0082992D03*
X0348413Y0092992D03*
X0348413Y0102992D03*
D15*
X0302402Y0042819D02*
X0302402Y0036819D01*
X0292402Y0036819D02*
X0292402Y0042819D01*
X0282402Y0042819D02*
X0282402Y0036819D01*
X0285591Y0278315D02*
X0285591Y0284315D01*
X0275591Y0284315D02*
X0275591Y0278315D01*
X0265591Y0278315D02*
X0265591Y0284315D01*
X0255591Y0284315D02*
X0255591Y0278315D01*
X0245591Y0278315D02*
X0245591Y0284315D01*
X0242748Y0291197D02*
X0248748Y0291197D01*
X0248748Y0301197D02*
X0242748Y0301197D01*
X0217165Y0284315D02*
X0217165Y0278315D01*
X0207165Y0278315D02*
X0207165Y0284315D01*
X0197165Y0284315D02*
X0197165Y0278315D01*
X0187165Y0278315D02*
X0187165Y0284315D01*
X0177165Y0284315D02*
X0177165Y0278315D01*
X0167165Y0278315D02*
X0167165Y0284315D01*
X0157165Y0284315D02*
X0157165Y0278315D01*
X0147165Y0278315D02*
X0147165Y0284315D01*
X0150126Y0291197D02*
X0144126Y0291197D01*
X0144126Y0301197D02*
X0150126Y0301197D01*
X0118740Y0284315D02*
X0118740Y0278315D01*
X0108740Y0278315D02*
X0108740Y0284315D01*
X0098740Y0284315D02*
X0098740Y0278315D01*
X0088740Y0278315D02*
X0088740Y0284315D01*
X0078740Y0284315D02*
X0078740Y0278315D01*
X0068740Y0278315D02*
X0068740Y0284315D01*
X0058740Y0284315D02*
X0058740Y0278315D01*
X0048740Y0278315D02*
X0048740Y0284315D01*
X0051622Y0291197D02*
X0045622Y0291197D01*
X0045622Y0301197D02*
X0051622Y0301197D01*
X0048740Y0388236D02*
X0048740Y0394236D01*
X0058740Y0394236D02*
X0058740Y0388236D01*
X0068740Y0388236D02*
X0068740Y0394236D01*
X0078740Y0394236D02*
X0078740Y0388236D01*
X0088740Y0388236D02*
X0088740Y0394236D01*
X0098740Y0394236D02*
X0098740Y0388236D01*
X0108740Y0388236D02*
X0108740Y0394236D01*
X0118740Y0394236D02*
X0118740Y0388236D01*
X0147165Y0388236D02*
X0147165Y0394236D01*
X0157165Y0394236D02*
X0157165Y0388236D01*
X0167165Y0388236D02*
X0167165Y0394236D01*
X0177165Y0394236D02*
X0177165Y0388236D01*
X0187165Y0388236D02*
X0187165Y0394236D01*
X0197165Y0394236D02*
X0197165Y0388236D01*
X0207165Y0388236D02*
X0207165Y0394236D01*
X0217165Y0394236D02*
X0217165Y0388236D01*
X0245591Y0388236D02*
X0245591Y0394236D01*
X0255591Y0394236D02*
X0255591Y0388236D01*
X0265591Y0388236D02*
X0265591Y0394236D01*
X0275591Y0394236D02*
X0275591Y0388236D01*
X0285591Y0388236D02*
X0285591Y0394236D01*
X0295591Y0394236D02*
X0295591Y0388236D01*
X0305591Y0388236D02*
X0305591Y0394236D01*
X0315591Y0394236D02*
X0315591Y0388236D01*
X0344016Y0388236D02*
X0344016Y0394236D01*
X0354016Y0394236D02*
X0354016Y0388236D01*
X0364016Y0388236D02*
X0364016Y0394236D01*
X0374016Y0394236D02*
X0374016Y0388236D01*
X0384016Y0388236D02*
X0384016Y0394236D01*
X0394016Y0394236D02*
X0394016Y0388236D01*
X0404016Y0388236D02*
X0404016Y0394236D01*
X0414016Y0394236D02*
X0414016Y0388236D01*
X0442441Y0388236D02*
X0442441Y0394236D01*
X0452441Y0394236D02*
X0452441Y0388236D01*
X0462441Y0388236D02*
X0462441Y0394236D01*
X0472441Y0394236D02*
X0472441Y0388236D01*
X0482441Y0388236D02*
X0482441Y0394236D01*
X0492441Y0394236D02*
X0492441Y0388236D01*
X0502441Y0388236D02*
X0502441Y0394236D01*
X0512441Y0394236D02*
X0512441Y0388236D01*
X0540866Y0388236D02*
X0540866Y0394236D01*
X0550866Y0394236D02*
X0550866Y0388236D01*
X0560866Y0388236D02*
X0560866Y0394236D01*
X0570866Y0394236D02*
X0570866Y0388236D01*
X0580866Y0388236D02*
X0580866Y0394236D01*
X0590866Y0394236D02*
X0590866Y0388236D01*
X0600866Y0388236D02*
X0600866Y0394236D01*
X0610866Y0394236D02*
X0610866Y0388236D01*
X0639291Y0388236D02*
X0639291Y0394236D01*
X0649291Y0394236D02*
X0649291Y0388236D01*
X0659291Y0388236D02*
X0659291Y0394236D01*
X0669291Y0394236D02*
X0669291Y0388236D01*
X0679291Y0388236D02*
X0679291Y0394236D01*
X0689291Y0394236D02*
X0689291Y0388236D01*
X0699291Y0388236D02*
X0699291Y0394236D01*
X0709291Y0394236D02*
X0709291Y0388236D01*
X0642213Y0301197D02*
X0636213Y0301197D01*
X0636213Y0291197D02*
X0642213Y0291197D01*
X0639291Y0284315D02*
X0639291Y0278315D01*
X0649291Y0278315D02*
X0649291Y0284315D01*
X0659291Y0284315D02*
X0659291Y0278315D01*
X0669291Y0278315D02*
X0669291Y0284315D01*
X0679291Y0284315D02*
X0679291Y0278315D01*
X0689291Y0278315D02*
X0689291Y0284315D01*
X0699291Y0284315D02*
X0699291Y0278315D01*
X0709291Y0278315D02*
X0709291Y0284315D01*
X0610866Y0284315D02*
X0610866Y0278315D01*
X0600866Y0278315D02*
X0600866Y0284315D01*
X0590866Y0284315D02*
X0590866Y0278315D01*
X0580866Y0278315D02*
X0580866Y0284315D01*
X0570866Y0284315D02*
X0570866Y0278315D01*
X0560866Y0278315D02*
X0560866Y0284315D01*
X0550866Y0284315D02*
X0550866Y0278315D01*
X0540866Y0278315D02*
X0540866Y0284315D01*
X0543787Y0291197D02*
X0537787Y0291197D01*
X0537787Y0301197D02*
X0543787Y0301197D01*
X0512441Y0284315D02*
X0512441Y0278315D01*
X0502441Y0278315D02*
X0502441Y0284315D01*
X0492441Y0284315D02*
X0492441Y0278315D01*
X0482441Y0278315D02*
X0482441Y0284315D01*
X0472441Y0284315D02*
X0472441Y0278315D01*
X0462441Y0278315D02*
X0462441Y0284315D01*
X0452441Y0284315D02*
X0452441Y0278315D01*
X0442441Y0278315D02*
X0442441Y0284315D01*
X0445362Y0291197D02*
X0439362Y0291197D01*
X0439362Y0301197D02*
X0445362Y0301197D01*
X0414016Y0284315D02*
X0414016Y0278315D01*
X0404016Y0278315D02*
X0404016Y0284315D01*
X0394016Y0284315D02*
X0394016Y0278315D01*
X0384016Y0278315D02*
X0384016Y0284315D01*
X0374016Y0284315D02*
X0374016Y0278315D01*
X0364016Y0278315D02*
X0364016Y0284315D01*
X0354016Y0284315D02*
X0354016Y0278315D01*
X0344016Y0278315D02*
X0344016Y0284315D01*
X0346937Y0291197D02*
X0340937Y0291197D01*
X0340937Y0301197D02*
X0346937Y0301197D01*
X0315591Y0284315D02*
X0315591Y0278315D01*
X0305591Y0278315D02*
X0305591Y0284315D01*
X0295591Y0284315D02*
X0295591Y0278315D01*
D16*
X0038858Y0092437D03*
D17*
X0067598Y0092437D03*
X0089252Y0092437D03*
D18*
X0256969Y0040134D03*
X0256969Y0020134D03*
X0275315Y0021472D03*
X0295315Y0021472D03*
D19*
X0174291Y0166077D02*
X0174291Y0171277D01*
X0156969Y0171277D02*
X0156969Y0166077D01*
X0139646Y0166077D02*
X0139646Y0171277D01*
X0122323Y0171277D02*
X0122323Y0166077D01*
X0105000Y0166077D02*
X0105000Y0171277D01*
X0087677Y0171277D02*
X0087677Y0166077D01*
X0070354Y0166077D02*
X0070354Y0171277D01*
X0070354Y0196077D02*
X0070354Y0201277D01*
X0087677Y0201277D02*
X0087677Y0196077D01*
X0105000Y0196077D02*
X0105000Y0201277D01*
X0122323Y0201277D02*
X0122323Y0196077D01*
X0139646Y0196077D02*
X0139646Y0201277D01*
X0156969Y0201277D02*
X0156969Y0196077D01*
X0174291Y0196077D02*
X0174291Y0201277D01*
D20*
X0345551Y0424228D03*
X0359331Y0424228D03*
X0373110Y0424228D03*
X0386890Y0424228D03*
X0400669Y0424228D03*
X0414449Y0424228D03*
X0428228Y0424228D03*
X0428228Y0442339D03*
X0414449Y0442339D03*
X0400669Y0442339D03*
X0386890Y0442339D03*
X0373110Y0442339D03*
X0359331Y0442339D03*
X0345551Y0442339D03*
X0624094Y0444701D03*
X0637874Y0444701D03*
X0637874Y0426591D03*
X0624094Y0426591D03*
D21*
X0706575Y0263992D03*
X0156969Y0228559D03*
M02*
