%
M48
M72
T01C0.02362
T02C0.03200
T03C0.04000
T04C0.04200
T05C0.04331
T06C0.07087
T07C0.11811
T08C0.12598
%
T01
X156969Y228559
X706575Y263992
T02
X295315Y21472
X275315Y21472
X256969Y20134
X256969Y40134
X174291Y168677
X156969Y168677
X139646Y168677
X122323Y168677
X105000Y168677
X87677Y168677
X70354Y168677
X70354Y198677
X87677Y198677
X105000Y198677
X122323Y198677
X139646Y198677
X156969Y198677
X174291Y198677
T03
X177165Y281315
X167165Y281315
X157165Y281315
X147165Y281315
X147126Y291197
X147126Y301197
X118740Y281315
X108740Y281315
X98740Y281315
X88740Y281315
X78740Y281315
X68740Y281315
X58740Y281315
X48740Y281315
X48622Y291197
X48622Y301197
X187165Y281315
X197165Y281315
X207165Y281315
X217165Y281315
X245591Y281315
X255591Y281315
X265591Y281315
X275591Y281315
X285591Y281315
X295591Y281315
X305591Y281315
X315591Y281315
X344016Y281315
X343937Y291197
X343937Y301197
X354016Y281315
X364016Y281315
X374016Y281315
X384016Y281315
X394016Y281315
X404016Y281315
X414016Y281315
X442441Y281315
X442362Y291197
X442362Y301197
X452441Y281315
X462441Y281315
X472441Y281315
X482441Y281315
X492441Y281315
X502441Y281315
X512441Y281315
X540866Y281315
X540787Y291197
X540787Y301197
X550866Y281315
X560866Y281315
X570866Y281315
X580866Y281315
X590866Y281315
X600866Y281315
X610866Y281315
X639291Y281315
X639213Y291197
X639213Y301197
X649291Y281315
X659291Y281315
X669291Y281315
X679291Y281315
X689291Y281315
X699291Y281315
X709291Y281315
X709291Y391236
X699291Y391236
X689291Y391236
X679291Y391236
X669291Y391236
X659291Y391236
X649291Y391236
X639291Y391236
X610866Y391236
X600866Y391236
X590866Y391236
X580866Y391236
X570866Y391236
X560866Y391236
X550866Y391236
X540866Y391236
X512441Y391236
X502441Y391236
X492441Y391236
X482441Y391236
X472441Y391236
X462441Y391236
X452441Y391236
X442441Y391236
X414016Y391236
X404016Y391236
X394016Y391236
X384016Y391236
X374016Y391236
X364016Y391236
X354016Y391236
X344016Y391236
X315591Y391236
X305591Y391236
X295591Y391236
X285591Y391236
X275591Y391236
X265591Y391236
X255591Y391236
X245591Y391236
X217165Y391236
X207165Y391236
X197165Y391236
X187165Y391236
X177165Y391236
X167165Y391236
X157165Y391236
X147165Y391236
X118740Y391236
X108740Y391236
X98740Y391236
X88740Y391236
X78740Y391236
X68740Y391236
X58740Y391236
X48740Y391236
X245748Y301197
X245748Y291197
X282402Y39819
X292402Y39819
X302402Y39819
X358413Y22992
X368413Y22992
X378413Y22992
X388413Y22992
X398413Y22992
X408413Y22992
X418413Y22992
X428413Y22992
X448413Y22992
X458413Y22992
X468413Y22992
X478413Y22992
X488413Y22992
X498413Y22992
X508413Y22992
X518413Y22992
X538413Y22992
X548413Y22992
X558413Y22992
X568413Y22992
X578413Y22992
X588413Y22988
X598441Y22941
X608441Y22941
T04
X348413Y42992
X338413Y42992
X338413Y52992
X338413Y62992
X338413Y72992
X338413Y82992
X338413Y92992
X338413Y102992
X338413Y112992
X348413Y112992
X348413Y102992
X348413Y92992
X348413Y82992
X348413Y72992
X348413Y62992
X348413Y52992
X348413Y122992
X338413Y122992
X338413Y132992
X338413Y142992
X338413Y152992
X338413Y162992
X338413Y172992
X338413Y182992
X338413Y192992
X348413Y192992
X348413Y182992
X348413Y172992
X348413Y162992
X348413Y152992
X348413Y142992
X348413Y132992
X348413Y202992
X338413Y202992
X338413Y212992
X348413Y212992
X378413Y212992
X388413Y212992
X398413Y212992
X408413Y212992
X418413Y212992
X428413Y212992
X438413Y212992
X448413Y212992
X468413Y212992
X478413Y212992
X488413Y212992
X498413Y212992
X508413Y212992
X518413Y212992
X528413Y212992
X538413Y212992
X554413Y212992
X564413Y212992
X574413Y212992
X584413Y212992
X594413Y212992
X604413Y212992
X614413Y212992
X624413Y212992
X634413Y212992
X644413Y212992
T05
X637874Y426591
X624094Y426591
X624094Y444701
X637874Y444701
X428228Y442339
X414449Y442339
X400669Y442339
X386890Y442339
X373110Y442339
X359331Y442339
X345551Y442339
X345551Y424228
X359331Y424228
X373110Y424228
X386890Y424228
X400669Y424228
X414449Y424228
X428228Y424228
T06
X89252Y92437
X67598Y92437
T07
X38858Y92437
T08
X20748Y16748
X16811Y457693
X737283Y453756
X741220Y16748
M30
