G75*
%MOIN*%
%OFA0B0*%
%FSLAX25Y25*%
%IPPOS*%
%LPD*%
%AMOC8*
5,1,8,0,0,1.08239X$1,22.5*
%
%ADD10C,0.07600*%
%ADD11OC8,0.06300*%
%ADD12C,0.06300*%
%ADD13C,0.06600*%
%ADD14C,0.03969*%
%ADD15C,0.15748*%
%ADD16C,0.05906*%
%ADD17C,0.01181*%
%ADD18C,0.06600*%
%ADD19C,0.07800*%
%ADD20C,0.19685*%
%ADD21C,0.00500*%
%ADD22C,0.05150*%
%ADD23OC8,0.05200*%
%ADD24C,0.05200*%
%ADD25C,0.06000*%
%ADD26C,0.06000*%
%ADD27R,0.06000X0.06000*%
%ADD28C,0.06496*%
%ADD29C,0.12268*%
%ADD30R,0.10630X0.10630*%
%ADD31C,0.31496*%
%ADD32R,1.02008X0.79528*%
%ADD33C,0.05200*%
%ADD34C,0.01600*%
%ADD35C,0.03200*%
%ADD36R,0.03962X0.03962*%
%ADD37C,0.05000*%
%ADD38C,0.11811*%
%ADD39C,0.09843*%
%ADD40C,0.10000*%
%ADD41C,0.02400*%
D10*
X0601000Y0136400D03*
X0601000Y0146400D03*
X0601000Y0156400D03*
X0601000Y0166400D03*
X0601000Y0176400D03*
X0601000Y0186400D03*
X0601000Y0196400D03*
X0601000Y0206400D03*
X0601000Y0226400D03*
X0601000Y0236400D03*
X0601000Y0246400D03*
X0601000Y0256400D03*
X0601000Y0266400D03*
X0601000Y0276400D03*
X0690803Y0276951D03*
X0700803Y0276951D03*
X0710803Y0276951D03*
X0710803Y0286951D03*
X0700803Y0286951D03*
X0690803Y0286951D03*
X0791000Y0276400D03*
X0791000Y0266400D03*
X0791000Y0256400D03*
X0791000Y0246400D03*
X0791000Y0236400D03*
X0791000Y0226400D03*
X0791000Y0216400D03*
X0791000Y0206400D03*
X0791000Y0190400D03*
X0791000Y0180400D03*
X0791000Y0170400D03*
X0791000Y0160400D03*
X0791000Y0150400D03*
X0791000Y0140400D03*
X0791000Y0130400D03*
X0791000Y0120400D03*
X0791000Y0110400D03*
X0791000Y0100400D03*
D11*
X0403500Y0268900D03*
X0441000Y0278900D03*
X0356000Y0278900D03*
X0323500Y0268900D03*
X0271000Y0278900D03*
X0236000Y0268900D03*
X0186000Y0278900D03*
X0151000Y0268900D03*
X0598500Y0383900D03*
X0618500Y0383900D03*
X0628500Y0383900D03*
X0648500Y0383900D03*
D12*
X0451000Y0278900D03*
X0403500Y0258900D03*
X0366000Y0278900D03*
X0323500Y0258900D03*
X0281000Y0278900D03*
X0236000Y0258900D03*
X0196000Y0278900D03*
X0151000Y0258900D03*
D13*
X0121000Y0173900D03*
X0081000Y0173900D03*
X0481000Y0386400D03*
X0521000Y0386400D03*
X0388500Y0388900D03*
X0348500Y0388900D03*
X0246000Y0391400D03*
X0206000Y0391400D03*
D14*
X0761472Y0391872D03*
X0762850Y0396400D03*
X0766591Y0399550D03*
X0771315Y0400731D03*
X0776039Y0399550D03*
X0779780Y0396400D03*
X0781157Y0391872D03*
X0781157Y0386459D03*
X0781157Y0381046D03*
X0781157Y0375632D03*
X0781157Y0370219D03*
X0779780Y0365888D03*
X0776236Y0363329D03*
X0771315Y0362148D03*
X0766394Y0363329D03*
X0762850Y0365888D03*
X0761472Y0370219D03*
X0761472Y0375632D03*
X0761472Y0381046D03*
X0761472Y0386459D03*
X0800843Y0386459D03*
X0800843Y0381046D03*
X0800843Y0375632D03*
X0800843Y0370219D03*
X0802220Y0365888D03*
X0805764Y0363329D03*
X0810685Y0362148D03*
X0815606Y0363329D03*
X0819150Y0365888D03*
X0820528Y0370219D03*
X0820528Y0375632D03*
X0820528Y0381046D03*
X0820528Y0386459D03*
X0820528Y0391872D03*
X0819150Y0396400D03*
X0815409Y0399550D03*
X0810685Y0400731D03*
X0805961Y0399550D03*
X0802220Y0396400D03*
X0800843Y0391872D03*
X0471059Y0151774D03*
X0475685Y0150298D03*
X0478500Y0146400D03*
X0478500Y0141400D03*
X0475685Y0137502D03*
X0471059Y0136026D03*
X0465843Y0136026D03*
X0460528Y0136026D03*
X0455311Y0136026D03*
X0450685Y0137502D03*
X0447831Y0141439D03*
X0447831Y0146361D03*
X0450685Y0150298D03*
X0455311Y0151774D03*
X0460528Y0151774D03*
X0465843Y0151774D03*
X0439169Y0146361D03*
X0436315Y0150298D03*
X0431689Y0151774D03*
X0426374Y0151774D03*
X0421157Y0151774D03*
X0415941Y0151774D03*
X0411315Y0150298D03*
X0408500Y0146400D03*
X0408500Y0141400D03*
X0411315Y0137502D03*
X0415941Y0136026D03*
X0421157Y0136026D03*
X0426374Y0136026D03*
X0431689Y0136026D03*
X0436315Y0137502D03*
X0439169Y0141439D03*
X0393500Y0141400D03*
X0390685Y0137502D03*
X0386059Y0136026D03*
X0380843Y0136026D03*
X0375528Y0136026D03*
X0370311Y0136026D03*
X0365685Y0137502D03*
X0362831Y0141439D03*
X0362831Y0146361D03*
X0365685Y0150298D03*
X0370311Y0151774D03*
X0375528Y0151774D03*
X0380843Y0151774D03*
X0386059Y0151774D03*
X0390685Y0150298D03*
X0393500Y0146400D03*
X0354169Y0146361D03*
X0351315Y0150298D03*
X0346689Y0151774D03*
X0341374Y0151774D03*
X0336157Y0151774D03*
X0330941Y0151774D03*
X0326315Y0150298D03*
X0323500Y0146400D03*
X0323500Y0141400D03*
X0326315Y0137502D03*
X0330941Y0136026D03*
X0336157Y0136026D03*
X0341374Y0136026D03*
X0346689Y0136026D03*
X0351315Y0137502D03*
X0354169Y0141439D03*
X0308500Y0141400D03*
X0305685Y0137502D03*
X0301059Y0136026D03*
X0295843Y0136026D03*
X0290528Y0136026D03*
X0285311Y0136026D03*
X0280685Y0137502D03*
X0277831Y0141439D03*
X0277831Y0146361D03*
X0280685Y0150298D03*
X0285311Y0151774D03*
X0290528Y0151774D03*
X0295843Y0151774D03*
X0301059Y0151774D03*
X0305685Y0150298D03*
X0308500Y0146400D03*
X0269169Y0146361D03*
X0266315Y0150298D03*
X0261689Y0151774D03*
X0256374Y0151774D03*
X0251157Y0151774D03*
X0245941Y0151774D03*
X0241315Y0150298D03*
X0238500Y0146400D03*
X0238500Y0141400D03*
X0241315Y0137502D03*
X0245941Y0136026D03*
X0251157Y0136026D03*
X0256374Y0136026D03*
X0261689Y0136026D03*
X0266315Y0137502D03*
X0269169Y0141439D03*
X0223500Y0141400D03*
X0220685Y0137502D03*
X0216059Y0136026D03*
X0210843Y0136026D03*
X0205528Y0136026D03*
X0200311Y0136026D03*
X0195685Y0137502D03*
X0192831Y0141439D03*
X0192831Y0146361D03*
X0195685Y0150298D03*
X0200311Y0151774D03*
X0205528Y0151774D03*
X0210843Y0151774D03*
X0216059Y0151774D03*
X0220685Y0150298D03*
X0223500Y0146400D03*
X0184169Y0146361D03*
X0181315Y0150298D03*
X0176689Y0151774D03*
X0171374Y0151774D03*
X0166157Y0151774D03*
X0160941Y0151774D03*
X0156315Y0150298D03*
X0153500Y0146400D03*
X0153500Y0141400D03*
X0156315Y0137502D03*
X0160941Y0136026D03*
X0166157Y0136026D03*
X0171374Y0136026D03*
X0176689Y0136026D03*
X0181315Y0137502D03*
X0184169Y0141439D03*
D15*
X0176689Y0143900D02*
X0160941Y0143900D01*
X0200311Y0143900D02*
X0216059Y0143900D01*
X0245941Y0143900D02*
X0261689Y0143900D01*
X0285311Y0143900D02*
X0301059Y0143900D01*
X0330941Y0143900D02*
X0346689Y0143900D01*
X0370311Y0143900D02*
X0386059Y0143900D01*
X0415941Y0143900D02*
X0431689Y0143900D01*
X0455311Y0143900D02*
X0471059Y0143900D01*
D16*
X0451020Y0228152D03*
X0443500Y0228152D03*
X0435980Y0228152D03*
X0366020Y0228152D03*
X0358500Y0228152D03*
X0350980Y0228152D03*
X0281020Y0228152D03*
X0273500Y0228152D03*
X0265980Y0228152D03*
X0196020Y0228152D03*
X0188500Y0228152D03*
X0180980Y0228152D03*
D17*
X0177250Y0155150D02*
X0161000Y0155150D01*
X0159323Y0155024D01*
X0157684Y0154650D01*
X0156119Y0154036D01*
X0154663Y0153195D01*
X0153348Y0152147D01*
X0152204Y0150914D01*
X0151257Y0149525D01*
X0150528Y0148010D01*
X0150032Y0146403D01*
X0149781Y0144741D01*
X0149781Y0143059D01*
X0150032Y0141397D01*
X0150528Y0139790D01*
X0151257Y0138275D01*
X0152204Y0136886D01*
X0153348Y0135653D01*
X0154663Y0134605D01*
X0156119Y0133764D01*
X0157684Y0133150D01*
X0159323Y0132776D01*
X0161000Y0132650D01*
X0177250Y0132650D01*
X0178972Y0132887D01*
X0180638Y0133383D01*
X0182209Y0134128D01*
X0183648Y0135103D01*
X0184922Y0136287D01*
X0186000Y0137650D01*
X0186000Y0150150D01*
X0184902Y0151491D01*
X0183621Y0152658D01*
X0182183Y0153626D01*
X0180619Y0154373D01*
X0178963Y0154885D01*
X0177250Y0155150D01*
X0178363Y0154978D02*
X0159120Y0154978D01*
X0155707Y0153798D02*
X0181822Y0153798D01*
X0183664Y0152619D02*
X0153940Y0152619D01*
X0152691Y0151439D02*
X0184945Y0151439D01*
X0185910Y0150259D02*
X0151758Y0150259D01*
X0151043Y0149080D02*
X0186000Y0149080D01*
X0186000Y0147900D02*
X0150494Y0147900D01*
X0150130Y0146721D02*
X0186000Y0146721D01*
X0186000Y0145541D02*
X0149902Y0145541D01*
X0149781Y0144361D02*
X0186000Y0144361D01*
X0186000Y0143182D02*
X0149781Y0143182D01*
X0149941Y0142002D02*
X0186000Y0142002D01*
X0186000Y0140823D02*
X0150209Y0140823D01*
X0150598Y0139643D02*
X0186000Y0139643D01*
X0186000Y0138463D02*
X0151167Y0138463D01*
X0151933Y0137284D02*
X0185710Y0137284D01*
X0184725Y0136104D02*
X0152930Y0136104D01*
X0154262Y0134924D02*
X0183384Y0134924D01*
X0181400Y0133745D02*
X0156168Y0133745D01*
X0191000Y0137650D02*
X0192098Y0136309D01*
X0193379Y0135142D01*
X0194817Y0134174D01*
X0196381Y0133427D01*
X0198037Y0132915D01*
X0199750Y0132650D01*
X0216000Y0132650D01*
X0217677Y0132776D01*
X0219316Y0133150D01*
X0220881Y0133764D01*
X0222337Y0134605D01*
X0223652Y0135653D01*
X0224796Y0136886D01*
X0225743Y0138275D01*
X0226472Y0139790D01*
X0226968Y0141397D01*
X0227219Y0143059D01*
X0227219Y0144741D01*
X0226968Y0146403D01*
X0226472Y0148010D01*
X0225743Y0149525D01*
X0224796Y0150914D01*
X0223652Y0152147D01*
X0222337Y0153195D01*
X0220881Y0154036D01*
X0219316Y0154650D01*
X0217677Y0155024D01*
X0216000Y0155150D01*
X0199750Y0155150D01*
X0198028Y0154913D01*
X0196362Y0154417D01*
X0194791Y0153672D01*
X0193352Y0152697D01*
X0192078Y0151513D01*
X0191000Y0150150D01*
X0191000Y0137650D01*
X0191300Y0137284D02*
X0225067Y0137284D01*
X0225833Y0138463D02*
X0191000Y0138463D01*
X0191000Y0139643D02*
X0226402Y0139643D01*
X0226791Y0140823D02*
X0191000Y0140823D01*
X0191000Y0142002D02*
X0227059Y0142002D01*
X0227219Y0143182D02*
X0191000Y0143182D01*
X0191000Y0144361D02*
X0227219Y0144361D01*
X0227098Y0145541D02*
X0191000Y0145541D01*
X0191000Y0146721D02*
X0226870Y0146721D01*
X0226506Y0147900D02*
X0191000Y0147900D01*
X0191000Y0149080D02*
X0225957Y0149080D01*
X0225242Y0150259D02*
X0191087Y0150259D01*
X0192020Y0151439D02*
X0224309Y0151439D01*
X0223060Y0152619D02*
X0193268Y0152619D01*
X0195058Y0153798D02*
X0221293Y0153798D01*
X0217880Y0154978D02*
X0198499Y0154978D01*
X0235032Y0146403D02*
X0234781Y0144741D01*
X0234781Y0143059D01*
X0235032Y0141397D01*
X0235528Y0139790D01*
X0236257Y0138275D01*
X0237204Y0136886D01*
X0238348Y0135653D01*
X0239663Y0134605D01*
X0241119Y0133764D01*
X0242684Y0133150D01*
X0244323Y0132776D01*
X0246000Y0132650D01*
X0262250Y0132650D01*
X0263972Y0132887D01*
X0265638Y0133383D01*
X0267209Y0134128D01*
X0268648Y0135103D01*
X0269922Y0136287D01*
X0271000Y0137650D01*
X0271000Y0150150D01*
X0269902Y0151491D01*
X0268621Y0152658D01*
X0267183Y0153626D01*
X0265619Y0154373D01*
X0263963Y0154885D01*
X0262250Y0155150D01*
X0246000Y0155150D01*
X0244323Y0155024D01*
X0242684Y0154650D01*
X0241119Y0154036D01*
X0239663Y0153195D01*
X0238348Y0152147D01*
X0237204Y0150914D01*
X0236257Y0149525D01*
X0235528Y0148010D01*
X0235032Y0146403D01*
X0235130Y0146721D02*
X0271000Y0146721D01*
X0271000Y0147900D02*
X0235494Y0147900D01*
X0236043Y0149080D02*
X0271000Y0149080D01*
X0270910Y0150259D02*
X0236758Y0150259D01*
X0237691Y0151439D02*
X0269945Y0151439D01*
X0268664Y0152619D02*
X0238940Y0152619D01*
X0240707Y0153798D02*
X0266822Y0153798D01*
X0263363Y0154978D02*
X0244120Y0154978D01*
X0234902Y0145541D02*
X0271000Y0145541D01*
X0271000Y0144361D02*
X0234781Y0144361D01*
X0234781Y0143182D02*
X0271000Y0143182D01*
X0271000Y0142002D02*
X0234941Y0142002D01*
X0235209Y0140823D02*
X0271000Y0140823D01*
X0271000Y0139643D02*
X0235598Y0139643D01*
X0236167Y0138463D02*
X0271000Y0138463D01*
X0270710Y0137284D02*
X0236933Y0137284D01*
X0237930Y0136104D02*
X0269725Y0136104D01*
X0268384Y0134924D02*
X0239262Y0134924D01*
X0241168Y0133745D02*
X0266400Y0133745D01*
X0276000Y0137650D02*
X0277098Y0136309D01*
X0278379Y0135142D01*
X0279817Y0134174D01*
X0281381Y0133427D01*
X0283037Y0132915D01*
X0284750Y0132650D01*
X0301000Y0132650D01*
X0302677Y0132776D01*
X0304316Y0133150D01*
X0305881Y0133764D01*
X0307337Y0134605D01*
X0308652Y0135653D01*
X0309796Y0136886D01*
X0310743Y0138275D01*
X0311472Y0139790D01*
X0311968Y0141397D01*
X0312219Y0143059D01*
X0312219Y0144741D01*
X0311968Y0146403D01*
X0311472Y0148010D01*
X0310743Y0149525D01*
X0309796Y0150914D01*
X0308652Y0152147D01*
X0307337Y0153195D01*
X0305881Y0154036D01*
X0304316Y0154650D01*
X0302677Y0155024D01*
X0301000Y0155150D01*
X0284750Y0155150D01*
X0283028Y0154913D01*
X0281362Y0154417D01*
X0279791Y0153672D01*
X0278352Y0152697D01*
X0277078Y0151513D01*
X0276000Y0150150D01*
X0276000Y0137650D01*
X0276300Y0137284D02*
X0310067Y0137284D01*
X0310833Y0138463D02*
X0276000Y0138463D01*
X0276000Y0139643D02*
X0311402Y0139643D01*
X0311791Y0140823D02*
X0276000Y0140823D01*
X0276000Y0142002D02*
X0312059Y0142002D01*
X0312219Y0143182D02*
X0276000Y0143182D01*
X0276000Y0144361D02*
X0312219Y0144361D01*
X0312098Y0145541D02*
X0276000Y0145541D01*
X0276000Y0146721D02*
X0311870Y0146721D01*
X0311506Y0147900D02*
X0276000Y0147900D01*
X0276000Y0149080D02*
X0310957Y0149080D01*
X0310242Y0150259D02*
X0276087Y0150259D01*
X0277020Y0151439D02*
X0309309Y0151439D01*
X0308060Y0152619D02*
X0278268Y0152619D01*
X0280058Y0153798D02*
X0306293Y0153798D01*
X0302880Y0154978D02*
X0283499Y0154978D01*
X0277323Y0136104D02*
X0309070Y0136104D01*
X0307738Y0134924D02*
X0278703Y0134924D01*
X0280716Y0133745D02*
X0305832Y0133745D01*
X0320528Y0139790D02*
X0320032Y0141397D01*
X0319781Y0143059D01*
X0319781Y0144741D01*
X0320032Y0146403D01*
X0320528Y0148010D01*
X0321257Y0149525D01*
X0322204Y0150914D01*
X0323348Y0152147D01*
X0324663Y0153195D01*
X0326119Y0154036D01*
X0327684Y0154650D01*
X0329323Y0155024D01*
X0331000Y0155150D01*
X0347250Y0155150D01*
X0348963Y0154885D01*
X0350619Y0154373D01*
X0352183Y0153626D01*
X0353621Y0152658D01*
X0354902Y0151491D01*
X0356000Y0150150D01*
X0356000Y0137650D01*
X0354922Y0136287D01*
X0353648Y0135103D01*
X0352209Y0134128D01*
X0350638Y0133383D01*
X0348972Y0132887D01*
X0347250Y0132650D01*
X0331000Y0132650D01*
X0329323Y0132776D01*
X0327684Y0133150D01*
X0326119Y0133764D01*
X0324663Y0134605D01*
X0323348Y0135653D01*
X0322204Y0136886D01*
X0321257Y0138275D01*
X0320528Y0139790D01*
X0320598Y0139643D02*
X0356000Y0139643D01*
X0356000Y0140823D02*
X0320209Y0140823D01*
X0319941Y0142002D02*
X0356000Y0142002D01*
X0356000Y0143182D02*
X0319781Y0143182D01*
X0319781Y0144361D02*
X0356000Y0144361D01*
X0356000Y0145541D02*
X0319902Y0145541D01*
X0320130Y0146721D02*
X0356000Y0146721D01*
X0356000Y0147900D02*
X0320494Y0147900D01*
X0321043Y0149080D02*
X0356000Y0149080D01*
X0355910Y0150259D02*
X0321758Y0150259D01*
X0322691Y0151439D02*
X0354945Y0151439D01*
X0353664Y0152619D02*
X0323940Y0152619D01*
X0325707Y0153798D02*
X0351822Y0153798D01*
X0348363Y0154978D02*
X0329120Y0154978D01*
X0321167Y0138463D02*
X0356000Y0138463D01*
X0355710Y0137284D02*
X0321933Y0137284D01*
X0322930Y0136104D02*
X0354725Y0136104D01*
X0353384Y0134924D02*
X0324262Y0134924D01*
X0326168Y0133745D02*
X0351400Y0133745D01*
X0361000Y0137650D02*
X0362098Y0136309D01*
X0363379Y0135142D01*
X0364817Y0134174D01*
X0366381Y0133427D01*
X0368037Y0132915D01*
X0369750Y0132650D01*
X0386000Y0132650D01*
X0387677Y0132776D01*
X0389316Y0133150D01*
X0390881Y0133764D01*
X0392337Y0134605D01*
X0393652Y0135653D01*
X0394796Y0136886D01*
X0395743Y0138275D01*
X0396472Y0139790D01*
X0396968Y0141397D01*
X0397219Y0143059D01*
X0397219Y0144741D01*
X0396968Y0146403D01*
X0396472Y0148010D01*
X0395743Y0149525D01*
X0394796Y0150914D01*
X0393652Y0152147D01*
X0392337Y0153195D01*
X0390881Y0154036D01*
X0389316Y0154650D01*
X0387677Y0155024D01*
X0386000Y0155150D01*
X0369750Y0155150D01*
X0368028Y0154913D01*
X0366362Y0154417D01*
X0364791Y0153672D01*
X0363352Y0152697D01*
X0362078Y0151513D01*
X0361000Y0150150D01*
X0361000Y0137650D01*
X0361300Y0137284D02*
X0395067Y0137284D01*
X0395833Y0138463D02*
X0361000Y0138463D01*
X0361000Y0139643D02*
X0396402Y0139643D01*
X0396791Y0140823D02*
X0361000Y0140823D01*
X0361000Y0142002D02*
X0397059Y0142002D01*
X0397219Y0143182D02*
X0361000Y0143182D01*
X0361000Y0144361D02*
X0397219Y0144361D01*
X0397098Y0145541D02*
X0361000Y0145541D01*
X0361000Y0146721D02*
X0396870Y0146721D01*
X0396506Y0147900D02*
X0361000Y0147900D01*
X0361000Y0149080D02*
X0395957Y0149080D01*
X0395242Y0150259D02*
X0361087Y0150259D01*
X0362020Y0151439D02*
X0394309Y0151439D01*
X0393060Y0152619D02*
X0363268Y0152619D01*
X0365058Y0153798D02*
X0391293Y0153798D01*
X0387880Y0154978D02*
X0368499Y0154978D01*
X0405032Y0146403D02*
X0404781Y0144741D01*
X0404781Y0143059D01*
X0405032Y0141397D01*
X0405528Y0139790D01*
X0406257Y0138275D01*
X0407204Y0136886D01*
X0408348Y0135653D01*
X0409663Y0134605D01*
X0411119Y0133764D01*
X0412684Y0133150D01*
X0414323Y0132776D01*
X0416000Y0132650D01*
X0432250Y0132650D01*
X0433972Y0132887D01*
X0435638Y0133383D01*
X0437209Y0134128D01*
X0438648Y0135103D01*
X0439922Y0136287D01*
X0441000Y0137650D01*
X0441000Y0150150D01*
X0439902Y0151491D01*
X0438621Y0152658D01*
X0437183Y0153626D01*
X0435619Y0154373D01*
X0433963Y0154885D01*
X0432250Y0155150D01*
X0416000Y0155150D01*
X0414323Y0155024D01*
X0412684Y0154650D01*
X0411119Y0154036D01*
X0409663Y0153195D01*
X0408348Y0152147D01*
X0407204Y0150914D01*
X0406257Y0149525D01*
X0405528Y0148010D01*
X0405032Y0146403D01*
X0405130Y0146721D02*
X0441000Y0146721D01*
X0441000Y0147900D02*
X0405494Y0147900D01*
X0406043Y0149080D02*
X0441000Y0149080D01*
X0440910Y0150259D02*
X0406758Y0150259D01*
X0407691Y0151439D02*
X0439945Y0151439D01*
X0438664Y0152619D02*
X0408940Y0152619D01*
X0410707Y0153798D02*
X0436822Y0153798D01*
X0433363Y0154978D02*
X0414120Y0154978D01*
X0404902Y0145541D02*
X0441000Y0145541D01*
X0441000Y0144361D02*
X0404781Y0144361D01*
X0404781Y0143182D02*
X0441000Y0143182D01*
X0441000Y0142002D02*
X0404941Y0142002D01*
X0405209Y0140823D02*
X0441000Y0140823D01*
X0441000Y0139643D02*
X0405598Y0139643D01*
X0406167Y0138463D02*
X0441000Y0138463D01*
X0440710Y0137284D02*
X0406933Y0137284D01*
X0407930Y0136104D02*
X0439725Y0136104D01*
X0438384Y0134924D02*
X0409262Y0134924D01*
X0411168Y0133745D02*
X0436400Y0133745D01*
X0446000Y0137650D02*
X0447098Y0136309D01*
X0448379Y0135142D01*
X0449817Y0134174D01*
X0451381Y0133427D01*
X0453037Y0132915D01*
X0454750Y0132650D01*
X0471000Y0132650D01*
X0472677Y0132776D01*
X0474316Y0133150D01*
X0475881Y0133764D01*
X0477337Y0134605D01*
X0478652Y0135653D01*
X0479796Y0136886D01*
X0480743Y0138275D01*
X0481472Y0139790D01*
X0481968Y0141397D01*
X0482219Y0143059D01*
X0482219Y0144741D01*
X0481968Y0146403D01*
X0481472Y0148010D01*
X0480743Y0149525D01*
X0479796Y0150914D01*
X0478652Y0152147D01*
X0477337Y0153195D01*
X0475881Y0154036D01*
X0474316Y0154650D01*
X0472677Y0155024D01*
X0471000Y0155150D01*
X0454750Y0155150D01*
X0453028Y0154913D01*
X0451362Y0154417D01*
X0449791Y0153672D01*
X0448352Y0152697D01*
X0447078Y0151513D01*
X0446000Y0150150D01*
X0446000Y0137650D01*
X0446300Y0137284D02*
X0480067Y0137284D01*
X0480833Y0138463D02*
X0446000Y0138463D01*
X0446000Y0139643D02*
X0481402Y0139643D01*
X0481791Y0140823D02*
X0446000Y0140823D01*
X0446000Y0142002D02*
X0482059Y0142002D01*
X0482219Y0143182D02*
X0446000Y0143182D01*
X0446000Y0144361D02*
X0482219Y0144361D01*
X0482098Y0145541D02*
X0446000Y0145541D01*
X0446000Y0146721D02*
X0481870Y0146721D01*
X0481506Y0147900D02*
X0446000Y0147900D01*
X0446000Y0149080D02*
X0480957Y0149080D01*
X0480242Y0150259D02*
X0446087Y0150259D01*
X0447020Y0151439D02*
X0479309Y0151439D01*
X0478060Y0152619D02*
X0448268Y0152619D01*
X0450058Y0153798D02*
X0476293Y0153798D01*
X0472880Y0154978D02*
X0453499Y0154978D01*
X0447323Y0136104D02*
X0479070Y0136104D01*
X0477738Y0134924D02*
X0448703Y0134924D01*
X0450716Y0133745D02*
X0475832Y0133745D01*
X0394070Y0136104D02*
X0362323Y0136104D01*
X0363703Y0134924D02*
X0392738Y0134924D01*
X0390832Y0133745D02*
X0365716Y0133745D01*
X0224070Y0136104D02*
X0192323Y0136104D01*
X0193703Y0134924D02*
X0222738Y0134924D01*
X0220832Y0133745D02*
X0195716Y0133745D01*
D18*
X0648500Y0400600D02*
X0648500Y0407200D01*
X0658500Y0407200D02*
X0658500Y0400600D01*
X0668500Y0400600D02*
X0668500Y0407200D01*
D19*
X0475900Y0364900D02*
X0468100Y0364900D01*
X0427900Y0364900D02*
X0420100Y0364900D01*
X0378400Y0364900D02*
X0370600Y0364900D01*
X0330400Y0364900D02*
X0322600Y0364900D01*
X0255900Y0364900D02*
X0248100Y0364900D01*
X0207900Y0364900D02*
X0200100Y0364900D01*
X0199900Y0341400D02*
X0192100Y0341400D01*
X0200100Y0317900D02*
X0207900Y0317900D01*
X0248100Y0317900D02*
X0255900Y0317900D01*
X0322600Y0317900D02*
X0330400Y0317900D01*
X0370600Y0317900D02*
X0378400Y0317900D01*
X0420100Y0317900D02*
X0427900Y0317900D01*
X0468100Y0317900D02*
X0475900Y0317900D01*
X0419900Y0341400D02*
X0412100Y0341400D01*
X0322400Y0341400D02*
X0314600Y0341400D01*
D20*
X0771315Y0371557D02*
X0771315Y0391243D01*
X0810685Y0391243D02*
X0810685Y0371557D01*
D21*
X0801608Y0362942D02*
X0800500Y0364165D01*
X0799577Y0365533D01*
X0798858Y0367018D01*
X0798358Y0368591D01*
X0798087Y0370219D01*
X0798087Y0391872D01*
X0798319Y0393545D01*
X0798787Y0395168D01*
X0799481Y0396708D01*
X0800387Y0398133D01*
X0801487Y0399415D01*
X0802758Y0400527D01*
X0804175Y0401447D01*
X0805707Y0402156D01*
X0807326Y0402639D01*
X0808996Y0402888D01*
X0810685Y0402896D01*
X0812374Y0402888D01*
X0814044Y0402639D01*
X0815663Y0402156D01*
X0817196Y0401447D01*
X0818612Y0400527D01*
X0819883Y0399415D01*
X0820983Y0398133D01*
X0821889Y0396708D01*
X0822583Y0395168D01*
X0823051Y0393545D01*
X0823283Y0391872D01*
X0823283Y0370219D01*
X0823012Y0368591D01*
X0822512Y0367018D01*
X0821793Y0365533D01*
X0820870Y0364165D01*
X0819762Y0362942D01*
X0818491Y0361890D01*
X0817083Y0361029D01*
X0815567Y0360377D01*
X0813973Y0359947D01*
X0812335Y0359749D01*
X0810685Y0359786D01*
X0809035Y0359749D01*
X0807397Y0359947D01*
X0805803Y0360377D01*
X0804287Y0361029D01*
X0802879Y0361890D01*
X0801608Y0362942D01*
X0801665Y0362895D02*
X0819705Y0362895D01*
X0820171Y0363394D02*
X0801199Y0363394D01*
X0800747Y0363892D02*
X0820623Y0363892D01*
X0821022Y0364391D02*
X0800348Y0364391D01*
X0800011Y0364889D02*
X0821359Y0364889D01*
X0821695Y0365388D02*
X0799675Y0365388D01*
X0799406Y0365886D02*
X0821964Y0365886D01*
X0822205Y0366385D02*
X0799165Y0366385D01*
X0798924Y0366883D02*
X0822447Y0366883D01*
X0822628Y0367382D02*
X0798743Y0367382D01*
X0798584Y0367880D02*
X0822786Y0367880D01*
X0822945Y0368379D02*
X0798425Y0368379D01*
X0798310Y0368877D02*
X0823060Y0368877D01*
X0823143Y0369376D02*
X0798227Y0369376D01*
X0798144Y0369874D02*
X0823226Y0369874D01*
X0823283Y0370373D02*
X0798087Y0370373D01*
X0798087Y0370871D02*
X0823283Y0370871D01*
X0823283Y0371370D02*
X0798087Y0371370D01*
X0798087Y0371868D02*
X0823283Y0371868D01*
X0823283Y0372367D02*
X0798087Y0372367D01*
X0798087Y0372865D02*
X0823283Y0372865D01*
X0823283Y0373364D02*
X0798087Y0373364D01*
X0798087Y0373862D02*
X0823283Y0373862D01*
X0823283Y0374361D02*
X0798087Y0374361D01*
X0798087Y0374859D02*
X0823283Y0374859D01*
X0823283Y0375358D02*
X0798087Y0375358D01*
X0798087Y0375856D02*
X0823283Y0375856D01*
X0823283Y0376355D02*
X0798087Y0376355D01*
X0798087Y0376853D02*
X0823283Y0376853D01*
X0823283Y0377352D02*
X0798087Y0377352D01*
X0798087Y0377850D02*
X0823283Y0377850D01*
X0823283Y0378349D02*
X0798087Y0378349D01*
X0798087Y0378848D02*
X0823283Y0378848D01*
X0823283Y0379346D02*
X0798087Y0379346D01*
X0798087Y0379845D02*
X0823283Y0379845D01*
X0823283Y0380343D02*
X0798087Y0380343D01*
X0798087Y0380842D02*
X0823283Y0380842D01*
X0823283Y0381340D02*
X0798087Y0381340D01*
X0798087Y0381839D02*
X0823283Y0381839D01*
X0823283Y0382337D02*
X0798087Y0382337D01*
X0798087Y0382836D02*
X0823283Y0382836D01*
X0823283Y0383334D02*
X0798087Y0383334D01*
X0798087Y0383833D02*
X0823283Y0383833D01*
X0823283Y0384331D02*
X0798087Y0384331D01*
X0798087Y0384830D02*
X0823283Y0384830D01*
X0823283Y0385328D02*
X0798087Y0385328D01*
X0798087Y0385827D02*
X0823283Y0385827D01*
X0823283Y0386325D02*
X0798087Y0386325D01*
X0798087Y0386824D02*
X0823283Y0386824D01*
X0823283Y0387322D02*
X0798087Y0387322D01*
X0798087Y0387821D02*
X0823283Y0387821D01*
X0823283Y0388319D02*
X0798087Y0388319D01*
X0798087Y0388818D02*
X0823283Y0388818D01*
X0823283Y0389316D02*
X0798087Y0389316D01*
X0798087Y0389815D02*
X0823283Y0389815D01*
X0823283Y0390313D02*
X0798087Y0390313D01*
X0798087Y0390812D02*
X0823283Y0390812D01*
X0823283Y0391310D02*
X0798087Y0391310D01*
X0798087Y0391809D02*
X0823283Y0391809D01*
X0823223Y0392307D02*
X0798147Y0392307D01*
X0798216Y0392806D02*
X0823154Y0392806D01*
X0823085Y0393304D02*
X0798285Y0393304D01*
X0798393Y0393803D02*
X0822977Y0393803D01*
X0822833Y0394301D02*
X0798537Y0394301D01*
X0798681Y0394800D02*
X0822689Y0394800D01*
X0822524Y0395298D02*
X0798846Y0395298D01*
X0799070Y0395797D02*
X0822300Y0395797D01*
X0822075Y0396295D02*
X0799295Y0396295D01*
X0799536Y0396794D02*
X0821834Y0396794D01*
X0821517Y0397292D02*
X0799853Y0397292D01*
X0800170Y0397791D02*
X0821200Y0397791D01*
X0820849Y0398289D02*
X0800522Y0398289D01*
X0800949Y0398788D02*
X0820421Y0398788D01*
X0819993Y0399286D02*
X0801377Y0399286D01*
X0801910Y0399785D02*
X0819460Y0399785D01*
X0818890Y0400283D02*
X0802480Y0400283D01*
X0803151Y0400782D02*
X0818219Y0400782D01*
X0817452Y0401281D02*
X0803918Y0401281D01*
X0804893Y0401779D02*
X0816477Y0401779D01*
X0815255Y0402278D02*
X0806115Y0402278D01*
X0808244Y0402776D02*
X0813126Y0402776D01*
X0783463Y0394301D02*
X0759167Y0394301D01*
X0759023Y0393803D02*
X0783607Y0393803D01*
X0783681Y0393545D02*
X0783913Y0391872D01*
X0783913Y0370219D01*
X0783642Y0368591D01*
X0783142Y0367018D01*
X0782423Y0365533D01*
X0781500Y0364165D01*
X0780392Y0362942D01*
X0779121Y0361890D01*
X0777713Y0361029D01*
X0776197Y0360377D01*
X0774603Y0359947D01*
X0772965Y0359749D01*
X0771315Y0359786D01*
X0769665Y0359749D01*
X0768027Y0359947D01*
X0766433Y0360377D01*
X0764917Y0361029D01*
X0763509Y0361890D01*
X0762238Y0362942D01*
X0761130Y0364165D01*
X0760207Y0365533D01*
X0759488Y0367018D01*
X0758988Y0368591D01*
X0758717Y0370219D01*
X0758717Y0391872D01*
X0758949Y0393545D01*
X0759417Y0395168D01*
X0760111Y0396708D01*
X0761017Y0398133D01*
X0762117Y0399415D01*
X0763388Y0400527D01*
X0764804Y0401447D01*
X0766337Y0402156D01*
X0767956Y0402639D01*
X0769626Y0402888D01*
X0771315Y0402896D01*
X0773004Y0402888D01*
X0774674Y0402639D01*
X0776293Y0402156D01*
X0777825Y0401447D01*
X0779242Y0400527D01*
X0780513Y0399415D01*
X0781613Y0398133D01*
X0782519Y0396708D01*
X0783213Y0395168D01*
X0783681Y0393545D01*
X0783715Y0393304D02*
X0758915Y0393304D01*
X0758846Y0392806D02*
X0783784Y0392806D01*
X0783853Y0392307D02*
X0758777Y0392307D01*
X0758717Y0391809D02*
X0783913Y0391809D01*
X0783913Y0391310D02*
X0758717Y0391310D01*
X0758717Y0390812D02*
X0783913Y0390812D01*
X0783913Y0390313D02*
X0758717Y0390313D01*
X0758717Y0389815D02*
X0783913Y0389815D01*
X0783913Y0389316D02*
X0758717Y0389316D01*
X0758717Y0388818D02*
X0783913Y0388818D01*
X0783913Y0388319D02*
X0758717Y0388319D01*
X0758717Y0387821D02*
X0783913Y0387821D01*
X0783913Y0387322D02*
X0758717Y0387322D01*
X0758717Y0386824D02*
X0783913Y0386824D01*
X0783913Y0386325D02*
X0758717Y0386325D01*
X0758717Y0385827D02*
X0783913Y0385827D01*
X0783913Y0385328D02*
X0758717Y0385328D01*
X0758717Y0384830D02*
X0783913Y0384830D01*
X0783913Y0384331D02*
X0758717Y0384331D01*
X0758717Y0383833D02*
X0783913Y0383833D01*
X0783913Y0383334D02*
X0758717Y0383334D01*
X0758717Y0382836D02*
X0783913Y0382836D01*
X0783913Y0382337D02*
X0758717Y0382337D01*
X0758717Y0381839D02*
X0783913Y0381839D01*
X0783913Y0381340D02*
X0758717Y0381340D01*
X0758717Y0380842D02*
X0783913Y0380842D01*
X0783913Y0380343D02*
X0758717Y0380343D01*
X0758717Y0379845D02*
X0783913Y0379845D01*
X0783913Y0379346D02*
X0758717Y0379346D01*
X0758717Y0378848D02*
X0783913Y0378848D01*
X0783913Y0378349D02*
X0758717Y0378349D01*
X0758717Y0377850D02*
X0783913Y0377850D01*
X0783913Y0377352D02*
X0758717Y0377352D01*
X0758717Y0376853D02*
X0783913Y0376853D01*
X0783913Y0376355D02*
X0758717Y0376355D01*
X0758717Y0375856D02*
X0783913Y0375856D01*
X0783913Y0375358D02*
X0758717Y0375358D01*
X0758717Y0374859D02*
X0783913Y0374859D01*
X0783913Y0374361D02*
X0758717Y0374361D01*
X0758717Y0373862D02*
X0783913Y0373862D01*
X0783913Y0373364D02*
X0758717Y0373364D01*
X0758717Y0372865D02*
X0783913Y0372865D01*
X0783913Y0372367D02*
X0758717Y0372367D01*
X0758717Y0371868D02*
X0783913Y0371868D01*
X0783913Y0371370D02*
X0758717Y0371370D01*
X0758717Y0370871D02*
X0783913Y0370871D01*
X0783913Y0370373D02*
X0758717Y0370373D01*
X0758774Y0369874D02*
X0783856Y0369874D01*
X0783773Y0369376D02*
X0758857Y0369376D01*
X0758940Y0368877D02*
X0783690Y0368877D01*
X0783575Y0368379D02*
X0759055Y0368379D01*
X0759214Y0367880D02*
X0783416Y0367880D01*
X0783257Y0367382D02*
X0759372Y0367382D01*
X0759553Y0366883D02*
X0783076Y0366883D01*
X0782835Y0366385D02*
X0759795Y0366385D01*
X0760036Y0365886D02*
X0782594Y0365886D01*
X0782325Y0365388D02*
X0760305Y0365388D01*
X0760641Y0364889D02*
X0781989Y0364889D01*
X0781652Y0364391D02*
X0760978Y0364391D01*
X0761377Y0363892D02*
X0781253Y0363892D01*
X0780801Y0363394D02*
X0761829Y0363394D01*
X0762295Y0362895D02*
X0780335Y0362895D01*
X0779733Y0362397D02*
X0762897Y0362397D01*
X0763499Y0361898D02*
X0779131Y0361898D01*
X0778319Y0361400D02*
X0764310Y0361400D01*
X0765214Y0360901D02*
X0777416Y0360901D01*
X0776257Y0360403D02*
X0766373Y0360403D01*
X0768384Y0359904D02*
X0774246Y0359904D01*
X0802267Y0362397D02*
X0819103Y0362397D01*
X0818501Y0361898D02*
X0802869Y0361898D01*
X0803681Y0361400D02*
X0817690Y0361400D01*
X0816786Y0360901D02*
X0804584Y0360901D01*
X0805743Y0360403D02*
X0815627Y0360403D01*
X0813616Y0359904D02*
X0807754Y0359904D01*
X0783319Y0394800D02*
X0759311Y0394800D01*
X0759476Y0395298D02*
X0783154Y0395298D01*
X0782930Y0395797D02*
X0759700Y0395797D01*
X0759925Y0396295D02*
X0782705Y0396295D01*
X0782464Y0396794D02*
X0760166Y0396794D01*
X0760483Y0397292D02*
X0782147Y0397292D01*
X0781830Y0397791D02*
X0760800Y0397791D01*
X0761151Y0398289D02*
X0781478Y0398289D01*
X0781051Y0398788D02*
X0761579Y0398788D01*
X0762007Y0399286D02*
X0780623Y0399286D01*
X0780090Y0399785D02*
X0762540Y0399785D01*
X0763110Y0400283D02*
X0779520Y0400283D01*
X0778849Y0400782D02*
X0763781Y0400782D01*
X0764548Y0401281D02*
X0778081Y0401281D01*
X0777107Y0401779D02*
X0765523Y0401779D01*
X0766745Y0402278D02*
X0775885Y0402278D01*
X0773756Y0402776D02*
X0768874Y0402776D01*
D22*
X0511000Y0433900D03*
X0511000Y0443900D03*
X0481000Y0443900D03*
X0481000Y0433900D03*
X0378500Y0433900D03*
X0378500Y0443900D03*
X0348500Y0443900D03*
X0348500Y0433900D03*
X0236000Y0433900D03*
X0236000Y0443900D03*
X0206000Y0443900D03*
X0206000Y0433900D03*
X0121000Y0131400D03*
X0121000Y0121400D03*
X0091000Y0121400D03*
X0091000Y0131400D03*
D23*
X0081000Y0131400D03*
X0081000Y0141400D03*
X0081000Y0153900D03*
X0081000Y0163900D03*
X0121000Y0163900D03*
X0121000Y0153900D03*
X0121000Y0141400D03*
X0131000Y0111400D03*
X0131000Y0101400D03*
X0091000Y0101400D03*
X0091000Y0111400D03*
X0081000Y0091400D03*
X0168500Y0228900D03*
X0253500Y0228900D03*
X0253500Y0258900D03*
X0168500Y0258900D03*
X0338500Y0258900D03*
X0338500Y0228900D03*
X0423500Y0228900D03*
X0423500Y0258900D03*
X0486000Y0261400D03*
X0526000Y0261400D03*
X0526000Y0278900D03*
X0486000Y0278900D03*
X0653500Y0326400D03*
X0653500Y0343900D03*
X0693500Y0343900D03*
X0693500Y0326400D03*
X0868500Y0311400D03*
X0933500Y0301400D03*
X0968500Y0313900D03*
X1033500Y0301400D03*
X1068500Y0311400D03*
X1133500Y0301400D03*
X1171000Y0311400D03*
X1233500Y0301400D03*
X1271000Y0313900D03*
X1333500Y0301400D03*
X1368500Y0311400D03*
X1433500Y0301400D03*
X1433500Y0261400D03*
X1333500Y0261400D03*
X1233500Y0261400D03*
X1133500Y0261400D03*
X1033500Y0261400D03*
X0933500Y0261400D03*
X0968500Y0353900D03*
X0868500Y0351400D03*
X1068500Y0351400D03*
X1171000Y0351400D03*
X1271000Y0353900D03*
X1368500Y0351400D03*
X0536000Y0416400D03*
X0521000Y0411400D03*
X0521000Y0398900D03*
X0481000Y0398900D03*
X0481000Y0411400D03*
X0466000Y0413900D03*
X0456000Y0413900D03*
X0481000Y0423900D03*
X0521000Y0423900D03*
X0466000Y0453900D03*
X0456000Y0453900D03*
X0406000Y0456400D03*
X0331000Y0453900D03*
X0316000Y0453900D03*
X0261000Y0458900D03*
X0188500Y0453900D03*
X0176000Y0453900D03*
X0206000Y0423900D03*
X0188500Y0413900D03*
X0176000Y0413900D03*
X0206000Y0411400D03*
X0206000Y0401400D03*
X0246000Y0401400D03*
X0246000Y0411400D03*
X0261000Y0418900D03*
X0246000Y0423900D03*
X0316000Y0413900D03*
X0331000Y0413900D03*
X0348500Y0411400D03*
X0348500Y0401400D03*
X0388500Y0401400D03*
X0388500Y0411400D03*
X0406000Y0416400D03*
X0388500Y0423900D03*
X0348500Y0423900D03*
X0536000Y0456400D03*
D24*
X0551000Y0456500D02*
X0551000Y0451300D01*
X0551000Y0426500D02*
X0551000Y0421300D01*
X0421000Y0421300D02*
X0421000Y0426500D01*
X0421000Y0451300D02*
X0421000Y0456500D01*
X0276000Y0459000D02*
X0276000Y0453800D01*
X0276000Y0429000D02*
X0276000Y0423800D01*
X0888500Y0351500D02*
X0888500Y0346300D01*
X0888500Y0321500D02*
X0888500Y0316300D01*
X0988500Y0316300D02*
X0988500Y0321500D01*
X0988500Y0346300D02*
X0988500Y0351500D01*
X1088500Y0351500D02*
X1088500Y0346300D01*
X1088500Y0321500D02*
X1088500Y0316300D01*
X1188500Y0316300D02*
X1188500Y0321500D01*
X1188500Y0346300D02*
X1188500Y0351500D01*
X1288500Y0351500D02*
X1288500Y0346300D01*
X1288500Y0321500D02*
X1288500Y0316300D01*
X1388500Y0316300D02*
X1388500Y0321500D01*
X1388500Y0346300D02*
X1388500Y0351500D01*
X0068500Y0134000D02*
X0068500Y0128800D01*
X0068500Y0104000D02*
X0068500Y0098800D01*
D25*
X0696000Y0303400D02*
X0696000Y0309400D01*
X0706000Y0309400D02*
X0706000Y0303400D01*
X0716000Y0303400D02*
X0716000Y0309400D01*
X0726000Y0309400D02*
X0726000Y0303400D01*
D26*
X0848500Y0301400D03*
X0858500Y0301400D03*
X0868500Y0301400D03*
X0878500Y0301400D03*
X0888500Y0301400D03*
X0898500Y0301400D03*
X0908500Y0301400D03*
X0948500Y0301400D03*
X0958500Y0301400D03*
X0968500Y0301400D03*
X0978500Y0301400D03*
X0988500Y0301400D03*
X0998500Y0301400D03*
X1008500Y0301400D03*
X1048500Y0301400D03*
X1058500Y0301400D03*
X1068500Y0301400D03*
X1078500Y0301400D03*
X1088500Y0301400D03*
X1098500Y0301400D03*
X1108500Y0301400D03*
X1148500Y0301400D03*
X1158500Y0301400D03*
X1168500Y0301400D03*
X1178500Y0301400D03*
X1188500Y0301400D03*
X1198500Y0301400D03*
X1208500Y0301400D03*
X1248500Y0301400D03*
X1258500Y0301400D03*
X1268500Y0301400D03*
X1278500Y0301400D03*
X1288500Y0301400D03*
X1298500Y0301400D03*
X1308500Y0301400D03*
X1348500Y0301400D03*
X1358500Y0301400D03*
X1368500Y0301400D03*
X1378500Y0301400D03*
X1388500Y0301400D03*
X1398500Y0301400D03*
X1408500Y0301400D03*
X1418500Y0281400D03*
X1318500Y0281400D03*
X1218500Y0281400D03*
X1118500Y0281400D03*
X1018500Y0281400D03*
X0918500Y0281400D03*
X0898500Y0186400D03*
X0888500Y0186400D03*
X0878500Y0186400D03*
X0868500Y0186400D03*
X0858500Y0186400D03*
X0848500Y0186400D03*
X0948500Y0186400D03*
X0958500Y0186400D03*
X0968500Y0186400D03*
X0978500Y0186400D03*
X0988500Y0186400D03*
X0998500Y0186400D03*
X1048500Y0186400D03*
X1058500Y0186400D03*
X1068500Y0186400D03*
X1078500Y0186400D03*
X1088500Y0186400D03*
X1098500Y0186400D03*
X1148500Y0186400D03*
X1158500Y0186400D03*
X1168500Y0186400D03*
X1178500Y0186400D03*
X1188500Y0186400D03*
X1198500Y0186400D03*
X1248500Y0186400D03*
X1258500Y0186400D03*
X1268500Y0186400D03*
X1278500Y0186400D03*
X1288500Y0186400D03*
X1298500Y0186400D03*
X1348500Y0186400D03*
X1358500Y0186400D03*
X1368500Y0186400D03*
X1378500Y0186400D03*
X1388500Y0186400D03*
X1398500Y0186400D03*
D27*
X1408500Y0186400D03*
X1418500Y0186400D03*
X1318500Y0186400D03*
X1308500Y0186400D03*
X1218500Y0186400D03*
X1208500Y0186400D03*
X1118500Y0186400D03*
X1108500Y0186400D03*
X1018500Y0186400D03*
X1008500Y0186400D03*
X0918500Y0186400D03*
X0908500Y0186400D03*
X0918500Y0291400D03*
X0918500Y0301400D03*
X1018500Y0301400D03*
X1018500Y0291400D03*
X1118500Y0291400D03*
X1118500Y0301400D03*
X1218500Y0301400D03*
X1218500Y0291400D03*
X1318500Y0291400D03*
X1318500Y0301400D03*
X1418500Y0301400D03*
X1418500Y0291400D03*
D28*
X0101000Y0211400D03*
X0061000Y0211400D03*
D29*
X0046000Y0261400D03*
X0116000Y0271400D03*
D30*
X0292398Y0110652D03*
X0314839Y0110652D03*
X0337280Y0110652D03*
X0359720Y0110652D03*
X0382161Y0110652D03*
X0404602Y0110652D03*
X0404602Y0088998D03*
X0382161Y0088998D03*
X0359720Y0088998D03*
X0337280Y0088998D03*
X0314839Y0088998D03*
X0292398Y0088998D03*
X1097398Y0088998D03*
X1119839Y0088998D03*
X1142280Y0088998D03*
X1164720Y0088998D03*
X1187161Y0088998D03*
X1209602Y0088998D03*
X1209602Y0110652D03*
X1187161Y0110652D03*
X1164720Y0110652D03*
X1142280Y0110652D03*
X1119839Y0110652D03*
X1097398Y0110652D03*
D31*
X1364740Y0443723D03*
X1415724Y0443723D03*
X0132535Y0443723D03*
X0081551Y0443723D03*
D32*
X0108323Y0437424D03*
X1391512Y0437424D03*
D33*
X0568500Y0291400D03*
X0568500Y0281400D03*
X0538500Y0281400D03*
X0538500Y0291400D03*
X0538500Y0271400D03*
X0538500Y0261400D03*
X0568500Y0261400D03*
X0568500Y0271400D03*
D34*
X0578500Y0281400D02*
X0581000Y0278900D01*
X0581000Y0178900D01*
X0583500Y0176400D01*
X0601000Y0176400D01*
X0553500Y0191400D02*
X0553500Y0258900D01*
X0551000Y0261400D01*
X0538500Y0261400D01*
X0568500Y0281400D02*
X0578500Y0281400D01*
X0601000Y0276400D02*
X0601000Y0323900D01*
X0603500Y0326400D01*
X0633500Y0326400D01*
X0673500Y0303900D02*
X0676000Y0306400D01*
X0696000Y0306400D01*
X0706000Y0306400D02*
X0706000Y0298900D01*
X0703500Y0296400D01*
X0681000Y0296400D01*
X0678500Y0293900D01*
X0678500Y0161400D01*
X0673500Y0161400D02*
X0673500Y0303900D01*
X0781000Y0338900D02*
X0781000Y0153900D01*
X0784500Y0150400D01*
X0791000Y0150400D01*
X0791000Y0160400D02*
X0800000Y0160400D01*
X0803500Y0163900D01*
X0803500Y0166400D01*
X0811000Y0173900D01*
X0811000Y0203900D01*
X0823500Y0216400D01*
X0823500Y0246400D01*
X0826000Y0248900D01*
X0921000Y0248900D01*
X0926000Y0253900D01*
X1396000Y0253900D01*
X1398500Y0256400D01*
X1398500Y0301400D01*
X1298500Y0301400D02*
X1298500Y0276400D01*
X1296000Y0273900D01*
X1206000Y0273900D01*
X1203500Y0271400D01*
X1203500Y0263900D01*
X1196000Y0256400D01*
X0921000Y0256400D01*
X0918500Y0253900D01*
X0823500Y0253900D01*
X0821000Y0251400D01*
X0821000Y0218900D01*
X0806000Y0203900D01*
X0806000Y0173900D01*
X0802500Y0170400D01*
X0791000Y0170400D01*
X0791000Y0180400D02*
X0792000Y0181400D01*
X0801000Y0181400D01*
X0803500Y0183900D01*
X0803500Y0206400D01*
X0816000Y0218900D01*
X0816000Y0256400D01*
X0818500Y0258900D01*
X0911000Y0258900D01*
X0918500Y0266400D01*
X1196000Y0266400D01*
X1198500Y0268900D01*
X1198500Y0301400D01*
X1098500Y0301400D02*
X1098500Y0271400D01*
X1096000Y0268900D01*
X0911000Y0268900D01*
X0906000Y0263900D01*
X0813500Y0263900D01*
X0811000Y0261400D01*
X0811000Y0221400D01*
X0806000Y0216400D01*
X0791000Y0216400D01*
X0791000Y0226400D02*
X0803500Y0226400D01*
X0806000Y0228900D01*
X0806000Y0266400D01*
X0808500Y0268900D01*
X0901000Y0268900D01*
X0906000Y0273900D01*
X0996000Y0273900D01*
X0998500Y0276400D01*
X0998500Y0301400D01*
X0898500Y0301400D02*
X0898500Y0273900D01*
X0803500Y0273900D01*
X0801000Y0271400D01*
X0801000Y0248900D01*
X0798500Y0246400D01*
X0791000Y0246400D01*
X0776000Y0346400D02*
X0776000Y0143900D01*
X0779500Y0140400D01*
X0791000Y0140400D01*
X0443500Y0191400D02*
X0443500Y0228152D01*
D35*
X0191000Y0132204D02*
X0191000Y0032000D01*
X0866600Y0032000D01*
X0868500Y0033900D01*
X0868500Y0107580D01*
X0865842Y0108681D01*
X0863342Y0111181D01*
X0863342Y0111181D01*
X0860781Y0113742D01*
X0859394Y0117089D01*
X0859394Y0180872D01*
X0858941Y0180800D01*
X0858500Y0180800D01*
X0858500Y0186400D01*
X0858500Y0186400D01*
X0858500Y0192000D01*
X0858941Y0192000D01*
X0859811Y0191862D01*
X0860650Y0191590D01*
X0860769Y0191529D01*
X0860781Y0191558D01*
X0863342Y0194119D01*
X0866689Y0195505D01*
X0870311Y0195505D01*
X0873658Y0194119D01*
X0873877Y0193900D01*
X0931000Y0193900D01*
X0931000Y0178900D01*
X0933500Y0176400D01*
X0959394Y0176400D01*
X0959394Y0180872D01*
X0958941Y0180800D01*
X0958500Y0180800D01*
X0958500Y0186400D01*
X0958500Y0186400D01*
X0958500Y0192000D01*
X0958941Y0192000D01*
X0959811Y0191862D01*
X0960650Y0191590D01*
X0960769Y0191529D01*
X0960781Y0191558D01*
X0963342Y0194119D01*
X0966689Y0195505D01*
X0970311Y0195505D01*
X0973658Y0194119D01*
X0973877Y0193900D01*
X1031000Y0193900D01*
X1031000Y0178900D01*
X1036000Y0176400D01*
X1059394Y0176400D01*
X1059394Y0180872D01*
X1058941Y0180800D01*
X1058500Y0180800D01*
X1058500Y0186400D01*
X1058500Y0186400D01*
X1058500Y0192000D01*
X1058941Y0192000D01*
X1059811Y0191862D01*
X1060650Y0191590D01*
X1060769Y0191529D01*
X1060781Y0191558D01*
X1063342Y0194119D01*
X1066689Y0195505D01*
X1070311Y0195505D01*
X1073658Y0194119D01*
X1073877Y0193900D01*
X1128500Y0193900D01*
X1128500Y0178900D01*
X1136000Y0176400D01*
X1159394Y0176400D01*
X1159394Y0180872D01*
X1158941Y0180800D01*
X1158500Y0180800D01*
X1158500Y0186400D01*
X1158500Y0186400D01*
X1158500Y0192000D01*
X1158941Y0192000D01*
X1159811Y0191862D01*
X1160650Y0191590D01*
X1160769Y0191529D01*
X1160781Y0191558D01*
X1163342Y0194119D01*
X1166689Y0195505D01*
X1170311Y0195505D01*
X1173658Y0194119D01*
X1173877Y0193900D01*
X1231000Y0193900D01*
X1231000Y0178900D01*
X1236000Y0176400D01*
X1259394Y0176400D01*
X1259394Y0180872D01*
X1258941Y0180800D01*
X1258500Y0180800D01*
X1258500Y0186400D01*
X1258500Y0186400D01*
X1258500Y0192000D01*
X1258941Y0192000D01*
X1259811Y0191862D01*
X1260650Y0191590D01*
X1260769Y0191529D01*
X1260781Y0191558D01*
X1263342Y0194119D01*
X1266689Y0195505D01*
X1270311Y0195505D01*
X1273658Y0194119D01*
X1273877Y0193900D01*
X1331000Y0193900D01*
X1331000Y0178900D01*
X1336000Y0176400D01*
X1358123Y0176400D01*
X1359394Y0177672D01*
X1359394Y0180872D01*
X1358941Y0180800D01*
X1358500Y0180800D01*
X1358500Y0186400D01*
X1358500Y0186400D01*
X1358500Y0192000D01*
X1358941Y0192000D01*
X1359811Y0191862D01*
X1360650Y0191590D01*
X1360769Y0191529D01*
X1360781Y0191558D01*
X1363342Y0194119D01*
X1363500Y0194185D01*
X1363500Y0243900D01*
X1357500Y0249900D01*
X0927657Y0249900D01*
X0923266Y0245509D01*
X0921796Y0244900D01*
X0827657Y0244900D01*
X0827500Y0244743D01*
X0827500Y0215604D01*
X0826891Y0214134D01*
X0825766Y0213009D01*
X0815000Y0202243D01*
X0815000Y0173104D01*
X0814391Y0171634D01*
X0813266Y0170509D01*
X0807500Y0164743D01*
X0807500Y0163104D01*
X0806891Y0161634D01*
X0805766Y0160509D01*
X0802266Y0157009D01*
X0801000Y0156485D01*
X0801000Y0098900D01*
X0798500Y0096400D01*
X0797379Y0096400D01*
X0798276Y0095882D01*
X0800482Y0093676D01*
X0802042Y0090974D01*
X0802850Y0087960D01*
X0802850Y0084840D01*
X0802042Y0081826D01*
X0800482Y0079124D01*
X0798276Y0076918D01*
X0795574Y0075358D01*
X0792560Y0074550D01*
X0789440Y0074550D01*
X0786426Y0075358D01*
X0783724Y0076918D01*
X0781518Y0079124D01*
X0779958Y0081826D01*
X0779150Y0084840D01*
X0779150Y0087960D01*
X0779958Y0090974D01*
X0781518Y0093676D01*
X0783724Y0095882D01*
X0784621Y0096400D01*
X0518500Y0096400D01*
X0506000Y0083900D01*
X0413117Y0083900D01*
X0413117Y0083047D01*
X0412630Y0081871D01*
X0411730Y0080971D01*
X0410554Y0080483D01*
X0398651Y0080483D01*
X0397475Y0080971D01*
X0396575Y0081871D01*
X0396087Y0083047D01*
X0396087Y0083900D01*
X0390676Y0083900D01*
X0390676Y0083047D01*
X0390189Y0081871D01*
X0389289Y0080971D01*
X0388113Y0080483D01*
X0376210Y0080483D01*
X0375034Y0080971D01*
X0374134Y0081871D01*
X0373646Y0083047D01*
X0373646Y0083900D01*
X0368235Y0083900D01*
X0368235Y0083047D01*
X0367748Y0081871D01*
X0366848Y0080971D01*
X0365672Y0080483D01*
X0353769Y0080483D01*
X0352593Y0080971D01*
X0351693Y0081871D01*
X0351206Y0083047D01*
X0351206Y0083900D01*
X0345794Y0083900D01*
X0345794Y0083047D01*
X0345307Y0081871D01*
X0344407Y0080971D01*
X0343231Y0080483D01*
X0331328Y0080483D01*
X0330152Y0080971D01*
X0329252Y0081871D01*
X0328765Y0083047D01*
X0328765Y0083900D01*
X0323354Y0083900D01*
X0323354Y0083047D01*
X0322866Y0081871D01*
X0321966Y0080971D01*
X0320790Y0080483D01*
X0308887Y0080483D01*
X0307711Y0080971D01*
X0306811Y0081871D01*
X0306324Y0083047D01*
X0306324Y0083900D01*
X0300913Y0083900D01*
X0300913Y0083047D01*
X0300425Y0081871D01*
X0299525Y0080971D01*
X0298349Y0080483D01*
X0286446Y0080483D01*
X0285270Y0080971D01*
X0284370Y0081871D01*
X0283883Y0083047D01*
X0283883Y0083900D01*
X0236000Y0083900D01*
X0236000Y0132611D01*
X0235763Y0132867D01*
X0235395Y0133160D01*
X0235254Y0133414D01*
X0234741Y0133968D01*
X0234497Y0134127D01*
X0234233Y0134516D01*
X0233913Y0134860D01*
X0233812Y0135133D01*
X0233386Y0135757D01*
X0233169Y0135951D01*
X0232965Y0136374D01*
X0232701Y0136763D01*
X0232641Y0137048D01*
X0232313Y0137728D01*
X0232128Y0137952D01*
X0231989Y0138401D01*
X0231785Y0138825D01*
X0231769Y0139115D01*
X0231546Y0139837D01*
X0231396Y0140086D01*
X0231326Y0140551D01*
X0231188Y0141000D01*
X0231215Y0141290D01*
X0231102Y0142036D01*
X0230991Y0142305D01*
X0230991Y0142775D01*
X0230921Y0143240D01*
X0230991Y0143522D01*
X0230991Y0144278D01*
X0230921Y0144560D01*
X0230991Y0145025D01*
X0230991Y0145495D01*
X0231102Y0145763D01*
X0231215Y0146510D01*
X0231188Y0146800D01*
X0231326Y0147249D01*
X0231396Y0147714D01*
X0231546Y0147963D01*
X0231769Y0148685D01*
X0231785Y0148975D01*
X0231989Y0149399D01*
X0232128Y0149848D01*
X0232313Y0150072D01*
X0232641Y0150752D01*
X0232701Y0151037D01*
X0232965Y0151426D01*
X0233169Y0151849D01*
X0233386Y0152043D01*
X0233812Y0152667D01*
X0233913Y0152940D01*
X0234233Y0153284D01*
X0234497Y0153673D01*
X0234741Y0153832D01*
X0235254Y0154386D01*
X0235395Y0154640D01*
X0235763Y0154933D01*
X0236000Y0155189D01*
X0236000Y0163900D01*
X0231000Y0166400D01*
X0191000Y0166400D01*
X0191000Y0155596D01*
X0191563Y0155363D01*
X0191570Y0155356D01*
X0191947Y0155656D01*
X0193199Y0156459D01*
X0194525Y0157129D01*
X0195914Y0157662D01*
X0197349Y0158050D01*
X0198816Y0158290D01*
X0199341Y0158322D01*
X0199436Y0158341D01*
X0199654Y0158341D01*
X0199872Y0158354D01*
X0199967Y0158341D01*
X0216732Y0158341D01*
X0218190Y0158192D01*
X0219624Y0157898D01*
X0221022Y0157459D01*
X0222368Y0156881D01*
X0223500Y0156253D01*
X0223500Y0153919D01*
X0223500Y0153919D01*
X0223500Y0156253D01*
X0223648Y0156171D01*
X0224851Y0155334D01*
X0224851Y0155334D01*
X0225962Y0154380D01*
X0225962Y0154380D01*
X0226971Y0153318D01*
X0227867Y0152160D01*
X0227867Y0152160D01*
X0228642Y0150917D01*
X0228642Y0150917D01*
X0229287Y0149602D01*
X0229287Y0149602D01*
X0229796Y0148229D01*
X0229796Y0148229D01*
X0230163Y0146811D01*
X0230163Y0146811D01*
X0230385Y0145363D01*
X0230385Y0145363D01*
X0230459Y0143900D01*
X0230459Y0143900D01*
X0230385Y0142437D01*
X0230385Y0142437D01*
X0230226Y0141400D01*
X0226232Y0141400D01*
X0226232Y0141400D01*
X0230226Y0141400D01*
X0230163Y0140989D01*
X0230163Y0140989D01*
X0229933Y0140101D01*
X0229796Y0139571D01*
X0229796Y0139571D01*
X0229450Y0138638D01*
X0229287Y0138198D01*
X0229287Y0138198D01*
X0228824Y0137254D01*
X0228642Y0136883D01*
X0228642Y0136883D01*
X0228064Y0135955D01*
X0227867Y0135640D01*
X0227867Y0135640D01*
X0227179Y0134750D01*
X0226971Y0134482D01*
X0226971Y0134482D01*
X0225962Y0133420D01*
X0225962Y0133420D01*
X0224851Y0132466D01*
X0224850Y0132466D01*
X0223648Y0131629D01*
X0223648Y0131629D01*
X0223500Y0131547D01*
X0223500Y0133881D01*
X0223500Y0133881D01*
X0223500Y0131547D01*
X0222368Y0130919D01*
X0222368Y0130919D01*
X0221022Y0130341D01*
X0221022Y0130341D01*
X0219624Y0129902D01*
X0219624Y0129902D01*
X0218190Y0129608D01*
X0218189Y0129608D01*
X0216732Y0129459D01*
X0199935Y0129459D01*
X0199807Y0129445D01*
X0199622Y0129459D01*
X0199436Y0129459D01*
X0199309Y0129485D01*
X0199309Y0129485D01*
X0198762Y0129529D01*
X0197316Y0129788D01*
X0195903Y0130188D01*
X0195903Y0130188D01*
X0195832Y0130215D01*
X0194535Y0130723D01*
X0194535Y0130723D01*
X0194259Y0130863D01*
X0193226Y0131389D01*
X0193226Y0131389D01*
X0192479Y0131865D01*
X0191987Y0132179D01*
X0191987Y0132179D01*
X0191605Y0132479D01*
X0191563Y0132437D01*
X0191000Y0132204D01*
X0191000Y0131951D02*
X0192344Y0131951D01*
X0191000Y0128752D02*
X0236000Y0128752D01*
X0236000Y0125554D02*
X0191000Y0125554D01*
X0191000Y0122355D02*
X0236000Y0122355D01*
X0236000Y0119157D02*
X0191000Y0119157D01*
X0191000Y0115958D02*
X0236000Y0115958D01*
X0236000Y0112760D02*
X0191000Y0112760D01*
X0191000Y0109561D02*
X0236000Y0109561D01*
X0236000Y0106363D02*
X0191000Y0106363D01*
X0191000Y0103164D02*
X0236000Y0103164D01*
X0236000Y0099966D02*
X0191000Y0099966D01*
X0191000Y0096767D02*
X0236000Y0096767D01*
X0236000Y0093569D02*
X0191000Y0093569D01*
X0191000Y0090370D02*
X0236000Y0090370D01*
X0236000Y0087172D02*
X0191000Y0087172D01*
X0191000Y0083973D02*
X0236000Y0083973D01*
X0191000Y0080775D02*
X0285743Y0080775D01*
X0299052Y0080775D02*
X0308184Y0080775D01*
X0321493Y0080775D02*
X0330625Y0080775D01*
X0343934Y0080775D02*
X0353066Y0080775D01*
X0366375Y0080775D02*
X0375507Y0080775D01*
X0388816Y0080775D02*
X0397948Y0080775D01*
X0411257Y0080775D02*
X0589150Y0080775D01*
X0589150Y0079840D02*
X0589958Y0076826D01*
X0591518Y0074124D01*
X0593724Y0071918D01*
X0596426Y0070358D01*
X0599440Y0069550D01*
X0602560Y0069550D01*
X0605574Y0070358D01*
X0608276Y0071918D01*
X0610482Y0074124D01*
X0612042Y0076826D01*
X0612850Y0079840D01*
X0612850Y0082960D01*
X0612042Y0085974D01*
X0610482Y0088676D01*
X0608276Y0090882D01*
X0605574Y0092442D01*
X0602560Y0093250D01*
X0599440Y0093250D01*
X0596426Y0092442D01*
X0593724Y0090882D01*
X0591518Y0088676D01*
X0589958Y0085974D01*
X0589150Y0082960D01*
X0589150Y0079840D01*
X0589757Y0077576D02*
X0191000Y0077576D01*
X0191000Y0074378D02*
X0591371Y0074378D01*
X0595003Y0071179D02*
X0408299Y0071179D01*
X0409043Y0070980D02*
X0406117Y0071764D01*
X0403088Y0071764D01*
X0400161Y0070980D01*
X0397538Y0069465D01*
X0395396Y0067323D01*
X0393881Y0064699D01*
X0393097Y0061773D01*
X0393097Y0058744D01*
X0393881Y0055817D01*
X0395396Y0053194D01*
X0397538Y0051052D01*
X0400161Y0049537D01*
X0403088Y0048753D01*
X0406117Y0048753D01*
X0409043Y0049537D01*
X0411667Y0051052D01*
X0413809Y0053194D01*
X0415324Y0055817D01*
X0416108Y0058744D01*
X0416108Y0061773D01*
X0415324Y0064699D01*
X0413809Y0067323D01*
X0411667Y0069465D01*
X0409043Y0070980D01*
X0413151Y0067981D02*
X0868500Y0067981D01*
X0868500Y0071179D02*
X0606997Y0071179D01*
X0610629Y0074378D02*
X0868500Y0074378D01*
X0868500Y0077576D02*
X0798935Y0077576D01*
X0801435Y0080775D02*
X0868500Y0080775D01*
X0868500Y0083973D02*
X0802618Y0083973D01*
X0802850Y0087172D02*
X0868500Y0087172D01*
X0868500Y0090370D02*
X0802204Y0090370D01*
X0800544Y0093569D02*
X0868500Y0093569D01*
X0868500Y0096767D02*
X0798867Y0096767D01*
X0801000Y0099966D02*
X0868500Y0099966D01*
X0868500Y0103164D02*
X0801000Y0103164D01*
X0801000Y0106363D02*
X0868500Y0106363D01*
X0864962Y0109561D02*
X0801000Y0109561D01*
X0801000Y0112760D02*
X0861763Y0112760D01*
X0859863Y0115958D02*
X0801000Y0115958D01*
X0801000Y0119157D02*
X0859394Y0119157D01*
X0859394Y0122355D02*
X0801000Y0122355D01*
X0801000Y0125554D02*
X0859394Y0125554D01*
X0859394Y0128752D02*
X0801000Y0128752D01*
X0801000Y0131951D02*
X0859394Y0131951D01*
X0859394Y0135149D02*
X0801000Y0135149D01*
X0801000Y0138348D02*
X0859394Y0138348D01*
X0859394Y0141546D02*
X0801000Y0141546D01*
X0801000Y0144745D02*
X0859394Y0144745D01*
X0859394Y0147943D02*
X0801000Y0147943D01*
X0801000Y0151142D02*
X0859394Y0151142D01*
X0859394Y0154340D02*
X0801000Y0154340D01*
X0802796Y0157539D02*
X0859394Y0157539D01*
X0859394Y0160737D02*
X0805994Y0160737D01*
X0807500Y0163936D02*
X0859394Y0163936D01*
X0859394Y0167134D02*
X0809891Y0167134D01*
X0813090Y0170333D02*
X0859394Y0170333D01*
X0859394Y0173532D02*
X0815000Y0173532D01*
X0815000Y0176730D02*
X0859394Y0176730D01*
X0859394Y0179929D02*
X0815000Y0179929D01*
X0815000Y0183127D02*
X0843956Y0183127D01*
X0843710Y0183465D02*
X0844229Y0182752D01*
X0844852Y0182129D01*
X0845565Y0181610D01*
X0846350Y0181210D01*
X0847189Y0180938D01*
X0848059Y0180800D01*
X0848500Y0180800D01*
X0848941Y0180800D01*
X0849811Y0180938D01*
X0850650Y0181210D01*
X0851435Y0181610D01*
X0852148Y0182129D01*
X0852771Y0182752D01*
X0853290Y0183465D01*
X0853500Y0183878D01*
X0853710Y0183465D01*
X0854229Y0182752D01*
X0854852Y0182129D01*
X0855565Y0181610D01*
X0856350Y0181210D01*
X0857189Y0180938D01*
X0858059Y0180800D01*
X0858500Y0180800D01*
X0858500Y0186400D01*
X0858500Y0186400D01*
X0848500Y0186400D01*
X0848500Y0186400D01*
X0848500Y0186400D01*
X0848500Y0192000D01*
X0848941Y0192000D01*
X0849811Y0191862D01*
X0850650Y0191590D01*
X0851435Y0191190D01*
X0852148Y0190671D01*
X0852771Y0190048D01*
X0853290Y0189335D01*
X0853500Y0188922D01*
X0853710Y0189335D01*
X0854229Y0190048D01*
X0854852Y0190671D01*
X0855565Y0191190D01*
X0856350Y0191590D01*
X0857189Y0191862D01*
X0858059Y0192000D01*
X0858500Y0192000D01*
X0858500Y0186400D01*
X0858500Y0186400D01*
X0852900Y0186400D01*
X0848500Y0186400D01*
X0848500Y0180800D01*
X0848500Y0186400D01*
X0848500Y0186400D01*
X0848500Y0186400D01*
X0842900Y0186400D01*
X0842900Y0186841D01*
X0843038Y0187711D01*
X0843310Y0188550D01*
X0843710Y0189335D01*
X0844229Y0190048D01*
X0844852Y0190671D01*
X0845565Y0191190D01*
X0846350Y0191590D01*
X0847189Y0191862D01*
X0848059Y0192000D01*
X0848500Y0192000D01*
X0848500Y0186400D01*
X0842900Y0186400D01*
X0842900Y0185959D01*
X0843038Y0185089D01*
X0843310Y0184250D01*
X0843710Y0183465D01*
X0842900Y0186326D02*
X0815000Y0186326D01*
X0815000Y0189524D02*
X0843848Y0189524D01*
X0848500Y0189524D02*
X0848500Y0189524D01*
X0848500Y0186326D02*
X0848500Y0186326D01*
X0848500Y0183127D02*
X0848500Y0183127D01*
X0853044Y0183127D02*
X0853956Y0183127D01*
X0858500Y0183127D02*
X0858500Y0183127D01*
X0858500Y0186326D02*
X0858500Y0186326D01*
X0858500Y0189524D02*
X0858500Y0189524D01*
X0853848Y0189524D02*
X0853152Y0189524D01*
X0861945Y0192723D02*
X0815000Y0192723D01*
X0815000Y0195921D02*
X1363500Y0195921D01*
X1363500Y0199120D02*
X0815000Y0199120D01*
X0815075Y0202318D02*
X1363500Y0202318D01*
X1363500Y0205517D02*
X0818273Y0205517D01*
X0821472Y0208715D02*
X1363500Y0208715D01*
X1363500Y0211914D02*
X0824671Y0211914D01*
X0827296Y0215112D02*
X1363500Y0215112D01*
X1363500Y0218311D02*
X0827500Y0218311D01*
X0827500Y0221509D02*
X1363500Y0221509D01*
X1363500Y0224708D02*
X0827500Y0224708D01*
X0827500Y0227906D02*
X1363500Y0227906D01*
X1363500Y0231105D02*
X0827500Y0231105D01*
X0827500Y0234303D02*
X1363500Y0234303D01*
X1363500Y0237502D02*
X0827500Y0237502D01*
X0827500Y0240700D02*
X1363500Y0240700D01*
X1363500Y0243899D02*
X0827500Y0243899D01*
X0924854Y0247097D02*
X1360303Y0247097D01*
X1361945Y0192723D02*
X1331000Y0192723D01*
X1331000Y0189524D02*
X1343848Y0189524D01*
X1343710Y0189335D02*
X1343310Y0188550D01*
X1343038Y0187711D01*
X1342900Y0186841D01*
X1342900Y0186400D01*
X1348500Y0186400D01*
X1348500Y0186400D01*
X1348500Y0192000D01*
X1348941Y0192000D01*
X1349811Y0191862D01*
X1350650Y0191590D01*
X1351435Y0191190D01*
X1352148Y0190671D01*
X1352771Y0190048D01*
X1353290Y0189335D01*
X1353500Y0188922D01*
X1353710Y0189335D01*
X1354229Y0190048D01*
X1354852Y0190671D01*
X1355565Y0191190D01*
X1356350Y0191590D01*
X1357189Y0191862D01*
X1358059Y0192000D01*
X1358500Y0192000D01*
X1358500Y0186400D01*
X1358500Y0186400D01*
X1358500Y0186400D01*
X1348500Y0186400D01*
X1348500Y0186400D01*
X1348500Y0180800D01*
X1348941Y0180800D01*
X1349811Y0180938D01*
X1350650Y0181210D01*
X1351435Y0181610D01*
X1352148Y0182129D01*
X1352771Y0182752D01*
X1353290Y0183465D01*
X1353500Y0183878D01*
X1353710Y0183465D01*
X1354229Y0182752D01*
X1354852Y0182129D01*
X1355565Y0181610D01*
X1356350Y0181210D01*
X1357189Y0180938D01*
X1358059Y0180800D01*
X1358500Y0180800D01*
X1358500Y0186400D01*
X1352900Y0186400D01*
X1348500Y0186400D01*
X1348500Y0186400D01*
X1348500Y0186400D01*
X1348500Y0192000D01*
X1348059Y0192000D01*
X1347189Y0191862D01*
X1346350Y0191590D01*
X1345565Y0191190D01*
X1344852Y0190671D01*
X1344229Y0190048D01*
X1343710Y0189335D01*
X1342900Y0186400D02*
X1342900Y0185959D01*
X1343038Y0185089D01*
X1343310Y0184250D01*
X1343710Y0183465D01*
X1344229Y0182752D01*
X1344852Y0182129D01*
X1345565Y0181610D01*
X1346350Y0181210D01*
X1347189Y0180938D01*
X1348059Y0180800D01*
X1348500Y0180800D01*
X1348500Y0186400D01*
X1342900Y0186400D01*
X1342900Y0186326D02*
X1331000Y0186326D01*
X1331000Y0183127D02*
X1343956Y0183127D01*
X1348500Y0183127D02*
X1348500Y0183127D01*
X1348500Y0186326D02*
X1348500Y0186326D01*
X1348500Y0189524D02*
X1348500Y0189524D01*
X1353152Y0189524D02*
X1353848Y0189524D01*
X1358500Y0189524D02*
X1358500Y0189524D01*
X1358500Y0186326D02*
X1358500Y0186326D01*
X1358500Y0183127D02*
X1358500Y0183127D01*
X1359394Y0179929D02*
X1331000Y0179929D01*
X1335340Y0176730D02*
X1358453Y0176730D01*
X1353956Y0183127D02*
X1353044Y0183127D01*
X1261945Y0192723D02*
X1231000Y0192723D01*
X1231000Y0189524D02*
X1243848Y0189524D01*
X1243710Y0189335D02*
X1243310Y0188550D01*
X1243038Y0187711D01*
X1242900Y0186841D01*
X1242900Y0186400D01*
X1248500Y0186400D01*
X1258500Y0186400D01*
X1258500Y0186400D01*
X1258500Y0186400D01*
X1258500Y0192000D01*
X1258059Y0192000D01*
X1257189Y0191862D01*
X1256350Y0191590D01*
X1255565Y0191190D01*
X1254852Y0190671D01*
X1254229Y0190048D01*
X1253710Y0189335D01*
X1253500Y0188922D01*
X1253290Y0189335D01*
X1252771Y0190048D01*
X1252148Y0190671D01*
X1251435Y0191190D01*
X1250650Y0191590D01*
X1249811Y0191862D01*
X1248941Y0192000D01*
X1248500Y0192000D01*
X1248500Y0186400D01*
X1248500Y0186400D01*
X1248500Y0186400D01*
X1252900Y0186400D01*
X1258500Y0186400D01*
X1258500Y0180800D01*
X1258059Y0180800D01*
X1257189Y0180938D01*
X1256350Y0181210D01*
X1255565Y0181610D01*
X1254852Y0182129D01*
X1254229Y0182752D01*
X1253710Y0183465D01*
X1253500Y0183878D01*
X1253290Y0183465D01*
X1252771Y0182752D01*
X1252148Y0182129D01*
X1251435Y0181610D01*
X1250650Y0181210D01*
X1249811Y0180938D01*
X1248941Y0180800D01*
X1248500Y0180800D01*
X1248500Y0186400D01*
X1248500Y0186400D01*
X1248500Y0186400D01*
X1248500Y0192000D01*
X1248059Y0192000D01*
X1247189Y0191862D01*
X1246350Y0191590D01*
X1245565Y0191190D01*
X1244852Y0190671D01*
X1244229Y0190048D01*
X1243710Y0189335D01*
X1242900Y0186400D02*
X1242900Y0185959D01*
X1243038Y0185089D01*
X1243310Y0184250D01*
X1243710Y0183465D01*
X1244229Y0182752D01*
X1244852Y0182129D01*
X1245565Y0181610D01*
X1246350Y0181210D01*
X1247189Y0180938D01*
X1248059Y0180800D01*
X1248500Y0180800D01*
X1248500Y0186400D01*
X1242900Y0186400D01*
X1242900Y0186326D02*
X1231000Y0186326D01*
X1231000Y0183127D02*
X1243956Y0183127D01*
X1248500Y0183127D02*
X1248500Y0183127D01*
X1248500Y0186326D02*
X1248500Y0186326D01*
X1248500Y0189524D02*
X1248500Y0189524D01*
X1253152Y0189524D02*
X1253848Y0189524D01*
X1258500Y0189524D02*
X1258500Y0189524D01*
X1258500Y0186326D02*
X1258500Y0186326D01*
X1258500Y0183127D02*
X1258500Y0183127D01*
X1259394Y0179929D02*
X1231000Y0179929D01*
X1235340Y0176730D02*
X1259394Y0176730D01*
X1253956Y0183127D02*
X1253044Y0183127D01*
X1161945Y0192723D02*
X1128500Y0192723D01*
X1128500Y0189524D02*
X1143848Y0189524D01*
X1143710Y0189335D02*
X1143310Y0188550D01*
X1143038Y0187711D01*
X1142900Y0186841D01*
X1142900Y0186400D01*
X1148500Y0186400D01*
X1148500Y0186400D01*
X1148500Y0192000D01*
X1148941Y0192000D01*
X1149811Y0191862D01*
X1150650Y0191590D01*
X1151435Y0191190D01*
X1152148Y0190671D01*
X1152771Y0190048D01*
X1153290Y0189335D01*
X1153500Y0188922D01*
X1153710Y0189335D01*
X1154229Y0190048D01*
X1154852Y0190671D01*
X1155565Y0191190D01*
X1156350Y0191590D01*
X1157189Y0191862D01*
X1158059Y0192000D01*
X1158500Y0192000D01*
X1158500Y0186400D01*
X1158500Y0186400D01*
X1158500Y0186400D01*
X1148500Y0186400D01*
X1148500Y0186400D01*
X1148500Y0180800D01*
X1148941Y0180800D01*
X1149811Y0180938D01*
X1150650Y0181210D01*
X1151435Y0181610D01*
X1152148Y0182129D01*
X1152771Y0182752D01*
X1153290Y0183465D01*
X1153500Y0183878D01*
X1153710Y0183465D01*
X1154229Y0182752D01*
X1154852Y0182129D01*
X1155565Y0181610D01*
X1156350Y0181210D01*
X1157189Y0180938D01*
X1158059Y0180800D01*
X1158500Y0180800D01*
X1158500Y0186400D01*
X1152900Y0186400D01*
X1148500Y0186400D01*
X1148500Y0186400D01*
X1148500Y0186400D01*
X1148500Y0192000D01*
X1148059Y0192000D01*
X1147189Y0191862D01*
X1146350Y0191590D01*
X1145565Y0191190D01*
X1144852Y0190671D01*
X1144229Y0190048D01*
X1143710Y0189335D01*
X1142900Y0186400D02*
X1142900Y0185959D01*
X1143038Y0185089D01*
X1143310Y0184250D01*
X1143710Y0183465D01*
X1144229Y0182752D01*
X1144852Y0182129D01*
X1145565Y0181610D01*
X1146350Y0181210D01*
X1147189Y0180938D01*
X1148059Y0180800D01*
X1148500Y0180800D01*
X1148500Y0186400D01*
X1142900Y0186400D01*
X1142900Y0186326D02*
X1128500Y0186326D01*
X1128500Y0183127D02*
X1143956Y0183127D01*
X1148500Y0183127D02*
X1148500Y0183127D01*
X1148500Y0186326D02*
X1148500Y0186326D01*
X1148500Y0189524D02*
X1148500Y0189524D01*
X1153152Y0189524D02*
X1153848Y0189524D01*
X1158500Y0189524D02*
X1158500Y0189524D01*
X1158500Y0186326D02*
X1158500Y0186326D01*
X1158500Y0183127D02*
X1158500Y0183127D01*
X1159394Y0179929D02*
X1128500Y0179929D01*
X1135010Y0176730D02*
X1159394Y0176730D01*
X1153956Y0183127D02*
X1153044Y0183127D01*
X1061945Y0192723D02*
X1031000Y0192723D01*
X1031000Y0189524D02*
X1043848Y0189524D01*
X1043710Y0189335D02*
X1043310Y0188550D01*
X1043038Y0187711D01*
X1042900Y0186841D01*
X1042900Y0186400D01*
X1048500Y0186400D01*
X1058500Y0186400D01*
X1058500Y0186400D01*
X1058500Y0186400D01*
X1058500Y0192000D01*
X1058059Y0192000D01*
X1057189Y0191862D01*
X1056350Y0191590D01*
X1055565Y0191190D01*
X1054852Y0190671D01*
X1054229Y0190048D01*
X1053710Y0189335D01*
X1053500Y0188922D01*
X1053290Y0189335D01*
X1052771Y0190048D01*
X1052148Y0190671D01*
X1051435Y0191190D01*
X1050650Y0191590D01*
X1049811Y0191862D01*
X1048941Y0192000D01*
X1048500Y0192000D01*
X1048500Y0186400D01*
X1048500Y0186400D01*
X1048500Y0186400D01*
X1052900Y0186400D01*
X1058500Y0186400D01*
X1058500Y0180800D01*
X1058059Y0180800D01*
X1057189Y0180938D01*
X1056350Y0181210D01*
X1055565Y0181610D01*
X1054852Y0182129D01*
X1054229Y0182752D01*
X1053710Y0183465D01*
X1053500Y0183878D01*
X1053290Y0183465D01*
X1052771Y0182752D01*
X1052148Y0182129D01*
X1051435Y0181610D01*
X1050650Y0181210D01*
X1049811Y0180938D01*
X1048941Y0180800D01*
X1048500Y0180800D01*
X1048500Y0186400D01*
X1048500Y0186400D01*
X1048500Y0186400D01*
X1048500Y0192000D01*
X1048059Y0192000D01*
X1047189Y0191862D01*
X1046350Y0191590D01*
X1045565Y0191190D01*
X1044852Y0190671D01*
X1044229Y0190048D01*
X1043710Y0189335D01*
X1042900Y0186400D02*
X1042900Y0185959D01*
X1043038Y0185089D01*
X1043310Y0184250D01*
X1043710Y0183465D01*
X1044229Y0182752D01*
X1044852Y0182129D01*
X1045565Y0181610D01*
X1046350Y0181210D01*
X1047189Y0180938D01*
X1048059Y0180800D01*
X1048500Y0180800D01*
X1048500Y0186400D01*
X1042900Y0186400D01*
X1042900Y0186326D02*
X1031000Y0186326D01*
X1031000Y0183127D02*
X1043956Y0183127D01*
X1048500Y0183127D02*
X1048500Y0183127D01*
X1048500Y0186326D02*
X1048500Y0186326D01*
X1048500Y0189524D02*
X1048500Y0189524D01*
X1053152Y0189524D02*
X1053848Y0189524D01*
X1058500Y0189524D02*
X1058500Y0189524D01*
X1058500Y0186326D02*
X1058500Y0186326D01*
X1058500Y0183127D02*
X1058500Y0183127D01*
X1059394Y0179929D02*
X1031000Y0179929D01*
X1035340Y0176730D02*
X1059394Y0176730D01*
X1053956Y0183127D02*
X1053044Y0183127D01*
X0961945Y0192723D02*
X0931000Y0192723D01*
X0931000Y0189524D02*
X0943848Y0189524D01*
X0943710Y0189335D02*
X0943310Y0188550D01*
X0943038Y0187711D01*
X0942900Y0186841D01*
X0942900Y0186400D01*
X0948500Y0186400D01*
X0948500Y0186400D01*
X0948500Y0192000D01*
X0948941Y0192000D01*
X0949811Y0191862D01*
X0950650Y0191590D01*
X0951435Y0191190D01*
X0952148Y0190671D01*
X0952771Y0190048D01*
X0953290Y0189335D01*
X0953500Y0188922D01*
X0953710Y0189335D01*
X0954229Y0190048D01*
X0954852Y0190671D01*
X0955565Y0191190D01*
X0956350Y0191590D01*
X0957189Y0191862D01*
X0958059Y0192000D01*
X0958500Y0192000D01*
X0958500Y0186400D01*
X0958500Y0186400D01*
X0958500Y0186400D01*
X0948500Y0186400D01*
X0948500Y0186400D01*
X0948500Y0180800D01*
X0948941Y0180800D01*
X0949811Y0180938D01*
X0950650Y0181210D01*
X0951435Y0181610D01*
X0952148Y0182129D01*
X0952771Y0182752D01*
X0953290Y0183465D01*
X0953500Y0183878D01*
X0953710Y0183465D01*
X0954229Y0182752D01*
X0954852Y0182129D01*
X0955565Y0181610D01*
X0956350Y0181210D01*
X0957189Y0180938D01*
X0958059Y0180800D01*
X0958500Y0180800D01*
X0958500Y0186400D01*
X0952900Y0186400D01*
X0948500Y0186400D01*
X0948500Y0186400D01*
X0948500Y0186400D01*
X0948500Y0192000D01*
X0948059Y0192000D01*
X0947189Y0191862D01*
X0946350Y0191590D01*
X0945565Y0191190D01*
X0944852Y0190671D01*
X0944229Y0190048D01*
X0943710Y0189335D01*
X0942900Y0186400D02*
X0942900Y0185959D01*
X0943038Y0185089D01*
X0943310Y0184250D01*
X0943710Y0183465D01*
X0944229Y0182752D01*
X0944852Y0182129D01*
X0945565Y0181610D01*
X0946350Y0181210D01*
X0947189Y0180938D01*
X0948059Y0180800D01*
X0948500Y0180800D01*
X0948500Y0186400D01*
X0942900Y0186400D01*
X0942900Y0186326D02*
X0931000Y0186326D01*
X0931000Y0183127D02*
X0943956Y0183127D01*
X0948500Y0183127D02*
X0948500Y0183127D01*
X0948500Y0186326D02*
X0948500Y0186326D01*
X0948500Y0189524D02*
X0948500Y0189524D01*
X0953152Y0189524D02*
X0953848Y0189524D01*
X0958500Y0189524D02*
X0958500Y0189524D01*
X0958500Y0186326D02*
X0958500Y0186326D01*
X0958500Y0183127D02*
X0958500Y0183127D01*
X0959394Y0179929D02*
X0931000Y0179929D01*
X0933170Y0176730D02*
X0959394Y0176730D01*
X0953956Y0183127D02*
X0953044Y0183127D01*
X0781456Y0093569D02*
X0515669Y0093569D01*
X0512470Y0090370D02*
X0593212Y0090370D01*
X0590649Y0087172D02*
X0509272Y0087172D01*
X0506073Y0083973D02*
X0589421Y0083973D01*
X0608788Y0090370D02*
X0779796Y0090370D01*
X0779150Y0087172D02*
X0611351Y0087172D01*
X0612579Y0083973D02*
X0779382Y0083973D01*
X0780565Y0080775D02*
X0612850Y0080775D01*
X0612243Y0077576D02*
X0783065Y0077576D01*
X0868500Y0064782D02*
X0415276Y0064782D01*
X0416108Y0061584D02*
X0868500Y0061584D01*
X0868500Y0058385D02*
X0416012Y0058385D01*
X0414960Y0055187D02*
X0868500Y0055187D01*
X0868500Y0051988D02*
X0412603Y0051988D01*
X0406255Y0048790D02*
X0868500Y0048790D01*
X0868500Y0045591D02*
X0191000Y0045591D01*
X0191000Y0042393D02*
X0868500Y0042393D01*
X0868500Y0039194D02*
X0191000Y0039194D01*
X0191000Y0035996D02*
X0868500Y0035996D01*
X0867397Y0032797D02*
X0191000Y0032797D01*
X0191000Y0048790D02*
X0290745Y0048790D01*
X0290883Y0048753D02*
X0293912Y0048753D01*
X0296839Y0049537D01*
X0299462Y0051052D01*
X0301604Y0053194D01*
X0303119Y0055817D01*
X0303903Y0058744D01*
X0303903Y0061773D01*
X0303119Y0064699D01*
X0301604Y0067323D01*
X0299462Y0069465D01*
X0296839Y0070980D01*
X0293912Y0071764D01*
X0290883Y0071764D01*
X0287957Y0070980D01*
X0285333Y0069465D01*
X0283191Y0067323D01*
X0281676Y0064699D01*
X0280892Y0061773D01*
X0280892Y0058744D01*
X0281676Y0055817D01*
X0283191Y0053194D01*
X0285333Y0051052D01*
X0287957Y0049537D01*
X0290883Y0048753D01*
X0294050Y0048790D02*
X0402950Y0048790D01*
X0396601Y0051988D02*
X0300399Y0051988D01*
X0302755Y0055187D02*
X0394245Y0055187D01*
X0393193Y0058385D02*
X0303807Y0058385D01*
X0303903Y0061584D02*
X0393097Y0061584D01*
X0393929Y0064782D02*
X0303071Y0064782D01*
X0300946Y0067981D02*
X0396053Y0067981D01*
X0400906Y0071179D02*
X0296094Y0071179D01*
X0288701Y0071179D02*
X0191000Y0071179D01*
X0191000Y0067981D02*
X0283849Y0067981D01*
X0281724Y0064782D02*
X0191000Y0064782D01*
X0191000Y0061584D02*
X0280892Y0061584D01*
X0280988Y0058385D02*
X0191000Y0058385D01*
X0191000Y0055187D02*
X0282040Y0055187D01*
X0284397Y0051988D02*
X0191000Y0051988D01*
X0223500Y0131951D02*
X0223500Y0131951D01*
X0224110Y0131951D02*
X0236000Y0131951D01*
X0233801Y0135149D02*
X0227488Y0135149D01*
X0229343Y0138348D02*
X0232006Y0138348D01*
X0231176Y0141546D02*
X0230248Y0141546D01*
X0230416Y0144745D02*
X0230949Y0144745D01*
X0231535Y0147943D02*
X0229870Y0147943D01*
X0228502Y0151142D02*
X0232772Y0151142D01*
X0235213Y0154340D02*
X0225999Y0154340D01*
X0223500Y0154340D02*
X0223500Y0154340D01*
X0220767Y0157539D02*
X0236000Y0157539D01*
X0236000Y0160737D02*
X0191000Y0160737D01*
X0191000Y0157539D02*
X0195594Y0157539D01*
X0191000Y0163936D02*
X0235928Y0163936D01*
X0196020Y0191420D02*
X0196000Y0191400D01*
X0196020Y0191420D02*
X0196020Y0228152D01*
X0486000Y0278900D02*
X0486000Y0331400D01*
X0488500Y0333900D01*
D36*
X0633500Y0326400D03*
X0776000Y0346400D03*
X0781000Y0338900D03*
X0553500Y0191400D03*
X0443500Y0191400D03*
X0673500Y0161400D03*
X0678500Y0161400D03*
X0196000Y0191400D03*
D37*
X0231000Y0153900D02*
X0223500Y0146400D01*
X0083605Y0195000D02*
X0067100Y0195000D01*
X0067100Y0205977D01*
X0067908Y0206785D01*
X0069148Y0209779D01*
X0069148Y0213021D01*
X0067908Y0216015D01*
X0065615Y0218308D01*
X0062621Y0219548D01*
X0059379Y0219548D01*
X0056385Y0218308D01*
X0054092Y0216015D01*
X0052852Y0213021D01*
X0052852Y0209779D01*
X0054092Y0206785D01*
X0054900Y0205977D01*
X0054900Y0190187D01*
X0055433Y0188900D01*
X0013500Y0188900D01*
X0013500Y0476400D01*
X0053819Y0476400D01*
X0053819Y0439924D01*
X0062676Y0439924D01*
X0062741Y0439553D01*
X0063177Y0437929D01*
X0063751Y0436350D01*
X0064416Y0434924D01*
X0053819Y0434924D01*
X0053819Y0397315D01*
X0053953Y0396639D01*
X0054217Y0396002D01*
X0054600Y0395429D01*
X0055088Y0394941D01*
X0055661Y0394558D01*
X0056298Y0394294D01*
X0056974Y0394160D01*
X0105823Y0394160D01*
X0105823Y0434924D01*
X0110823Y0434924D01*
X0110823Y0394160D01*
X0159671Y0394160D01*
X0160348Y0394294D01*
X0160985Y0394558D01*
X0161558Y0394941D01*
X0162045Y0395429D01*
X0162428Y0396002D01*
X0162692Y0396639D01*
X0162827Y0397315D01*
X0162827Y0434924D01*
X0149670Y0434924D01*
X0150335Y0436350D01*
X0150910Y0437929D01*
X0151345Y0439553D01*
X0151410Y0439924D01*
X0162827Y0439924D01*
X0162827Y0476400D01*
X0652083Y0476400D01*
X0649351Y0474823D01*
X0646577Y0472049D01*
X0644615Y0468651D01*
X0643600Y0464862D01*
X0643600Y0460938D01*
X0644615Y0457149D01*
X0646577Y0453751D01*
X0649351Y0450977D01*
X0652749Y0449015D01*
X0656538Y0448000D01*
X0660462Y0448000D01*
X0664251Y0449015D01*
X0667649Y0450977D01*
X0670423Y0453751D01*
X0672385Y0457149D01*
X0673400Y0460938D01*
X0673400Y0464862D01*
X0672385Y0468651D01*
X0670423Y0472049D01*
X0667649Y0474823D01*
X0664917Y0476400D01*
X0838500Y0476400D01*
X0839169Y0437579D01*
X0838032Y0438236D01*
X0834877Y0439081D01*
X0831611Y0439081D01*
X0828456Y0438236D01*
X0825627Y0436602D01*
X0823317Y0434293D01*
X0821684Y0431464D01*
X0820839Y0428309D01*
X0820839Y0425042D01*
X0821684Y0421887D01*
X0823317Y0419058D01*
X0825627Y0416749D01*
X0828456Y0415115D01*
X0831611Y0414270D01*
X0834877Y0414270D01*
X0838032Y0415115D01*
X0839542Y0415987D01*
X0841000Y0331400D01*
X0786700Y0331580D01*
X0786700Y0333708D01*
X0787135Y0334143D01*
X0787881Y0335944D01*
X0787881Y0341856D01*
X0787135Y0343657D01*
X0785757Y0345035D01*
X0783956Y0345781D01*
X0782881Y0345781D01*
X0782881Y0349356D01*
X0782135Y0351157D01*
X0780757Y0352535D01*
X0778956Y0353281D01*
X0773044Y0353281D01*
X0771243Y0352535D01*
X0769865Y0351157D01*
X0769119Y0349356D01*
X0769119Y0343444D01*
X0769865Y0341643D01*
X0770300Y0341208D01*
X0770300Y0331634D01*
X0698635Y0331871D01*
X0696607Y0333900D01*
X0690393Y0333900D01*
X0688399Y0331905D01*
X0658502Y0332004D01*
X0656607Y0333900D01*
X0650393Y0333900D01*
X0648531Y0332037D01*
X0638722Y0332070D01*
X0638257Y0332535D01*
X0636456Y0333281D01*
X0630544Y0333281D01*
X0628743Y0332535D01*
X0628312Y0332104D01*
X0086000Y0333900D01*
X0083605Y0195000D01*
X0083628Y0196349D02*
X0067100Y0196349D01*
X0067100Y0201348D02*
X0083715Y0201348D01*
X0083801Y0206346D02*
X0067469Y0206346D01*
X0069148Y0211345D02*
X0083887Y0211345D01*
X0083973Y0216343D02*
X0067580Y0216343D01*
X0054420Y0216343D02*
X0013500Y0216343D01*
X0013500Y0211345D02*
X0052852Y0211345D01*
X0054531Y0206346D02*
X0013500Y0206346D01*
X0013500Y0201348D02*
X0054900Y0201348D01*
X0054900Y0196349D02*
X0013500Y0196349D01*
X0013500Y0191351D02*
X0054900Y0191351D01*
X0084059Y0221342D02*
X0013500Y0221342D01*
X0013500Y0226340D02*
X0084146Y0226340D01*
X0084232Y0231339D02*
X0013500Y0231339D01*
X0013500Y0236337D02*
X0084318Y0236337D01*
X0084404Y0241336D02*
X0013500Y0241336D01*
X0013500Y0246334D02*
X0084490Y0246334D01*
X0084576Y0251333D02*
X0013500Y0251333D01*
X0013500Y0256332D02*
X0037807Y0256332D01*
X0037555Y0256733D02*
X0038131Y0255816D01*
X0038805Y0254970D01*
X0039570Y0254205D01*
X0040416Y0253531D01*
X0041333Y0252955D01*
X0042307Y0252485D01*
X0043329Y0252128D01*
X0044384Y0251887D01*
X0045459Y0251766D01*
X0046000Y0251766D01*
X0046541Y0251766D01*
X0047616Y0251887D01*
X0048671Y0252128D01*
X0049693Y0252485D01*
X0050667Y0252955D01*
X0051584Y0253531D01*
X0052430Y0254205D01*
X0053195Y0254970D01*
X0053869Y0255816D01*
X0054445Y0256733D01*
X0054915Y0257707D01*
X0055272Y0258729D01*
X0055513Y0259784D01*
X0055634Y0260859D01*
X0055634Y0261400D01*
X0055634Y0261941D01*
X0055513Y0263016D01*
X0055272Y0264071D01*
X0054915Y0265093D01*
X0054445Y0266067D01*
X0053869Y0266984D01*
X0053195Y0267830D01*
X0052430Y0268595D01*
X0051584Y0269269D01*
X0050667Y0269845D01*
X0049693Y0270315D01*
X0048671Y0270672D01*
X0047616Y0270913D01*
X0046541Y0271034D01*
X0046000Y0271034D01*
X0045459Y0271034D01*
X0044384Y0270913D01*
X0043329Y0270672D01*
X0042307Y0270315D01*
X0041333Y0269845D01*
X0040416Y0269269D01*
X0039570Y0268595D01*
X0038805Y0267830D01*
X0038131Y0266984D01*
X0037555Y0266067D01*
X0037085Y0265093D01*
X0036728Y0264071D01*
X0036487Y0263016D01*
X0036366Y0261941D01*
X0036366Y0261400D01*
X0046000Y0261400D01*
X0055634Y0261400D01*
X0046000Y0261400D01*
X0046000Y0261400D01*
X0046000Y0261400D01*
X0046000Y0271034D01*
X0046000Y0261400D01*
X0046000Y0251766D01*
X0046000Y0261400D01*
X0046000Y0261400D01*
X0046000Y0261400D01*
X0036366Y0261400D01*
X0036366Y0260859D01*
X0036487Y0259784D01*
X0036728Y0258729D01*
X0037085Y0257707D01*
X0037555Y0256733D01*
X0036366Y0261330D02*
X0013500Y0261330D01*
X0013500Y0266329D02*
X0037719Y0266329D01*
X0046000Y0266329D02*
X0046000Y0266329D01*
X0046000Y0261330D02*
X0046000Y0261330D01*
X0046000Y0256332D02*
X0046000Y0256332D01*
X0054193Y0256332D02*
X0084663Y0256332D01*
X0084749Y0261330D02*
X0055634Y0261330D01*
X0054281Y0266329D02*
X0084835Y0266329D01*
X0084921Y0271327D02*
X0013500Y0271327D01*
X0013500Y0276326D02*
X0085007Y0276326D01*
X0085094Y0281324D02*
X0013500Y0281324D01*
X0013500Y0286323D02*
X0085180Y0286323D01*
X0085266Y0291321D02*
X0013500Y0291321D01*
X0013500Y0296320D02*
X0085352Y0296320D01*
X0085438Y0301318D02*
X0013500Y0301318D01*
X0013500Y0306317D02*
X0085524Y0306317D01*
X0085611Y0311315D02*
X0013500Y0311315D01*
X0013500Y0316314D02*
X0085697Y0316314D01*
X0085783Y0321312D02*
X0013500Y0321312D01*
X0013500Y0326311D02*
X0085869Y0326311D01*
X0085955Y0331309D02*
X0013500Y0331309D01*
X0013500Y0336308D02*
X0186727Y0336308D01*
X0186524Y0336510D02*
X0187210Y0335824D01*
X0187980Y0335234D01*
X0188820Y0334749D01*
X0189716Y0334378D01*
X0190653Y0334127D01*
X0191615Y0334000D01*
X0196000Y0334000D01*
X0200385Y0334000D01*
X0201347Y0334127D01*
X0202284Y0334378D01*
X0203180Y0334749D01*
X0204020Y0335234D01*
X0204790Y0335824D01*
X0205476Y0336510D01*
X0206066Y0337280D01*
X0206551Y0338120D01*
X0206922Y0339016D01*
X0207173Y0339953D01*
X0207300Y0340915D01*
X0207300Y0341400D01*
X0207300Y0341885D01*
X0207173Y0342847D01*
X0206922Y0343784D01*
X0206551Y0344680D01*
X0206066Y0345520D01*
X0205476Y0346290D01*
X0204790Y0346976D01*
X0204020Y0347566D01*
X0203180Y0348051D01*
X0202284Y0348422D01*
X0201347Y0348673D01*
X0200385Y0348800D01*
X0196000Y0348800D01*
X0196000Y0341400D01*
X0196000Y0341400D01*
X0207300Y0341400D01*
X0196000Y0341400D01*
X0196000Y0341400D01*
X0196000Y0334000D01*
X0196000Y0341400D01*
X0196000Y0341400D01*
X0196000Y0341400D01*
X0184700Y0341400D01*
X0184700Y0341885D01*
X0184827Y0342847D01*
X0185078Y0343784D01*
X0185449Y0344680D01*
X0185934Y0345520D01*
X0186524Y0346290D01*
X0187210Y0346976D01*
X0187980Y0347566D01*
X0188820Y0348051D01*
X0189716Y0348422D01*
X0190653Y0348673D01*
X0191615Y0348800D01*
X0196000Y0348800D01*
X0196000Y0341400D01*
X0184700Y0341400D01*
X0184700Y0340915D01*
X0184827Y0339953D01*
X0185078Y0339016D01*
X0185449Y0338120D01*
X0185934Y0337280D01*
X0186524Y0336510D01*
X0184700Y0341306D02*
X0013500Y0341306D01*
X0013500Y0346305D02*
X0186540Y0346305D01*
X0196000Y0346305D02*
X0196000Y0346305D01*
X0196000Y0341306D02*
X0196000Y0341306D01*
X0196000Y0336308D02*
X0196000Y0336308D01*
X0205273Y0336308D02*
X0309227Y0336308D01*
X0309024Y0336510D02*
X0309710Y0335824D01*
X0310480Y0335234D01*
X0311320Y0334749D01*
X0312216Y0334378D01*
X0313153Y0334127D01*
X0314115Y0334000D01*
X0318500Y0334000D01*
X0322885Y0334000D01*
X0323847Y0334127D01*
X0324784Y0334378D01*
X0325680Y0334749D01*
X0326520Y0335234D01*
X0327290Y0335824D01*
X0327976Y0336510D01*
X0328566Y0337280D01*
X0329051Y0338120D01*
X0329422Y0339016D01*
X0329673Y0339953D01*
X0329800Y0340915D01*
X0329800Y0341400D01*
X0329800Y0341885D01*
X0329673Y0342847D01*
X0329422Y0343784D01*
X0329051Y0344680D01*
X0328566Y0345520D01*
X0327976Y0346290D01*
X0327290Y0346976D01*
X0326520Y0347566D01*
X0325680Y0348051D01*
X0324784Y0348422D01*
X0323847Y0348673D01*
X0322885Y0348800D01*
X0318500Y0348800D01*
X0318500Y0341400D01*
X0318500Y0341400D01*
X0329800Y0341400D01*
X0318500Y0341400D01*
X0318500Y0341400D01*
X0318500Y0334000D01*
X0318500Y0341400D01*
X0318500Y0341400D01*
X0318500Y0341400D01*
X0307200Y0341400D01*
X0307200Y0341885D01*
X0307327Y0342847D01*
X0307578Y0343784D01*
X0307949Y0344680D01*
X0308434Y0345520D01*
X0309024Y0346290D01*
X0309710Y0346976D01*
X0310480Y0347566D01*
X0311320Y0348051D01*
X0312216Y0348422D01*
X0313153Y0348673D01*
X0314115Y0348800D01*
X0318500Y0348800D01*
X0318500Y0341400D01*
X0307200Y0341400D01*
X0307200Y0340915D01*
X0307327Y0339953D01*
X0307578Y0339016D01*
X0307949Y0338120D01*
X0308434Y0337280D01*
X0309024Y0336510D01*
X0307200Y0341306D02*
X0207300Y0341306D01*
X0205460Y0346305D02*
X0309040Y0346305D01*
X0318500Y0346305D02*
X0318500Y0346305D01*
X0318500Y0341306D02*
X0318500Y0341306D01*
X0318500Y0336308D02*
X0318500Y0336308D01*
X0327773Y0336308D02*
X0406727Y0336308D01*
X0406524Y0336510D02*
X0407210Y0335824D01*
X0407980Y0335234D01*
X0408820Y0334749D01*
X0409716Y0334378D01*
X0410653Y0334127D01*
X0411615Y0334000D01*
X0416000Y0334000D01*
X0420385Y0334000D01*
X0421347Y0334127D01*
X0422284Y0334378D01*
X0423180Y0334749D01*
X0424020Y0335234D01*
X0424790Y0335824D01*
X0425476Y0336510D01*
X0426066Y0337280D01*
X0426551Y0338120D01*
X0426922Y0339016D01*
X0427173Y0339953D01*
X0427300Y0340915D01*
X0427300Y0341400D01*
X0427300Y0341885D01*
X0427173Y0342847D01*
X0426922Y0343784D01*
X0426551Y0344680D01*
X0426066Y0345520D01*
X0425476Y0346290D01*
X0424790Y0346976D01*
X0424020Y0347566D01*
X0423180Y0348051D01*
X0422284Y0348422D01*
X0421347Y0348673D01*
X0420385Y0348800D01*
X0416000Y0348800D01*
X0416000Y0341400D01*
X0416000Y0341400D01*
X0427300Y0341400D01*
X0416000Y0341400D01*
X0416000Y0341400D01*
X0416000Y0334000D01*
X0416000Y0341400D01*
X0416000Y0341400D01*
X0416000Y0341400D01*
X0404700Y0341400D01*
X0404700Y0341885D01*
X0404827Y0342847D01*
X0405078Y0343784D01*
X0405449Y0344680D01*
X0405934Y0345520D01*
X0406524Y0346290D01*
X0407210Y0346976D01*
X0407980Y0347566D01*
X0408820Y0348051D01*
X0409716Y0348422D01*
X0410653Y0348673D01*
X0411615Y0348800D01*
X0416000Y0348800D01*
X0416000Y0341400D01*
X0404700Y0341400D01*
X0404700Y0340915D01*
X0404827Y0339953D01*
X0405078Y0339016D01*
X0405449Y0338120D01*
X0405934Y0337280D01*
X0406524Y0336510D01*
X0404700Y0341306D02*
X0329800Y0341306D01*
X0327960Y0346305D02*
X0406540Y0346305D01*
X0416000Y0346305D02*
X0416000Y0346305D01*
X0416000Y0341306D02*
X0416000Y0341306D01*
X0416000Y0336308D02*
X0416000Y0336308D01*
X0425273Y0336308D02*
X0770300Y0336308D01*
X0770202Y0341306D02*
X0701000Y0341306D01*
X0701000Y0340793D02*
X0696607Y0336400D01*
X0690393Y0336400D01*
X0686000Y0340793D01*
X0686000Y0347007D01*
X0690393Y0351400D01*
X0696607Y0351400D01*
X0701000Y0347007D01*
X0701000Y0340793D01*
X0701000Y0346305D02*
X0769119Y0346305D01*
X0770011Y0351303D02*
X0696703Y0351303D01*
X0690297Y0351303D02*
X0656703Y0351303D01*
X0656607Y0351400D02*
X0650393Y0351400D01*
X0646000Y0347007D01*
X0646000Y0340793D01*
X0650393Y0336400D01*
X0656607Y0336400D01*
X0661000Y0340793D01*
X0661000Y0347007D01*
X0656607Y0351400D01*
X0650297Y0351303D02*
X0048172Y0351303D01*
X0047987Y0351119D02*
X0050297Y0353429D01*
X0051930Y0356257D01*
X0052776Y0359412D01*
X0052776Y0362679D01*
X0051930Y0365834D01*
X0050297Y0368663D01*
X0047987Y0370973D01*
X0045158Y0372606D01*
X0042003Y0373451D01*
X0038737Y0373451D01*
X0035582Y0372606D01*
X0032753Y0370973D01*
X0030443Y0368663D01*
X0028810Y0365834D01*
X0027965Y0362679D01*
X0027965Y0359412D01*
X0028810Y0356257D01*
X0030443Y0353429D01*
X0032753Y0351119D01*
X0035582Y0349486D01*
X0038737Y0348640D01*
X0042003Y0348640D01*
X0045158Y0349486D01*
X0047987Y0351119D01*
X0051942Y0356302D02*
X0197862Y0356302D01*
X0198350Y0356100D02*
X0209650Y0356100D01*
X0212885Y0357440D01*
X0215360Y0359915D01*
X0216700Y0363150D01*
X0216700Y0366650D01*
X0215360Y0369885D01*
X0212885Y0372360D01*
X0209650Y0373700D01*
X0198350Y0373700D01*
X0195115Y0372360D01*
X0192640Y0369885D01*
X0191300Y0366650D01*
X0191300Y0363150D01*
X0192640Y0359915D01*
X0195115Y0357440D01*
X0198350Y0356100D01*
X0192066Y0361300D02*
X0052776Y0361300D01*
X0051662Y0366299D02*
X0191300Y0366299D01*
X0194052Y0371297D02*
X0047425Y0371297D01*
X0033315Y0371297D02*
X0013500Y0371297D01*
X0013500Y0366299D02*
X0029078Y0366299D01*
X0027965Y0361300D02*
X0013500Y0361300D01*
X0013500Y0356302D02*
X0028798Y0356302D01*
X0032568Y0351303D02*
X0013500Y0351303D01*
X0013500Y0376296D02*
X0594720Y0376296D01*
X0595166Y0375850D02*
X0601834Y0375850D01*
X0606550Y0380566D01*
X0606550Y0387234D01*
X0601834Y0391950D01*
X0595166Y0391950D01*
X0590450Y0387234D01*
X0590450Y0380566D01*
X0595166Y0375850D01*
X0602280Y0376296D02*
X0614720Y0376296D01*
X0615166Y0375850D02*
X0610450Y0380566D01*
X0610450Y0387234D01*
X0615166Y0391950D01*
X0621834Y0391950D01*
X0623500Y0390284D01*
X0625166Y0391950D01*
X0631834Y0391950D01*
X0636550Y0387234D01*
X0636550Y0380566D01*
X0631834Y0375850D01*
X0625166Y0375850D01*
X0623500Y0377516D01*
X0621834Y0375850D01*
X0615166Y0375850D01*
X0622280Y0376296D02*
X0624720Y0376296D01*
X0632280Y0376296D02*
X0644720Y0376296D01*
X0645166Y0375850D02*
X0640450Y0380566D01*
X0640450Y0387234D01*
X0645166Y0391950D01*
X0651834Y0391950D01*
X0656550Y0387234D01*
X0656550Y0380566D01*
X0651834Y0375850D01*
X0645166Y0375850D01*
X0652280Y0376296D02*
X0754588Y0376296D01*
X0754588Y0377002D02*
X0754588Y0374263D01*
X0754967Y0373350D01*
X0754967Y0372502D01*
X0754588Y0371588D01*
X0754588Y0368850D01*
X0755636Y0366319D01*
X0755781Y0366174D01*
X0755966Y0365722D01*
X0755966Y0364519D01*
X0757014Y0361989D01*
X0758951Y0360052D01*
X0760631Y0359356D01*
X0762494Y0357493D01*
X0765024Y0356445D01*
X0766433Y0356445D01*
X0766440Y0356443D01*
X0767736Y0356179D01*
X0769946Y0355264D01*
X0772684Y0355264D01*
X0774894Y0356179D01*
X0776190Y0356443D01*
X0776196Y0356445D01*
X0777606Y0356445D01*
X0780136Y0357493D01*
X0781999Y0359356D01*
X0783679Y0360052D01*
X0785616Y0361989D01*
X0786664Y0364519D01*
X0786664Y0365722D01*
X0786849Y0366174D01*
X0786994Y0366319D01*
X0788042Y0368850D01*
X0788042Y0371588D01*
X0787663Y0372502D01*
X0787663Y0373350D01*
X0788042Y0374263D01*
X0788042Y0377002D01*
X0787663Y0377915D01*
X0787663Y0378763D01*
X0788042Y0379676D01*
X0788042Y0382415D01*
X0787663Y0383328D01*
X0787663Y0390987D01*
X0786570Y0390987D01*
X0786642Y0391441D01*
X0786642Y0391498D01*
X0787663Y0391498D01*
X0787663Y0391629D01*
X0787680Y0391753D01*
X0787663Y0391997D01*
X0787663Y0392242D01*
X0787639Y0392365D01*
X0787604Y0392886D01*
X0787353Y0394397D01*
X0786955Y0395876D01*
X0786414Y0397308D01*
X0786414Y0397308D01*
X0785735Y0398681D01*
X0785735Y0398681D01*
X0784925Y0399981D01*
X0783991Y0401195D01*
X0782943Y0402311D01*
X0782943Y0402311D01*
X0782943Y0402311D01*
X0782877Y0402369D01*
X0781790Y0403320D01*
X0780544Y0404211D01*
X0779217Y0404975D01*
X0777822Y0405605D01*
X0776371Y0406096D01*
X0776371Y0406096D01*
X0774879Y0406442D01*
X0774879Y0406442D01*
X0773360Y0406640D01*
X0771830Y0406689D01*
X0771830Y0406689D01*
X0771571Y0406671D01*
X0771571Y0406215D01*
X0771315Y0406215D01*
X0771315Y0404561D01*
X0771315Y0404561D01*
X0771315Y0406215D01*
X0771059Y0406215D01*
X0771059Y0406671D01*
X0770800Y0406689D01*
X0769270Y0406640D01*
X0767751Y0406442D01*
X0767715Y0406434D01*
X0765221Y0406434D01*
X0762691Y0405386D01*
X0760754Y0403449D01*
X0760622Y0403129D01*
X0760186Y0402748D01*
X0758951Y0402236D01*
X0757014Y0400300D01*
X0755966Y0397769D01*
X0755966Y0396647D01*
X0755675Y0395876D01*
X0755675Y0395876D01*
X0755651Y0395787D01*
X0755636Y0395772D01*
X0754588Y0393242D01*
X0754588Y0390503D01*
X0754967Y0389590D01*
X0754967Y0388742D01*
X0754588Y0387828D01*
X0754588Y0385090D01*
X0754967Y0384176D01*
X0754967Y0383328D01*
X0754588Y0382415D01*
X0754588Y0379676D01*
X0754967Y0378763D01*
X0754967Y0377915D01*
X0754588Y0377002D01*
X0754588Y0381294D02*
X0656550Y0381294D01*
X0656550Y0386293D02*
X0754588Y0386293D01*
X0754588Y0391291D02*
X0652493Y0391291D01*
X0653145Y0393648D02*
X0650131Y0392400D01*
X0646869Y0392400D01*
X0643855Y0393648D01*
X0641548Y0395955D01*
X0640300Y0398969D01*
X0640300Y0408831D01*
X0641548Y0411845D01*
X0643855Y0414152D01*
X0646869Y0415400D01*
X0650131Y0415400D01*
X0653145Y0414152D01*
X0653500Y0413797D01*
X0653855Y0414152D01*
X0656869Y0415400D01*
X0660131Y0415400D01*
X0663145Y0414152D01*
X0663500Y0413797D01*
X0663855Y0414152D01*
X0666869Y0415400D01*
X0670131Y0415400D01*
X0673145Y0414152D01*
X0675452Y0411845D01*
X0676700Y0408831D01*
X0676700Y0398969D01*
X0675452Y0395955D01*
X0673145Y0393648D01*
X0670131Y0392400D01*
X0666869Y0392400D01*
X0663855Y0393648D01*
X0663500Y0394003D01*
X0663145Y0393648D01*
X0660131Y0392400D01*
X0656869Y0392400D01*
X0653855Y0393648D01*
X0653500Y0394003D01*
X0653145Y0393648D01*
X0644507Y0391291D02*
X0632493Y0391291D01*
X0636550Y0386293D02*
X0640450Y0386293D01*
X0640450Y0381294D02*
X0636550Y0381294D01*
X0624507Y0391291D02*
X0622493Y0391291D01*
X0614507Y0391291D02*
X0602493Y0391291D01*
X0606550Y0386293D02*
X0610450Y0386293D01*
X0610450Y0381294D02*
X0606550Y0381294D01*
X0590450Y0381294D02*
X0527491Y0381294D01*
X0527952Y0381755D02*
X0529200Y0384769D01*
X0529200Y0388031D01*
X0527952Y0391045D01*
X0525852Y0393145D01*
X0528500Y0395793D01*
X0528500Y0402007D01*
X0525357Y0405150D01*
X0528500Y0408293D01*
X0528500Y0414507D01*
X0525357Y0417650D01*
X0528500Y0420793D01*
X0528500Y0427007D01*
X0524107Y0431400D01*
X0518055Y0431400D01*
X0518475Y0432413D01*
X0518475Y0435387D01*
X0517337Y0438134D01*
X0516571Y0438900D01*
X0517337Y0439666D01*
X0518475Y0442413D01*
X0518475Y0445387D01*
X0517337Y0448134D01*
X0515234Y0450237D01*
X0512487Y0451375D01*
X0509513Y0451375D01*
X0506766Y0450237D01*
X0504663Y0448134D01*
X0503525Y0445387D01*
X0503525Y0442413D01*
X0504663Y0439666D01*
X0505429Y0438900D01*
X0504663Y0438134D01*
X0503525Y0435387D01*
X0503525Y0432413D01*
X0504663Y0429666D01*
X0506766Y0427563D01*
X0509513Y0426425D01*
X0512487Y0426425D01*
X0513500Y0426845D01*
X0513500Y0420793D01*
X0516643Y0417650D01*
X0513500Y0414507D01*
X0513500Y0408293D01*
X0516643Y0405150D01*
X0513500Y0402007D01*
X0513500Y0395793D01*
X0516148Y0393145D01*
X0514048Y0391045D01*
X0512800Y0388031D01*
X0512800Y0384769D01*
X0514048Y0381755D01*
X0516355Y0379448D01*
X0519369Y0378200D01*
X0522631Y0378200D01*
X0525645Y0379448D01*
X0527952Y0381755D01*
X0529200Y0386293D02*
X0590450Y0386293D01*
X0594507Y0391291D02*
X0527705Y0391291D01*
X0528500Y0396290D02*
X0641410Y0396290D01*
X0640300Y0401288D02*
X0528500Y0401288D01*
X0526493Y0406287D02*
X0640300Y0406287D01*
X0641317Y0411285D02*
X0541492Y0411285D01*
X0543500Y0413293D02*
X0539107Y0408900D01*
X0532893Y0408900D01*
X0528500Y0413293D01*
X0528500Y0419507D01*
X0532893Y0423900D01*
X0539107Y0423900D01*
X0543500Y0419507D01*
X0543500Y0413293D01*
X0543500Y0416284D02*
X0545410Y0416284D01*
X0544642Y0417052D02*
X0546752Y0414942D01*
X0549508Y0413800D01*
X0552492Y0413800D01*
X0555248Y0414942D01*
X0557358Y0417052D01*
X0558500Y0419808D01*
X0558500Y0427992D01*
X0557358Y0430748D01*
X0555248Y0432858D01*
X0552492Y0434000D01*
X0549508Y0434000D01*
X0546752Y0432858D01*
X0544642Y0430748D01*
X0543500Y0427992D01*
X0543500Y0419808D01*
X0544642Y0417052D01*
X0543500Y0421282D02*
X0541724Y0421282D01*
X0543500Y0426281D02*
X0528500Y0426281D01*
X0528500Y0421282D02*
X0530276Y0421282D01*
X0528500Y0416284D02*
X0526723Y0416284D01*
X0528500Y0411285D02*
X0530508Y0411285D01*
X0515507Y0406287D02*
X0486493Y0406287D01*
X0485357Y0405150D02*
X0488500Y0408293D01*
X0488500Y0414507D01*
X0485357Y0417650D01*
X0488500Y0420793D01*
X0488500Y0427007D01*
X0486589Y0428918D01*
X0487337Y0429666D01*
X0488475Y0432413D01*
X0488475Y0435387D01*
X0487337Y0438134D01*
X0486571Y0438900D01*
X0487337Y0439666D01*
X0488475Y0442413D01*
X0488475Y0445387D01*
X0487337Y0448134D01*
X0485234Y0450237D01*
X0482487Y0451375D01*
X0479513Y0451375D01*
X0476766Y0450237D01*
X0474663Y0448134D01*
X0473525Y0445387D01*
X0473525Y0442413D01*
X0474663Y0439666D01*
X0475429Y0438900D01*
X0474663Y0438134D01*
X0473525Y0435387D01*
X0473525Y0432413D01*
X0474663Y0429666D01*
X0475411Y0428918D01*
X0473500Y0427007D01*
X0473500Y0420793D01*
X0476643Y0417650D01*
X0473500Y0414507D01*
X0473500Y0408293D01*
X0476643Y0405150D01*
X0473500Y0402007D01*
X0473500Y0395793D01*
X0476148Y0393145D01*
X0474048Y0391045D01*
X0472800Y0388031D01*
X0472800Y0384769D01*
X0474048Y0381755D01*
X0476355Y0379448D01*
X0479369Y0378200D01*
X0482631Y0378200D01*
X0485645Y0379448D01*
X0487952Y0381755D01*
X0489200Y0384769D01*
X0489200Y0388031D01*
X0487952Y0391045D01*
X0485852Y0393145D01*
X0488500Y0395793D01*
X0488500Y0402007D01*
X0485357Y0405150D01*
X0488500Y0401288D02*
X0513500Y0401288D01*
X0513500Y0396290D02*
X0488500Y0396290D01*
X0487705Y0391291D02*
X0514295Y0391291D01*
X0512800Y0386293D02*
X0489200Y0386293D01*
X0487491Y0381294D02*
X0514509Y0381294D01*
X0483360Y0369885D02*
X0480885Y0372360D01*
X0477650Y0373700D01*
X0466350Y0373700D01*
X0463115Y0372360D01*
X0460640Y0369885D01*
X0459300Y0366650D01*
X0459300Y0363150D01*
X0460640Y0359915D01*
X0463115Y0357440D01*
X0466350Y0356100D01*
X0477650Y0356100D01*
X0480885Y0357440D01*
X0483360Y0359915D01*
X0484700Y0363150D01*
X0484700Y0366650D01*
X0483360Y0369885D01*
X0481948Y0371297D02*
X0754588Y0371297D01*
X0755657Y0366299D02*
X0484700Y0366299D01*
X0483934Y0361300D02*
X0757703Y0361300D01*
X0766440Y0356443D02*
X0766440Y0356443D01*
X0767133Y0356302D02*
X0478137Y0356302D01*
X0465862Y0356302D02*
X0430137Y0356302D01*
X0429650Y0356100D02*
X0432885Y0357440D01*
X0435360Y0359915D01*
X0436700Y0363150D01*
X0436700Y0366650D01*
X0435360Y0369885D01*
X0432885Y0372360D01*
X0429650Y0373700D01*
X0418350Y0373700D01*
X0415115Y0372360D01*
X0412640Y0369885D01*
X0411300Y0366650D01*
X0411300Y0363150D01*
X0412640Y0359915D01*
X0415115Y0357440D01*
X0418350Y0356100D01*
X0429650Y0356100D01*
X0435934Y0361300D02*
X0460066Y0361300D01*
X0459300Y0366299D02*
X0436700Y0366299D01*
X0433948Y0371297D02*
X0462052Y0371297D01*
X0474509Y0381294D02*
X0391566Y0381294D01*
X0390131Y0380700D02*
X0393145Y0381948D01*
X0395452Y0384255D01*
X0396700Y0387269D01*
X0396700Y0390531D01*
X0395452Y0393545D01*
X0393352Y0395645D01*
X0396000Y0398293D01*
X0396000Y0404507D01*
X0394107Y0406400D01*
X0396000Y0408293D01*
X0396000Y0414507D01*
X0392857Y0417650D01*
X0396000Y0420793D01*
X0396000Y0427007D01*
X0391607Y0431400D01*
X0385555Y0431400D01*
X0385975Y0432413D01*
X0385975Y0435387D01*
X0384837Y0438134D01*
X0384071Y0438900D01*
X0384837Y0439666D01*
X0385975Y0442413D01*
X0385975Y0445387D01*
X0384837Y0448134D01*
X0382734Y0450237D01*
X0379987Y0451375D01*
X0377013Y0451375D01*
X0374266Y0450237D01*
X0372163Y0448134D01*
X0371025Y0445387D01*
X0371025Y0442413D01*
X0372163Y0439666D01*
X0372929Y0438900D01*
X0372163Y0438134D01*
X0371025Y0435387D01*
X0371025Y0432413D01*
X0372163Y0429666D01*
X0374266Y0427563D01*
X0377013Y0426425D01*
X0379987Y0426425D01*
X0381000Y0426845D01*
X0381000Y0420793D01*
X0384143Y0417650D01*
X0381000Y0414507D01*
X0381000Y0408293D01*
X0382893Y0406400D01*
X0381000Y0404507D01*
X0381000Y0398293D01*
X0383648Y0395645D01*
X0381548Y0393545D01*
X0380300Y0390531D01*
X0380300Y0387269D01*
X0381548Y0384255D01*
X0383855Y0381948D01*
X0386869Y0380700D01*
X0390131Y0380700D01*
X0385434Y0381294D02*
X0351566Y0381294D01*
X0350131Y0380700D02*
X0353145Y0381948D01*
X0355452Y0384255D01*
X0356700Y0387269D01*
X0356700Y0390531D01*
X0355452Y0393545D01*
X0353352Y0395645D01*
X0356000Y0398293D01*
X0356000Y0404507D01*
X0354107Y0406400D01*
X0356000Y0408293D01*
X0356000Y0414507D01*
X0352857Y0417650D01*
X0356000Y0420793D01*
X0356000Y0427007D01*
X0354089Y0428918D01*
X0354837Y0429666D01*
X0355975Y0432413D01*
X0355975Y0435387D01*
X0354837Y0438134D01*
X0354071Y0438900D01*
X0354837Y0439666D01*
X0355975Y0442413D01*
X0355975Y0445387D01*
X0354837Y0448134D01*
X0352734Y0450237D01*
X0349987Y0451375D01*
X0347013Y0451375D01*
X0344266Y0450237D01*
X0342163Y0448134D01*
X0341025Y0445387D01*
X0341025Y0442413D01*
X0342163Y0439666D01*
X0342929Y0438900D01*
X0342163Y0438134D01*
X0341025Y0435387D01*
X0341025Y0432413D01*
X0342163Y0429666D01*
X0342911Y0428918D01*
X0341000Y0427007D01*
X0341000Y0420793D01*
X0344143Y0417650D01*
X0341000Y0414507D01*
X0341000Y0408293D01*
X0342893Y0406400D01*
X0341000Y0404507D01*
X0341000Y0398293D01*
X0343648Y0395645D01*
X0341548Y0393545D01*
X0340300Y0390531D01*
X0340300Y0387269D01*
X0341548Y0384255D01*
X0343855Y0381948D01*
X0346869Y0380700D01*
X0350131Y0380700D01*
X0345434Y0381294D02*
X0013500Y0381294D01*
X0013500Y0386293D02*
X0199511Y0386293D01*
X0199048Y0386755D02*
X0201355Y0384448D01*
X0204369Y0383200D01*
X0207631Y0383200D01*
X0210645Y0384448D01*
X0212952Y0386755D01*
X0214200Y0389769D01*
X0214200Y0393031D01*
X0212952Y0396045D01*
X0212102Y0396895D01*
X0213500Y0398293D01*
X0213500Y0404507D01*
X0211607Y0406400D01*
X0213500Y0408293D01*
X0213500Y0414507D01*
X0210357Y0417650D01*
X0213500Y0420793D01*
X0213500Y0427007D01*
X0211589Y0428918D01*
X0212337Y0429666D01*
X0213475Y0432413D01*
X0213475Y0435387D01*
X0212337Y0438134D01*
X0211571Y0438900D01*
X0212337Y0439666D01*
X0213475Y0442413D01*
X0213475Y0445387D01*
X0212337Y0448134D01*
X0210234Y0450237D01*
X0207487Y0451375D01*
X0204513Y0451375D01*
X0201766Y0450237D01*
X0199663Y0448134D01*
X0198525Y0445387D01*
X0198525Y0442413D01*
X0199663Y0439666D01*
X0200429Y0438900D01*
X0199663Y0438134D01*
X0198525Y0435387D01*
X0198525Y0432413D01*
X0199663Y0429666D01*
X0200411Y0428918D01*
X0198500Y0427007D01*
X0198500Y0420793D01*
X0201643Y0417650D01*
X0198500Y0414507D01*
X0198500Y0408293D01*
X0200393Y0406400D01*
X0198500Y0404507D01*
X0198500Y0398293D01*
X0199898Y0396895D01*
X0199048Y0396045D01*
X0197800Y0393031D01*
X0197800Y0389769D01*
X0199048Y0386755D01*
X0197800Y0391291D02*
X0013500Y0391291D01*
X0013500Y0396290D02*
X0054098Y0396290D01*
X0053819Y0401288D02*
X0013500Y0401288D01*
X0013500Y0406287D02*
X0053819Y0406287D01*
X0053819Y0411285D02*
X0013500Y0411285D01*
X0013500Y0416284D02*
X0053819Y0416284D01*
X0053819Y0421282D02*
X0013500Y0421282D01*
X0013500Y0426281D02*
X0053819Y0426281D01*
X0053819Y0431279D02*
X0013500Y0431279D01*
X0013500Y0436278D02*
X0063785Y0436278D01*
X0053819Y0441276D02*
X0013500Y0441276D01*
X0013500Y0446275D02*
X0053819Y0446275D01*
X0053819Y0451273D02*
X0013500Y0451273D01*
X0013500Y0456272D02*
X0053819Y0456272D01*
X0053819Y0461270D02*
X0013500Y0461270D01*
X0013500Y0466269D02*
X0053819Y0466269D01*
X0053819Y0471268D02*
X0013500Y0471268D01*
X0013500Y0476266D02*
X0053819Y0476266D01*
X0162827Y0476266D02*
X0651851Y0476266D01*
X0646126Y0471268D02*
X0162827Y0471268D01*
X0162827Y0466269D02*
X0257762Y0466269D01*
X0257893Y0466400D02*
X0253500Y0462007D01*
X0253500Y0455793D01*
X0257893Y0451400D01*
X0264107Y0451400D01*
X0268500Y0455793D01*
X0268500Y0462007D01*
X0264107Y0466400D01*
X0257893Y0466400D01*
X0264238Y0466269D02*
X0273950Y0466269D01*
X0274508Y0466500D02*
X0271752Y0465358D01*
X0269642Y0463248D01*
X0268500Y0460492D01*
X0268500Y0452308D01*
X0269642Y0449552D01*
X0271752Y0447442D01*
X0274508Y0446300D01*
X0277492Y0446300D01*
X0280248Y0447442D01*
X0282358Y0449552D01*
X0283500Y0452308D01*
X0283500Y0460492D01*
X0282358Y0463248D01*
X0280248Y0465358D01*
X0277492Y0466500D01*
X0274508Y0466500D01*
X0278050Y0466269D02*
X0643977Y0466269D01*
X0643600Y0461270D02*
X0556836Y0461270D01*
X0557358Y0460748D02*
X0555248Y0462858D01*
X0552492Y0464000D01*
X0549508Y0464000D01*
X0546752Y0462858D01*
X0544642Y0460748D01*
X0543500Y0457992D01*
X0543500Y0449808D01*
X0544642Y0447052D01*
X0546752Y0444942D01*
X0549508Y0443800D01*
X0552492Y0443800D01*
X0555248Y0444942D01*
X0557358Y0447052D01*
X0558500Y0449808D01*
X0558500Y0457992D01*
X0557358Y0460748D01*
X0558500Y0456272D02*
X0645122Y0456272D01*
X0649055Y0451273D02*
X0558500Y0451273D01*
X0543500Y0451273D02*
X0541480Y0451273D01*
X0543500Y0453293D02*
X0539107Y0448900D01*
X0532893Y0448900D01*
X0528500Y0453293D01*
X0528500Y0459507D01*
X0532893Y0463900D01*
X0539107Y0463900D01*
X0543500Y0459507D01*
X0543500Y0453293D01*
X0543500Y0456272D02*
X0543500Y0456272D01*
X0545164Y0461270D02*
X0541736Y0461270D01*
X0530264Y0461270D02*
X0469236Y0461270D01*
X0469107Y0461400D02*
X0462893Y0461400D01*
X0461000Y0459507D01*
X0459107Y0461400D01*
X0452893Y0461400D01*
X0448500Y0457007D01*
X0448500Y0450793D01*
X0452893Y0446400D01*
X0459107Y0446400D01*
X0461000Y0448293D01*
X0462893Y0446400D01*
X0469107Y0446400D01*
X0473500Y0450793D01*
X0473500Y0457007D01*
X0469107Y0461400D01*
X0462764Y0461270D02*
X0459236Y0461270D01*
X0452764Y0461270D02*
X0426836Y0461270D01*
X0427358Y0460748D02*
X0425248Y0462858D01*
X0422492Y0464000D01*
X0419508Y0464000D01*
X0416752Y0462858D01*
X0414642Y0460748D01*
X0413500Y0457992D01*
X0413500Y0449808D01*
X0414642Y0447052D01*
X0416752Y0444942D01*
X0419508Y0443800D01*
X0422492Y0443800D01*
X0425248Y0444942D01*
X0427358Y0447052D01*
X0428500Y0449808D01*
X0428500Y0457992D01*
X0427358Y0460748D01*
X0428500Y0456272D02*
X0448500Y0456272D01*
X0448500Y0451273D02*
X0428500Y0451273D01*
X0413500Y0451273D02*
X0411480Y0451273D01*
X0413500Y0453293D02*
X0409107Y0448900D01*
X0402893Y0448900D01*
X0398500Y0453293D01*
X0398500Y0459507D01*
X0402893Y0463900D01*
X0409107Y0463900D01*
X0413500Y0459507D01*
X0413500Y0453293D01*
X0413500Y0456272D02*
X0413500Y0456272D01*
X0415164Y0461270D02*
X0411736Y0461270D01*
X0400264Y0461270D02*
X0334236Y0461270D01*
X0334107Y0461400D02*
X0327893Y0461400D01*
X0323500Y0457007D01*
X0319107Y0461400D01*
X0312893Y0461400D01*
X0308500Y0457007D01*
X0308500Y0450793D01*
X0312893Y0446400D01*
X0319107Y0446400D01*
X0323500Y0450793D01*
X0323500Y0457007D01*
X0323500Y0450793D01*
X0327893Y0446400D01*
X0334107Y0446400D01*
X0338500Y0450793D01*
X0338500Y0457007D01*
X0334107Y0461400D01*
X0327764Y0461270D02*
X0319236Y0461270D01*
X0312764Y0461270D02*
X0283177Y0461270D01*
X0283500Y0456272D02*
X0308500Y0456272D01*
X0308500Y0451273D02*
X0283071Y0451273D01*
X0268929Y0451273D02*
X0237731Y0451273D01*
X0237487Y0451375D02*
X0234513Y0451375D01*
X0231766Y0450237D01*
X0229663Y0448134D01*
X0228525Y0445387D01*
X0228525Y0442413D01*
X0229663Y0439666D01*
X0230429Y0438900D01*
X0229663Y0438134D01*
X0228525Y0435387D01*
X0228525Y0432413D01*
X0229663Y0429666D01*
X0231766Y0427563D01*
X0234513Y0426425D01*
X0237487Y0426425D01*
X0238500Y0426845D01*
X0238500Y0420793D01*
X0241643Y0417650D01*
X0238500Y0414507D01*
X0238500Y0408293D01*
X0240393Y0406400D01*
X0238500Y0404507D01*
X0238500Y0398293D01*
X0239898Y0396895D01*
X0239048Y0396045D01*
X0237800Y0393031D01*
X0237800Y0389769D01*
X0239048Y0386755D01*
X0241355Y0384448D01*
X0244369Y0383200D01*
X0247631Y0383200D01*
X0250645Y0384448D01*
X0252952Y0386755D01*
X0254200Y0389769D01*
X0254200Y0393031D01*
X0252952Y0396045D01*
X0252102Y0396895D01*
X0253500Y0398293D01*
X0253500Y0404507D01*
X0251607Y0406400D01*
X0253500Y0408293D01*
X0253500Y0414507D01*
X0250357Y0417650D01*
X0253500Y0420793D01*
X0253500Y0427007D01*
X0249107Y0431400D01*
X0243055Y0431400D01*
X0243475Y0432413D01*
X0243475Y0435387D01*
X0242337Y0438134D01*
X0241571Y0438900D01*
X0242337Y0439666D01*
X0243475Y0442413D01*
X0243475Y0445387D01*
X0242337Y0448134D01*
X0240234Y0450237D01*
X0237487Y0451375D01*
X0234269Y0451273D02*
X0207731Y0451273D01*
X0204269Y0451273D02*
X0196000Y0451273D01*
X0196000Y0450793D02*
X0191607Y0446400D01*
X0185393Y0446400D01*
X0182250Y0449543D01*
X0179107Y0446400D01*
X0172893Y0446400D01*
X0168500Y0450793D01*
X0168500Y0457007D01*
X0172893Y0461400D01*
X0179107Y0461400D01*
X0182250Y0458257D01*
X0185393Y0461400D01*
X0191607Y0461400D01*
X0196000Y0457007D01*
X0196000Y0450793D01*
X0198893Y0446275D02*
X0162827Y0446275D01*
X0162827Y0441276D02*
X0198996Y0441276D01*
X0198894Y0436278D02*
X0150302Y0436278D01*
X0162827Y0431279D02*
X0198995Y0431279D01*
X0198500Y0426281D02*
X0162827Y0426281D01*
X0162827Y0421282D02*
X0172776Y0421282D01*
X0172893Y0421400D02*
X0168500Y0417007D01*
X0168500Y0410793D01*
X0172893Y0406400D01*
X0179107Y0406400D01*
X0182250Y0409543D01*
X0185393Y0406400D01*
X0191607Y0406400D01*
X0196000Y0410793D01*
X0196000Y0417007D01*
X0191607Y0421400D01*
X0185393Y0421400D01*
X0182250Y0418257D01*
X0179107Y0421400D01*
X0172893Y0421400D01*
X0179224Y0421282D02*
X0185276Y0421282D01*
X0191724Y0421282D02*
X0198500Y0421282D01*
X0200277Y0416284D02*
X0196000Y0416284D01*
X0196000Y0411285D02*
X0198500Y0411285D01*
X0200280Y0406287D02*
X0162827Y0406287D01*
X0162827Y0411285D02*
X0168500Y0411285D01*
X0168500Y0416284D02*
X0162827Y0416284D01*
X0162827Y0401288D02*
X0198500Y0401288D01*
X0199293Y0396290D02*
X0162548Y0396290D01*
X0110823Y0396290D02*
X0105823Y0396290D01*
X0105823Y0401288D02*
X0110823Y0401288D01*
X0110823Y0406287D02*
X0105823Y0406287D01*
X0105823Y0411285D02*
X0110823Y0411285D01*
X0110823Y0416284D02*
X0105823Y0416284D01*
X0105823Y0421282D02*
X0110823Y0421282D01*
X0110823Y0426281D02*
X0105823Y0426281D01*
X0105823Y0431279D02*
X0110823Y0431279D01*
X0162827Y0451273D02*
X0168500Y0451273D01*
X0168500Y0456272D02*
X0162827Y0456272D01*
X0162827Y0461270D02*
X0172764Y0461270D01*
X0179236Y0461270D02*
X0185264Y0461270D01*
X0191736Y0461270D02*
X0253500Y0461270D01*
X0253500Y0456272D02*
X0196000Y0456272D01*
X0213107Y0446275D02*
X0228893Y0446275D01*
X0228996Y0441276D02*
X0213004Y0441276D01*
X0213106Y0436278D02*
X0228894Y0436278D01*
X0228995Y0431279D02*
X0213005Y0431279D01*
X0213500Y0426281D02*
X0238500Y0426281D01*
X0238500Y0421282D02*
X0213500Y0421282D01*
X0211723Y0416284D02*
X0240277Y0416284D01*
X0238500Y0411285D02*
X0213500Y0411285D01*
X0211720Y0406287D02*
X0240280Y0406287D01*
X0238500Y0401288D02*
X0213500Y0401288D01*
X0212707Y0396290D02*
X0239293Y0396290D01*
X0237800Y0391291D02*
X0214200Y0391291D01*
X0212489Y0386293D02*
X0239511Y0386293D01*
X0252489Y0386293D02*
X0340704Y0386293D01*
X0340615Y0391291D02*
X0254200Y0391291D01*
X0252707Y0396290D02*
X0343004Y0396290D01*
X0341000Y0401288D02*
X0253500Y0401288D01*
X0251720Y0406287D02*
X0342780Y0406287D01*
X0341000Y0411285D02*
X0338500Y0411285D01*
X0338500Y0410793D02*
X0334107Y0406400D01*
X0327893Y0406400D01*
X0323500Y0410793D01*
X0319107Y0406400D01*
X0312893Y0406400D01*
X0308500Y0410793D01*
X0308500Y0417007D01*
X0312893Y0421400D01*
X0319107Y0421400D01*
X0323500Y0417007D01*
X0323500Y0410793D01*
X0323500Y0417007D01*
X0327893Y0421400D01*
X0334107Y0421400D01*
X0338500Y0417007D01*
X0338500Y0410793D01*
X0338500Y0416284D02*
X0342777Y0416284D01*
X0341000Y0421282D02*
X0334224Y0421282D01*
X0327776Y0421282D02*
X0319224Y0421282D01*
X0312776Y0421282D02*
X0283075Y0421282D01*
X0283500Y0422308D02*
X0282358Y0419552D01*
X0280248Y0417442D01*
X0277492Y0416300D01*
X0274508Y0416300D01*
X0271752Y0417442D01*
X0269642Y0419552D01*
X0268500Y0422308D01*
X0268500Y0430492D01*
X0269642Y0433248D01*
X0271752Y0435358D01*
X0274508Y0436500D01*
X0277492Y0436500D01*
X0280248Y0435358D01*
X0282358Y0433248D01*
X0283500Y0430492D01*
X0283500Y0422308D01*
X0283500Y0426281D02*
X0341000Y0426281D01*
X0341495Y0431279D02*
X0283174Y0431279D01*
X0278028Y0436278D02*
X0341394Y0436278D01*
X0341496Y0441276D02*
X0243004Y0441276D01*
X0243106Y0436278D02*
X0273972Y0436278D01*
X0268826Y0431279D02*
X0249227Y0431279D01*
X0253500Y0426281D02*
X0257774Y0426281D01*
X0257893Y0426400D02*
X0253500Y0422007D01*
X0253500Y0415793D01*
X0257893Y0411400D01*
X0264107Y0411400D01*
X0268500Y0415793D01*
X0268500Y0422007D01*
X0264107Y0426400D01*
X0257893Y0426400D01*
X0264226Y0426281D02*
X0268500Y0426281D01*
X0268500Y0421282D02*
X0268925Y0421282D01*
X0268500Y0416284D02*
X0308500Y0416284D01*
X0308500Y0411285D02*
X0253500Y0411285D01*
X0253500Y0416284D02*
X0251723Y0416284D01*
X0253500Y0421282D02*
X0253500Y0421282D01*
X0243107Y0446275D02*
X0341393Y0446275D01*
X0355607Y0446275D02*
X0371393Y0446275D01*
X0371496Y0441276D02*
X0355504Y0441276D01*
X0355606Y0436278D02*
X0371394Y0436278D01*
X0371495Y0431279D02*
X0355505Y0431279D01*
X0356000Y0426281D02*
X0381000Y0426281D01*
X0381000Y0421282D02*
X0356000Y0421282D01*
X0354223Y0416284D02*
X0382777Y0416284D01*
X0381000Y0411285D02*
X0356000Y0411285D01*
X0354220Y0406287D02*
X0382780Y0406287D01*
X0381000Y0401288D02*
X0356000Y0401288D01*
X0353996Y0396290D02*
X0383004Y0396290D01*
X0380615Y0391291D02*
X0356385Y0391291D01*
X0356296Y0386293D02*
X0380704Y0386293D01*
X0396296Y0386293D02*
X0472800Y0386293D01*
X0474295Y0391291D02*
X0396385Y0391291D01*
X0393996Y0396290D02*
X0473500Y0396290D01*
X0473500Y0401288D02*
X0396000Y0401288D01*
X0394220Y0406287D02*
X0475507Y0406287D01*
X0473500Y0410793D02*
X0469107Y0406400D01*
X0462893Y0406400D01*
X0461000Y0408293D01*
X0459107Y0406400D01*
X0452893Y0406400D01*
X0448500Y0410793D01*
X0448500Y0417007D01*
X0452893Y0421400D01*
X0459107Y0421400D01*
X0461000Y0419507D01*
X0462893Y0421400D01*
X0469107Y0421400D01*
X0473500Y0417007D01*
X0473500Y0410793D01*
X0473500Y0411285D02*
X0473500Y0411285D01*
X0473500Y0416284D02*
X0475277Y0416284D01*
X0473500Y0421282D02*
X0469224Y0421282D01*
X0462776Y0421282D02*
X0459224Y0421282D01*
X0452776Y0421282D02*
X0428500Y0421282D01*
X0428500Y0419808D02*
X0428500Y0427992D01*
X0427358Y0430748D01*
X0425248Y0432858D01*
X0422492Y0434000D01*
X0419508Y0434000D01*
X0416752Y0432858D01*
X0414642Y0430748D01*
X0413500Y0427992D01*
X0413500Y0419808D01*
X0414642Y0417052D01*
X0416752Y0414942D01*
X0419508Y0413800D01*
X0422492Y0413800D01*
X0425248Y0414942D01*
X0427358Y0417052D01*
X0428500Y0419808D01*
X0426590Y0416284D02*
X0448500Y0416284D01*
X0448500Y0411285D02*
X0411492Y0411285D01*
X0413500Y0413293D02*
X0409107Y0408900D01*
X0402893Y0408900D01*
X0398500Y0413293D01*
X0398500Y0419507D01*
X0402893Y0423900D01*
X0409107Y0423900D01*
X0413500Y0419507D01*
X0413500Y0413293D01*
X0413500Y0416284D02*
X0415410Y0416284D01*
X0413500Y0421282D02*
X0411724Y0421282D01*
X0413500Y0426281D02*
X0396000Y0426281D01*
X0396000Y0421282D02*
X0400276Y0421282D01*
X0398500Y0416284D02*
X0394223Y0416284D01*
X0396000Y0411285D02*
X0400508Y0411285D01*
X0428500Y0426281D02*
X0473500Y0426281D01*
X0473995Y0431279D02*
X0426827Y0431279D01*
X0415173Y0431279D02*
X0391727Y0431279D01*
X0385606Y0436278D02*
X0473894Y0436278D01*
X0473996Y0441276D02*
X0385504Y0441276D01*
X0385607Y0446275D02*
X0415418Y0446275D01*
X0426582Y0446275D02*
X0473893Y0446275D01*
X0488107Y0446275D02*
X0503893Y0446275D01*
X0503996Y0441276D02*
X0488004Y0441276D01*
X0488106Y0436278D02*
X0503894Y0436278D01*
X0503995Y0431279D02*
X0488005Y0431279D01*
X0488500Y0426281D02*
X0513500Y0426281D01*
X0513500Y0421282D02*
X0488500Y0421282D01*
X0486723Y0416284D02*
X0515277Y0416284D01*
X0513500Y0411285D02*
X0488500Y0411285D01*
X0524227Y0431279D02*
X0545173Y0431279D01*
X0556827Y0431279D02*
X0737146Y0431279D01*
X0737196Y0431464D02*
X0736350Y0428309D01*
X0736350Y0425042D01*
X0737196Y0421887D01*
X0738829Y0419058D01*
X0741139Y0416749D01*
X0743968Y0415115D01*
X0747123Y0414270D01*
X0750389Y0414270D01*
X0753544Y0415115D01*
X0756373Y0416749D01*
X0758683Y0419058D01*
X0760316Y0421887D01*
X0761161Y0425042D01*
X0761161Y0428309D01*
X0760316Y0431464D01*
X0758683Y0434293D01*
X0756373Y0436602D01*
X0753544Y0438236D01*
X0750389Y0439081D01*
X0747123Y0439081D01*
X0743968Y0438236D01*
X0741139Y0436602D01*
X0738829Y0434293D01*
X0737196Y0431464D01*
X0736350Y0426281D02*
X0558500Y0426281D01*
X0558500Y0421282D02*
X0737545Y0421282D01*
X0741944Y0416284D02*
X0556590Y0416284D01*
X0518106Y0436278D02*
X0740814Y0436278D01*
X0756698Y0436278D02*
X0825302Y0436278D01*
X0821635Y0431279D02*
X0760365Y0431279D01*
X0761161Y0426281D02*
X0820839Y0426281D01*
X0822033Y0421282D02*
X0759967Y0421282D01*
X0755568Y0416284D02*
X0826432Y0416284D01*
X0816139Y0407389D02*
X0815815Y0407583D01*
X0815166Y0407679D01*
X0814538Y0407867D01*
X0814162Y0407829D01*
X0813771Y0407887D01*
X0813423Y0408033D01*
X0812767Y0408036D01*
X0812118Y0408133D01*
X0811752Y0408041D01*
X0811708Y0408041D01*
X0811685Y0408051D01*
X0810685Y0408046D01*
X0809686Y0408051D01*
X0809662Y0408041D01*
X0809618Y0408041D01*
X0809252Y0408133D01*
X0808603Y0408036D01*
X0807947Y0408033D01*
X0807599Y0407887D01*
X0807208Y0407829D01*
X0806832Y0407867D01*
X0806204Y0407679D01*
X0805555Y0407583D01*
X0805231Y0407389D01*
X0804852Y0407275D01*
X0804475Y0407260D01*
X0803880Y0406985D01*
X0803251Y0406797D01*
X0802958Y0406558D01*
X0802600Y0406393D01*
X0802228Y0406324D01*
X0801678Y0405966D01*
X0801083Y0405691D01*
X0800827Y0405413D01*
X0800495Y0405198D01*
X0800138Y0405077D01*
X0799644Y0404645D01*
X0799094Y0404288D01*
X0798880Y0403977D01*
X0798583Y0403716D01*
X0798246Y0403546D01*
X0797819Y0403048D01*
X0797325Y0402616D01*
X0797157Y0402277D01*
X0796900Y0401978D01*
X0796591Y0401761D01*
X0796239Y0401207D01*
X0795812Y0400709D01*
X0795694Y0400350D01*
X0795482Y0400017D01*
X0795207Y0399758D01*
X0794938Y0399160D01*
X0794586Y0398607D01*
X0794520Y0398235D01*
X0794358Y0397875D01*
X0794122Y0397579D01*
X0793941Y0396949D01*
X0793671Y0396351D01*
X0793659Y0395974D01*
X0793550Y0395594D01*
X0793359Y0395268D01*
X0793268Y0394618D01*
X0793087Y0393988D01*
X0793129Y0393613D01*
X0793076Y0393234D01*
X0792937Y0392897D01*
X0792937Y0392228D01*
X0792845Y0391566D01*
X0792937Y0391213D01*
X0792937Y0370807D01*
X0792838Y0370383D01*
X0792937Y0369793D01*
X0792937Y0369194D01*
X0793103Y0368792D01*
X0793172Y0368382D01*
X0793140Y0368006D01*
X0793339Y0367381D01*
X0793446Y0366734D01*
X0793646Y0366414D01*
X0793754Y0366074D01*
X0793776Y0365697D01*
X0794062Y0365106D01*
X0794261Y0364481D01*
X0794504Y0364193D01*
X0794660Y0363872D01*
X0794735Y0363502D01*
X0795102Y0362958D01*
X0795388Y0362367D01*
X0795670Y0362116D01*
X0795869Y0361821D01*
X0795996Y0361465D01*
X0796437Y0360979D01*
X0796804Y0360435D01*
X0797119Y0360227D01*
X0797358Y0359963D01*
X0797535Y0359629D01*
X0798040Y0359211D01*
X0798480Y0358724D01*
X0798822Y0358563D01*
X0799096Y0358336D01*
X0799319Y0358030D01*
X0799878Y0357688D01*
X0800384Y0357270D01*
X0800744Y0357158D01*
X0801049Y0356972D01*
X0801312Y0356702D01*
X0801915Y0356443D01*
X0802474Y0356101D01*
X0802847Y0356042D01*
X0803175Y0355901D01*
X0803474Y0355671D01*
X0804108Y0355500D01*
X0804710Y0355241D01*
X0805088Y0355236D01*
X0805432Y0355143D01*
X0805761Y0354958D01*
X0806412Y0354879D01*
X0807046Y0354708D01*
X0807420Y0354757D01*
X0807774Y0354714D01*
X0808126Y0354577D01*
X0808782Y0354592D01*
X0809433Y0354513D01*
X0809797Y0354615D01*
X0810685Y0354635D01*
X0811573Y0354615D01*
X0811937Y0354513D01*
X0812588Y0354592D01*
X0813244Y0354577D01*
X0813596Y0354714D01*
X0813950Y0354757D01*
X0814324Y0354708D01*
X0814958Y0354879D01*
X0815609Y0354958D01*
X0815938Y0355143D01*
X0816282Y0355236D01*
X0816660Y0355241D01*
X0817262Y0355500D01*
X0817896Y0355671D01*
X0818195Y0355901D01*
X0818523Y0356042D01*
X0818896Y0356101D01*
X0819455Y0356443D01*
X0820058Y0356702D01*
X0820321Y0356972D01*
X0820626Y0357158D01*
X0820986Y0357270D01*
X0821492Y0357688D01*
X0822051Y0358030D01*
X0822274Y0358336D01*
X0822548Y0358563D01*
X0822890Y0358724D01*
X0823330Y0359211D01*
X0823835Y0359629D01*
X0824012Y0359963D01*
X0824251Y0360227D01*
X0824566Y0360435D01*
X0824933Y0360979D01*
X0825374Y0361465D01*
X0825501Y0361821D01*
X0825700Y0362116D01*
X0825982Y0362367D01*
X0826268Y0362958D01*
X0826635Y0363502D01*
X0826710Y0363872D01*
X0826866Y0364193D01*
X0827109Y0364481D01*
X0827308Y0365106D01*
X0827594Y0365697D01*
X0827616Y0366074D01*
X0827724Y0366414D01*
X0827924Y0366734D01*
X0828032Y0367381D01*
X0828230Y0368006D01*
X0828198Y0368382D01*
X0828267Y0368792D01*
X0828433Y0369194D01*
X0828433Y0369793D01*
X0828532Y0370383D01*
X0828433Y0370807D01*
X0828433Y0391213D01*
X0828525Y0391566D01*
X0828433Y0392228D01*
X0828433Y0392897D01*
X0828294Y0393234D01*
X0828241Y0393613D01*
X0828283Y0393988D01*
X0828102Y0394618D01*
X0828011Y0395268D01*
X0827820Y0395594D01*
X0827711Y0395974D01*
X0827699Y0396351D01*
X0827429Y0396949D01*
X0827248Y0397579D01*
X0827012Y0397875D01*
X0826850Y0398235D01*
X0826785Y0398607D01*
X0826432Y0399160D01*
X0826163Y0399758D01*
X0825888Y0400017D01*
X0825676Y0400350D01*
X0825558Y0400709D01*
X0825131Y0401207D01*
X0824779Y0401761D01*
X0824470Y0401978D01*
X0824213Y0402277D01*
X0824045Y0402616D01*
X0823551Y0403048D01*
X0823124Y0403546D01*
X0822787Y0403716D01*
X0822490Y0403977D01*
X0822276Y0404288D01*
X0821726Y0404645D01*
X0821232Y0405077D01*
X0820875Y0405198D01*
X0820543Y0405413D01*
X0820287Y0405691D01*
X0819692Y0405966D01*
X0819142Y0406324D01*
X0818770Y0406393D01*
X0818412Y0406558D01*
X0818119Y0406797D01*
X0817490Y0406985D01*
X0816895Y0407260D01*
X0816518Y0407275D01*
X0816139Y0407389D01*
X0819198Y0406287D02*
X0839709Y0406287D01*
X0839623Y0411285D02*
X0675683Y0411285D01*
X0676700Y0406287D02*
X0764866Y0406287D01*
X0771000Y0406400D02*
X0771315Y0406085D01*
X0771315Y0400731D01*
X0776039Y0399550D02*
X0779189Y0396400D01*
X0779780Y0396400D01*
X0781000Y0396400D01*
X0786000Y0401400D01*
X0784925Y0399981D02*
X0784925Y0399981D01*
X0783991Y0401195D02*
X0783991Y0401195D01*
X0783903Y0401288D02*
X0796291Y0401288D01*
X0793669Y0396290D02*
X0786798Y0396290D01*
X0786955Y0395876D02*
X0786955Y0395876D01*
X0787353Y0394397D02*
X0787353Y0394397D01*
X0787604Y0392886D02*
X0787604Y0392886D01*
X0786618Y0391291D02*
X0792916Y0391291D01*
X0792937Y0386293D02*
X0787663Y0386293D01*
X0788042Y0381294D02*
X0792937Y0381294D01*
X0792937Y0376296D02*
X0788042Y0376296D01*
X0788042Y0371297D02*
X0792937Y0371297D01*
X0793683Y0366299D02*
X0786973Y0366299D01*
X0784927Y0361300D02*
X0796146Y0361300D01*
X0802145Y0356302D02*
X0775497Y0356302D01*
X0781989Y0351303D02*
X0840657Y0351303D01*
X0840743Y0346305D02*
X0782881Y0346305D01*
X0787881Y0341306D02*
X0840829Y0341306D01*
X0840915Y0336308D02*
X0787881Y0336308D01*
X0819225Y0356302D02*
X0840571Y0356302D01*
X0840484Y0361300D02*
X0825224Y0361300D01*
X0827687Y0366299D02*
X0840398Y0366299D01*
X0840312Y0371297D02*
X0828433Y0371297D01*
X0828433Y0376296D02*
X0840226Y0376296D01*
X0840140Y0381294D02*
X0828433Y0381294D01*
X0828433Y0386293D02*
X0840054Y0386293D01*
X0839967Y0391291D02*
X0828454Y0391291D01*
X0827701Y0396290D02*
X0839881Y0396290D01*
X0839795Y0401288D02*
X0825079Y0401288D01*
X0802172Y0406287D02*
X0775548Y0406287D01*
X0773360Y0406640D02*
X0773360Y0406640D01*
X0771571Y0406287D02*
X0771059Y0406287D01*
X0777822Y0405605D02*
X0777822Y0405605D01*
X0779217Y0404975D02*
X0779217Y0404975D01*
X0779780Y0405180D02*
X0781000Y0406400D01*
X0779780Y0405180D02*
X0779780Y0396400D01*
X0781157Y0391872D02*
X0783972Y0391872D01*
X0788500Y0396400D01*
X0776039Y0399550D02*
X0771315Y0394825D01*
X0771315Y0391243D01*
X0755831Y0396290D02*
X0675590Y0396290D01*
X0676700Y0401288D02*
X0758003Y0401288D01*
X0780544Y0404211D02*
X0780544Y0404211D01*
X0781790Y0403320D02*
X0781790Y0403320D01*
X0839106Y0441276D02*
X0518004Y0441276D01*
X0518107Y0446275D02*
X0545418Y0446275D01*
X0556582Y0446275D02*
X0839019Y0446275D01*
X0838933Y0451273D02*
X0667945Y0451273D01*
X0671878Y0456272D02*
X0838847Y0456272D01*
X0838761Y0461270D02*
X0673400Y0461270D01*
X0673023Y0466269D02*
X0838675Y0466269D01*
X0838588Y0471268D02*
X0670874Y0471268D01*
X0665149Y0476266D02*
X0838502Y0476266D01*
X0530520Y0451273D02*
X0512731Y0451273D01*
X0509269Y0451273D02*
X0482731Y0451273D01*
X0479269Y0451273D02*
X0473500Y0451273D01*
X0473500Y0456272D02*
X0528500Y0456272D01*
X0400520Y0451273D02*
X0380231Y0451273D01*
X0376769Y0451273D02*
X0350231Y0451273D01*
X0346769Y0451273D02*
X0338500Y0451273D01*
X0338500Y0456272D02*
X0398500Y0456272D01*
X0323500Y0456272D02*
X0323500Y0456272D01*
X0323500Y0451273D02*
X0323500Y0451273D01*
X0268500Y0456272D02*
X0268500Y0456272D01*
X0268500Y0461270D02*
X0268823Y0461270D01*
X0323500Y0416284D02*
X0323500Y0416284D01*
X0323500Y0411285D02*
X0323500Y0411285D01*
X0320850Y0373700D02*
X0317615Y0372360D01*
X0315140Y0369885D01*
X0313800Y0366650D01*
X0313800Y0363150D01*
X0315140Y0359915D01*
X0317615Y0357440D01*
X0320850Y0356100D01*
X0332150Y0356100D01*
X0335385Y0357440D01*
X0337860Y0359915D01*
X0339200Y0363150D01*
X0339200Y0366650D01*
X0337860Y0369885D01*
X0335385Y0372360D01*
X0332150Y0373700D01*
X0320850Y0373700D01*
X0316552Y0371297D02*
X0261948Y0371297D01*
X0260885Y0372360D02*
X0257650Y0373700D01*
X0246350Y0373700D01*
X0243115Y0372360D01*
X0240640Y0369885D01*
X0239300Y0366650D01*
X0239300Y0363150D01*
X0240640Y0359915D01*
X0243115Y0357440D01*
X0246350Y0356100D01*
X0257650Y0356100D01*
X0260885Y0357440D01*
X0263360Y0359915D01*
X0264700Y0363150D01*
X0264700Y0366650D01*
X0263360Y0369885D01*
X0260885Y0372360D01*
X0264700Y0366299D02*
X0313800Y0366299D01*
X0314566Y0361300D02*
X0263934Y0361300D01*
X0258137Y0356302D02*
X0320362Y0356302D01*
X0332637Y0356302D02*
X0368362Y0356302D01*
X0368850Y0356100D02*
X0380150Y0356100D01*
X0383385Y0357440D01*
X0385860Y0359915D01*
X0387200Y0363150D01*
X0387200Y0366650D01*
X0385860Y0369885D01*
X0383385Y0372360D01*
X0380150Y0373700D01*
X0368850Y0373700D01*
X0365615Y0372360D01*
X0363140Y0369885D01*
X0361800Y0366650D01*
X0361800Y0363150D01*
X0363140Y0359915D01*
X0365615Y0357440D01*
X0368850Y0356100D01*
X0362566Y0361300D02*
X0338434Y0361300D01*
X0339200Y0366299D02*
X0361800Y0366299D01*
X0364552Y0371297D02*
X0336448Y0371297D01*
X0380637Y0356302D02*
X0417862Y0356302D01*
X0412066Y0361300D02*
X0386434Y0361300D01*
X0387200Y0366299D02*
X0411300Y0366299D01*
X0414052Y0371297D02*
X0384448Y0371297D01*
X0425460Y0346305D02*
X0646000Y0346305D01*
X0646000Y0341306D02*
X0427300Y0341306D01*
X0245862Y0356302D02*
X0210137Y0356302D01*
X0215934Y0361300D02*
X0240066Y0361300D01*
X0239300Y0366299D02*
X0216700Y0366299D01*
X0213948Y0371297D02*
X0242052Y0371297D01*
X0661000Y0346305D02*
X0686000Y0346305D01*
X0686000Y0341306D02*
X0661000Y0341306D01*
X0868500Y0186400D02*
X0878500Y0186400D01*
X0968500Y0186400D02*
X0978500Y0186400D01*
X1068500Y0186400D02*
X1078500Y0186400D01*
X1168500Y0186400D02*
X1178500Y0186400D01*
X1268500Y0186400D02*
X1278500Y0186400D01*
X1368500Y0186400D02*
X1378500Y0186400D01*
D38*
X1368500Y0186400D02*
X1368500Y0173900D01*
X1238500Y0043900D01*
X1168500Y0043900D01*
X1164720Y0047680D01*
X1164720Y0088998D01*
X1142280Y0088998D02*
X1142280Y0047680D01*
X1141000Y0043900D01*
X0943500Y0043900D01*
X0941000Y0046400D01*
X0941000Y0113900D01*
X0936000Y0116400D01*
X0871000Y0116400D01*
X0868500Y0118900D01*
X0868500Y0186400D01*
X0968500Y0186400D02*
X0968500Y0083900D01*
X0976000Y0076400D01*
X1083500Y0076400D01*
X1116000Y0076400D02*
X1119839Y0080239D01*
X1119839Y0088998D01*
X1097398Y0088998D02*
X1095902Y0088998D01*
X1078500Y0096400D01*
X1068500Y0101400D01*
X1068500Y0186400D01*
X1168500Y0186400D02*
X1168500Y0171400D01*
X1173500Y0166400D01*
X1223500Y0166400D01*
X1228500Y0161400D01*
X1228500Y0103900D01*
X1213598Y0088998D01*
X1209602Y0088998D01*
X1187161Y0088998D02*
X1187161Y0080239D01*
X1191000Y0076400D01*
X1223500Y0076400D02*
X1268500Y0121400D01*
X1268500Y0186400D01*
X0472000Y0177400D02*
X0468500Y0173900D01*
X0426000Y0173900D01*
X0426000Y0152148D01*
X0426374Y0151774D01*
X0472000Y0177400D02*
X0472000Y0317900D01*
X0386000Y0303900D02*
X0386000Y0191400D01*
X0381000Y0186400D01*
X0338500Y0186400D01*
X0336000Y0183900D01*
X0336000Y0151931D01*
X0336157Y0151774D01*
X0256374Y0151774D02*
X0256000Y0151400D01*
X0256000Y0148900D01*
X0256000Y0151400D02*
X0256000Y0176400D01*
X0261000Y0181400D01*
X0291000Y0181400D01*
X0298500Y0188900D01*
X0298500Y0298900D01*
X0293500Y0303900D01*
X0253500Y0303900D01*
X0252000Y0305400D01*
X0252000Y0317900D01*
X0374500Y0317900D02*
X0374500Y0312900D01*
X0386000Y0303900D01*
D39*
X1083500Y0076400D02*
X1116000Y0076400D01*
X1191000Y0076400D02*
X1223500Y0076400D01*
D40*
X0179080Y0161571D02*
X0179957Y0218599D01*
X0179080Y0218599D01*
X0175569Y0220054D01*
X0174117Y0221506D01*
X0172311Y0219700D01*
X0164689Y0219700D01*
X0159300Y0225089D01*
X0159300Y0232711D01*
X0164689Y0238100D01*
X0172311Y0238100D01*
X0174865Y0235546D01*
X0175569Y0236250D01*
X0179080Y0237705D01*
X0180251Y0237705D01*
X0180753Y0270358D01*
X0176250Y0274861D01*
X0176250Y0282939D01*
X0181000Y0287689D01*
X0181000Y0288900D01*
X0096000Y0288900D01*
X0096000Y0219988D01*
X0099041Y0221248D01*
X0102959Y0221248D01*
X0106578Y0219749D01*
X0109349Y0216978D01*
X0110848Y0213359D01*
X0110848Y0209441D01*
X0109349Y0205822D01*
X0106578Y0203051D01*
X0102959Y0201552D01*
X0099041Y0201552D01*
X0096000Y0202812D01*
X0096000Y0196700D01*
X0120052Y0196700D01*
X0122918Y0195513D01*
X0125113Y0193318D01*
X0127613Y0190818D01*
X0128800Y0187952D01*
X0128800Y0180101D01*
X0129393Y0179508D01*
X0130900Y0175869D01*
X0130900Y0171931D01*
X0129459Y0168452D01*
X0130200Y0167711D01*
X0130200Y0160089D01*
X0129011Y0158900D01*
X0130200Y0157711D01*
X0130200Y0150089D01*
X0127761Y0147650D01*
X0130200Y0145211D01*
X0130200Y0137589D01*
X0128904Y0136293D01*
X0130175Y0133225D01*
X0130175Y0129575D01*
X0128860Y0126400D01*
X0129895Y0123900D01*
X0178500Y0123900D01*
X0178534Y0126131D01*
X0178470Y0126121D01*
X0177879Y0126085D01*
X0177682Y0126059D01*
X0177448Y0126059D01*
X0177215Y0126045D01*
X0177017Y0126059D01*
X0160175Y0126059D01*
X0158533Y0126212D01*
X0158533Y0126212D01*
X0157771Y0126354D01*
X0156911Y0126515D01*
X0156911Y0126515D01*
X0155465Y0126926D01*
X0155324Y0126966D01*
X0155324Y0126966D01*
X0153786Y0127562D01*
X0153500Y0127705D01*
X0153500Y0130026D01*
X0153500Y0127705D01*
X0152309Y0128297D01*
X0150907Y0129166D01*
X0149590Y0130160D01*
X0149590Y0130160D01*
X0148371Y0131271D01*
X0148371Y0131271D01*
X0147260Y0132490D01*
X0146266Y0133807D01*
X0145397Y0135209D01*
X0144662Y0136686D01*
X0144066Y0138224D01*
X0144066Y0138224D01*
X0143615Y0139811D01*
X0143615Y0139811D01*
X0143318Y0141400D01*
X0147273Y0141400D01*
X0147273Y0141400D01*
X0143318Y0141400D01*
X0143312Y0141433D01*
X0143312Y0141433D01*
X0143159Y0143075D01*
X0143159Y0144725D01*
X0143312Y0146367D01*
X0143312Y0146367D01*
X0143615Y0147989D01*
X0143615Y0147989D01*
X0144066Y0149576D01*
X0144066Y0149576D01*
X0144662Y0151114D01*
X0144662Y0151114D01*
X0145397Y0152591D01*
X0145397Y0152591D01*
X0146134Y0153780D01*
X0146266Y0153993D01*
X0146266Y0153993D01*
X0147099Y0155096D01*
X0147260Y0155310D01*
X0147260Y0155310D01*
X0148204Y0156345D01*
X0148371Y0156529D01*
X0148371Y0156529D01*
X0148371Y0156529D01*
X0149590Y0157640D01*
X0149590Y0157640D01*
X0150907Y0158634D01*
X0150907Y0158634D01*
X0152309Y0159503D01*
X0152309Y0159503D01*
X0153500Y0160095D01*
X0153500Y0157774D01*
X0153500Y0157774D01*
X0153500Y0160095D01*
X0153786Y0160238D01*
X0153786Y0160238D01*
X0155324Y0160834D01*
X0155324Y0160834D01*
X0156911Y0161285D01*
X0156911Y0161285D01*
X0158533Y0161588D01*
X0158533Y0161588D01*
X0160175Y0161741D01*
X0177083Y0161741D01*
X0177348Y0161754D01*
X0177515Y0161741D01*
X0177682Y0161741D01*
X0177945Y0161706D01*
X0177945Y0161706D01*
X0178586Y0161654D01*
X0178586Y0161654D01*
X0179080Y0161571D01*
X0179154Y0166379D02*
X0130200Y0166379D01*
X0130200Y0156381D02*
X0148236Y0156381D01*
X0153500Y0163900D02*
X0156315Y0161085D01*
X0156315Y0150298D01*
X0143314Y0146382D02*
X0129029Y0146382D01*
X0128994Y0136384D02*
X0144813Y0136384D01*
X0153500Y0130026D02*
X0153500Y0130026D01*
X0157605Y0126385D02*
X0128866Y0126385D01*
X0130689Y0176378D02*
X0179307Y0176378D01*
X0179461Y0186376D02*
X0128800Y0186376D01*
X0120837Y0196375D02*
X0179615Y0196375D01*
X0179769Y0206373D02*
X0109577Y0206373D01*
X0109600Y0216372D02*
X0179923Y0216372D01*
X0159300Y0226370D02*
X0096000Y0226370D01*
X0096000Y0236369D02*
X0162958Y0236369D01*
X0174042Y0236369D02*
X0175855Y0236369D01*
X0180384Y0246367D02*
X0096000Y0246367D01*
X0096000Y0256366D02*
X0141496Y0256366D01*
X0141250Y0256961D02*
X0142734Y0253377D01*
X0145477Y0250634D01*
X0149061Y0249150D01*
X0152939Y0249150D01*
X0156523Y0250634D01*
X0159266Y0253377D01*
X0159777Y0254612D01*
X0164689Y0249700D01*
X0172311Y0249700D01*
X0177700Y0255089D01*
X0177700Y0262711D01*
X0172311Y0268100D01*
X0164689Y0268100D01*
X0159777Y0263188D01*
X0159572Y0263683D01*
X0160750Y0264861D01*
X0160750Y0272939D01*
X0155039Y0278650D01*
X0146961Y0278650D01*
X0141250Y0272939D01*
X0141250Y0264861D01*
X0142428Y0263683D01*
X0141250Y0260839D01*
X0141250Y0256961D01*
X0124098Y0262338D02*
X0123033Y0261489D01*
X0121879Y0260763D01*
X0120651Y0260172D01*
X0119364Y0259722D01*
X0118036Y0259419D01*
X0116681Y0259266D01*
X0116000Y0259266D01*
X0116000Y0271400D01*
X0128134Y0271400D01*
X0128134Y0272081D01*
X0127981Y0273436D01*
X0127678Y0274764D01*
X0127228Y0276051D01*
X0126637Y0277279D01*
X0125911Y0278433D01*
X0125062Y0279498D01*
X0124098Y0280462D01*
X0123033Y0281311D01*
X0121879Y0282037D01*
X0120651Y0282628D01*
X0119364Y0283078D01*
X0118036Y0283381D01*
X0116681Y0283534D01*
X0116000Y0283534D01*
X0116000Y0271400D01*
X0116000Y0271400D01*
X0116000Y0271400D01*
X0128134Y0271400D01*
X0128134Y0270719D01*
X0127981Y0269364D01*
X0127678Y0268036D01*
X0127228Y0266749D01*
X0126637Y0265521D01*
X0125911Y0264367D01*
X0125062Y0263302D01*
X0124098Y0262338D01*
X0127042Y0266364D02*
X0141250Y0266364D01*
X0160750Y0266364D02*
X0162954Y0266364D01*
X0174046Y0266364D02*
X0180692Y0266364D01*
X0180538Y0256366D02*
X0177700Y0256366D01*
X0176250Y0276363D02*
X0157326Y0276363D01*
X0144674Y0276363D02*
X0127078Y0276363D01*
X0116000Y0276363D02*
X0116000Y0276363D01*
X0116000Y0271400D02*
X0116000Y0283534D01*
X0115319Y0283534D01*
X0113964Y0283381D01*
X0112636Y0283078D01*
X0111349Y0282628D01*
X0110121Y0282037D01*
X0108967Y0281311D01*
X0107902Y0280462D01*
X0106938Y0279498D01*
X0106089Y0278433D01*
X0105363Y0277279D01*
X0104772Y0276051D01*
X0104322Y0274764D01*
X0104019Y0273436D01*
X0103866Y0272081D01*
X0103866Y0271400D01*
X0116000Y0271400D01*
X0116000Y0271400D01*
X0116000Y0271400D01*
X0116000Y0259266D01*
X0115319Y0259266D01*
X0113964Y0259419D01*
X0112636Y0259722D01*
X0111349Y0260172D01*
X0110121Y0260763D01*
X0108967Y0261489D01*
X0107902Y0262338D01*
X0106938Y0263302D01*
X0106089Y0264367D01*
X0105363Y0265521D01*
X0104772Y0266749D01*
X0104322Y0268036D01*
X0104019Y0269364D01*
X0103866Y0270719D01*
X0103866Y0271400D01*
X0116000Y0271400D01*
X0116000Y0266364D02*
X0116000Y0266364D01*
X0104957Y0266364D02*
X0096000Y0266364D01*
X0096000Y0276363D02*
X0104922Y0276363D01*
X0096000Y0286361D02*
X0179673Y0286361D01*
D41*
X0061000Y0211400D02*
X0061000Y0191400D01*
X0063500Y0188900D01*
X0118500Y0188900D01*
X0121000Y0186400D01*
X0121000Y0173900D01*
M02*
