%
M48
M72
T01C0.01969
T02C0.02362
T03C0.03150
T04C0.03200
T05C0.04000
T06C0.04331
T07C0.04400
T08C0.05200
T09C0.07087
T10C0.07874
T11C0.08268
T12C0.11024
T13C0.11811
T14C0.12500
T15C0.13000
T16C0.13780
%
T01
X156315Y137502
X153500Y141400
X153500Y146400
X156315Y150298
X160941Y151774
X166157Y151774
X171374Y151774
X176689Y151774
X181315Y150298
X184169Y146361
X184169Y141439
X181315Y137502
X176689Y136026
X171374Y136026
X166157Y136026
X160941Y136026
X192831Y141439
X195685Y137502
X200311Y136026
X205528Y136026
X210843Y136026
X216059Y136026
X220685Y137502
X223500Y141400
X223500Y146400
X220685Y150298
X216059Y151774
X210843Y151774
X205528Y151774
X200311Y151774
X195685Y150298
X192831Y146361
X238500Y146400
X241315Y150298
X245941Y151774
X251157Y151774
X256374Y151774
X261689Y151774
X266315Y150298
X269169Y146361
X269169Y141439
X266315Y137502
X261689Y136026
X256374Y136026
X251157Y136026
X245941Y136026
X241315Y137502
X238500Y141400
X277831Y141439
X280685Y137502
X285311Y136026
X290528Y136026
X295843Y136026
X301059Y136026
X305685Y137502
X308500Y141400
X308500Y146400
X305685Y150298
X301059Y151774
X295843Y151774
X290528Y151774
X285311Y151774
X280685Y150298
X277831Y146361
X323500Y146400
X326315Y150298
X330941Y151774
X336157Y151774
X341374Y151774
X346689Y151774
X351315Y150298
X354169Y146361
X354169Y141439
X351315Y137502
X346689Y136026
X341374Y136026
X336157Y136026
X330941Y136026
X326315Y137502
X323500Y141400
X362831Y141439
X365685Y137502
X370311Y136026
X375528Y136026
X380843Y136026
X386059Y136026
X390685Y137502
X393500Y141400
X393500Y146400
X390685Y150298
X386059Y151774
X380843Y151774
X375528Y151774
X370311Y151774
X365685Y150298
X362831Y146361
X408500Y146400
X411315Y150298
X415941Y151774
X421157Y151774
X426374Y151774
X431689Y151774
X436315Y150298
X439169Y146361
X439169Y141439
X436315Y137502
X431689Y136026
X426374Y136026
X421157Y136026
X415941Y136026
X411315Y137502
X408500Y141400
X447831Y141439
X450685Y137502
X455311Y136026
X460528Y136026
X465843Y136026
X471059Y136026
X475685Y137502
X478500Y141400
X478500Y146400
X475685Y150298
X471059Y151774
X465843Y151774
X460528Y151774
X455311Y151774
X450685Y150298
X447831Y146361
X766394Y363329
X762850Y365888
X761472Y370219
X761472Y375632
X761472Y381046
X761472Y386459
X761472Y391872
X762850Y396400
X766591Y399550
X771315Y400731
X776039Y399550
X779780Y396400
X781157Y391872
X781157Y386459
X781157Y381046
X781157Y375632
X781157Y370219
X779780Y365888
X776236Y363329
X771315Y362148
X800843Y370219
X802220Y365888
X805764Y363329
X810685Y362148
X815606Y363329
X819150Y365888
X820528Y370219
X820528Y375632
X820528Y381046
X820528Y386459
X820528Y391872
X819150Y396400
X815409Y399550
X810685Y400731
X805961Y399550
X802220Y396400
X800843Y391872
X800843Y386459
X800843Y381046
X800843Y375632
T02
X776000Y346400
X781000Y338900
X633500Y326400
X553500Y191400
X443500Y191400
X673500Y161400
X678500Y161400
X196000Y191400
T03
X196020Y228152
X188500Y228152
X180980Y228152
X265980Y228152
X273500Y228152
X281020Y228152
X350980Y228152
X358500Y228152
X366020Y228152
X435980Y228152
X443500Y228152
X451020Y228152
X121000Y131400
X121000Y121400
X91000Y121400
X91000Y131400
X206000Y433900
X206000Y443900
X236000Y443900
X236000Y433900
X348500Y433900
X348500Y443900
X378500Y443900
X378500Y433900
X481000Y433900
X481000Y443900
X511000Y443900
X511000Y433900
T04
X81000Y91400
X91000Y101400
X91000Y111400
X68500Y101400
X131000Y101400
X131000Y111400
X81000Y131400
X68500Y131400
X81000Y141400
X81000Y153900
X81000Y163900
X121000Y163900
X121000Y153900
X121000Y141400
X168500Y228900
X253500Y228900
X253500Y258900
X236000Y258900
X236000Y268900
X196000Y278900
X186000Y278900
X151000Y268900
X151000Y258900
X168500Y258900
X271000Y278900
X281000Y278900
X323500Y268900
X323500Y258900
X338500Y258900
X356000Y278900
X366000Y278900
X403500Y268900
X403500Y258900
X423500Y258900
X441000Y278900
X451000Y278900
X486000Y278900
X526000Y278900
X538500Y281400
X538500Y291400
X568500Y291400
X568500Y281400
X568500Y271400
X568500Y261400
X538500Y261400
X526000Y261400
X538500Y271400
X486000Y261400
X423500Y228900
X338500Y228900
X653500Y326400
X653500Y343900
X693500Y343900
X693500Y326400
X868500Y311400
X888500Y318900
X933500Y301400
X968500Y313900
X988500Y318900
X1033500Y301400
X1068500Y311400
X1088500Y318900
X1133500Y301400
X1171000Y311400
X1188500Y318900
X1233500Y301400
X1271000Y313900
X1288500Y318900
X1333500Y301400
X1368500Y311400
X1388500Y318900
X1433500Y301400
X1433500Y261400
X1333500Y261400
X1233500Y261400
X1133500Y261400
X1033500Y261400
X933500Y261400
X888500Y348900
X868500Y351400
X968500Y353900
X988500Y348900
X1068500Y351400
X1088500Y348900
X1171000Y351400
X1188500Y348900
X1271000Y353900
X1288500Y348900
X1368500Y351400
X1388500Y348900
X648500Y383900
X628500Y383900
X618500Y383900
X598500Y383900
X521000Y398900
X521000Y411400
X536000Y416400
X521000Y423900
X551000Y423900
X481000Y423900
X466000Y413900
X456000Y413900
X481000Y411400
X481000Y398900
X421000Y423900
X406000Y416400
X388500Y411400
X388500Y401400
X348500Y401400
X348500Y411400
X331000Y413900
X316000Y413900
X348500Y423900
X388500Y423900
X421000Y453900
X406000Y456400
X456000Y453900
X466000Y453900
X536000Y456400
X551000Y453900
X331000Y453900
X316000Y453900
X276000Y456400
X261000Y458900
X188500Y453900
X176000Y453900
X206000Y423900
X188500Y413900
X176000Y413900
X206000Y411400
X206000Y401400
X246000Y401400
X246000Y411400
X261000Y418900
X246000Y423900
X276000Y426400
T05
X696000Y306400
X706000Y306400
X716000Y306400
X726000Y306400
X710803Y286951
X700803Y286951
X690803Y286951
X690803Y276951
X700803Y276951
X710803Y276951
X791000Y276400
X791000Y266400
X791000Y256400
X791000Y246400
X791000Y236400
X791000Y226400
X791000Y216400
X791000Y206400
X791000Y190400
X791000Y180400
X791000Y170400
X791000Y160400
X791000Y150400
X791000Y140400
X791000Y130400
X791000Y120400
X791000Y110400
X791000Y100400
X601000Y136400
X601000Y146400
X601000Y156400
X601000Y166400
X601000Y176400
X601000Y186400
X601000Y196400
X601000Y206400
X601000Y226400
X601000Y236400
X601000Y246400
X601000Y256400
X601000Y266400
X601000Y276400
X848500Y301400
X858500Y301400
X868500Y301400
X878500Y301400
X888500Y301400
X898500Y301400
X908500Y301400
X918500Y301400
X918500Y291400
X918500Y281400
X948500Y301400
X958500Y301400
X968500Y301400
X978500Y301400
X988500Y301400
X998500Y301400
X1008500Y301400
X1018500Y301400
X1018500Y291400
X1018500Y281400
X1048500Y301400
X1058500Y301400
X1068500Y301400
X1078500Y301400
X1088500Y301400
X1098500Y301400
X1108500Y301400
X1118500Y301400
X1118500Y291400
X1118500Y281400
X1148500Y301400
X1158500Y301400
X1168500Y301400
X1178500Y301400
X1188500Y301400
X1198500Y301400
X1208500Y301400
X1218500Y301400
X1218500Y291400
X1218500Y281400
X1248500Y301400
X1258500Y301400
X1268500Y301400
X1278500Y301400
X1288500Y301400
X1298500Y301400
X1308500Y301400
X1318500Y301400
X1318500Y291400
X1318500Y281400
X1348500Y301400
X1358500Y301400
X1368500Y301400
X1378500Y301400
X1388500Y301400
X1398500Y301400
X1408500Y301400
X1418500Y301400
X1418500Y291400
X1418500Y281400
X1418500Y186400
X1408500Y186400
X1398500Y186400
X1388500Y186400
X1378500Y186400
X1368500Y186400
X1358500Y186400
X1348500Y186400
X1318500Y186400
X1308500Y186400
X1298500Y186400
X1288500Y186400
X1278500Y186400
X1268500Y186400
X1258500Y186400
X1248500Y186400
X1218500Y186400
X1208500Y186400
X1198500Y186400
X1188500Y186400
X1178500Y186400
X1168500Y186400
X1158500Y186400
X1148500Y186400
X1118500Y186400
X1108500Y186400
X1098500Y186400
X1088500Y186400
X1078500Y186400
X1068500Y186400
X1058500Y186400
X1048500Y186400
X1018500Y186400
X1008500Y186400
X998500Y186400
X988500Y186400
X978500Y186400
X968500Y186400
X958500Y186400
X948500Y186400
X918500Y186400
X908500Y186400
X898500Y186400
X888500Y186400
X878500Y186400
X868500Y186400
X858500Y186400
X848500Y186400
T06
X101000Y211400
X61000Y211400
T07
X81000Y173900
X121000Y173900
X481000Y386400
X521000Y386400
X648500Y403900
X658500Y403900
X668500Y403900
X388500Y388900
X348500Y388900
X246000Y391400
X206000Y391400
T08
X204000Y364900
X252000Y364900
X196000Y341400
X204000Y317900
X252000Y317900
X318500Y341400
X326500Y317900
X374500Y317900
X424000Y317900
X472000Y317900
X416000Y341400
X424000Y364900
X472000Y364900
X374500Y364900
X326500Y364900
T09
X337280Y110652
X359720Y110652
X382161Y110652
X404602Y110652
X404602Y88998
X382161Y88998
X359720Y88998
X337280Y88998
X314839Y88998
X292398Y88998
X292398Y110652
X314839Y110652
X1097398Y110652
X1119839Y110652
X1142280Y110652
X1164720Y110652
X1187161Y110652
X1209602Y110652
X1209602Y88998
X1187161Y88998
X1164720Y88998
X1142280Y88998
X1119839Y88998
X1097398Y88998
T10
X471059Y143900
X415941Y143900
X386059Y143900
X330941Y143900
X301059Y143900
X245941Y143900
X216059Y143900
X160941Y143900
T11
X46000Y261400
X116000Y271400
T12
X771315Y391243
X810685Y391243
T13
X833244Y426676
X748756Y426676
X40370Y361046
X40370Y164195
X292398Y60258
X404602Y60258
X1097398Y60258
X1209602Y60258
X1456906Y164195
X1456906Y361046
T14
X731000Y286400
X621000Y286400
X791000Y86400
X601000Y81400
T15
X658500Y462900
T16
X132535Y443723
X81551Y443723
X1364740Y443723
X1415724Y443723
M30
